
<svg width="144" height="144" viewBox="0 0 144 144" fill="none" xmlns="http://www.w3.org/2000/svg">
<mask id="mask0_18_317" style="mask-type:alpha" maskUnits="userSpaceOnUse" x="19" y="19" width="106" height="106">
<circle cx="71.8661" cy="71.8661" r="51.6868" transform="rotate(58.1563 71.8661 71.8661)" fill="#D9D9D9" stroke="#004AAD"/>
</mask>
<g mask="url(#mask0_18_317)">
<mask id="mask1_18_317" style="mask-type:alpha" maskUnits="userSpaceOnUse" x="-5" y="-6" width="153" height="156">
<rect x="86.1411" y="-3.75565" width="113.16" height="104.05" transform="rotate(58.1563 86.1411 -3.75565)" fill="#D9D9D9" stroke="#004AAD" stroke-width="3"/>
</mask>
<g mask="url(#mask1_18_317)">
<line x1="24.6428" y1="-53.28" x2="-59.0013" y2="99.1384" stroke="#004AAD" stroke-width="2"/>
<line x1="32.1163" y1="-49.6271" x2="-51.5277" y2="102.791" stroke="#004AAD" stroke-width="2"/>
<line x1="39.5898" y1="-45.9751" x2="-44.0542" y2="106.443" stroke="#004AAD" stroke-width="2"/>
<line x1="47.0634" y1="-42.3226" x2="-36.5807" y2="110.096" stroke="#004AAD" stroke-width="2"/>
<line x1="54.5369" y1="-38.6701" x2="-29.1071" y2="113.748" stroke="#004AAD" stroke-width="2"/>
<line x1="62.0104" y1="-35.0176" x2="-21.6336" y2="117.401" stroke="#004AAD" stroke-width="2"/>
<line x1="69.4839" y1="-31.3645" x2="-14.1601" y2="121.054" stroke="#004AAD" stroke-width="2"/>
<line x1="76.9574" y1="-27.7125" x2="-6.68659" y2="124.706" stroke="#004AAD" stroke-width="2"/>
<line x1="84.431" y1="-24.0594" x2="0.786935" y2="128.359" stroke="#004AAD" stroke-width="2"/>
<line x1="91.9045" y1="-20.4075" x2="8.26045" y2="132.011" stroke="#004AAD" stroke-width="2"/>
<line x1="99.378" y1="-16.7549" x2="15.734" y2="135.663" stroke="#004AAD" stroke-width="2"/>
<line x1="106.852" y1="-13.1013" x2="23.2075" y2="139.317" stroke="#004AAD" stroke-width="2"/>
<line x1="114.325" y1="-9.4499" x2="30.681" y2="142.968" stroke="#004AAD" stroke-width="2"/>
<line x1="121.799" y1="-5.7968" x2="38.1545" y2="146.622" stroke="#004AAD" stroke-width="2"/>
<line x1="129.272" y1="-2.14476" x2="45.628" y2="150.274" stroke="#004AAD" stroke-width="2"/>
<line x1="136.746" y1="1.50826" x2="53.1015" y2="153.927" stroke="#004AAD" stroke-width="2"/>
<line x1="144.219" y1="5.16133" x2="60.5751" y2="157.58" stroke="#004AAD" stroke-width="2"/>
<line x1="151.693" y1="8.81331" x2="68.0486" y2="161.232" stroke="#004AAD" stroke-width="2"/>
<line x1="159.166" y1="12.4664" x2="75.5221" y2="164.885" stroke="#004AAD" stroke-width="2"/>
<line x1="166.64" y1="16.1195" x2="82.9956" y2="168.538" stroke="#004AAD" stroke-width="2"/>
<line x1="174.113" y1="19.771" x2="90.4691" y2="172.189" stroke="#004AAD" stroke-width="2"/>
<line x1="181.587" y1="23.4245" x2="97.9427" y2="175.843" stroke="#004AAD" stroke-width="2"/>
<line x1="189.06" y1="27.076" x2="105.416" y2="179.494" stroke="#004AAD" stroke-width="2"/>
<line x1="196.534" y1="30.729" x2="112.89" y2="183.147" stroke="#004AAD" stroke-width="2"/>
<line x1="204.007" y1="34.3822" x2="120.363" y2="186.8" stroke="#004AAD" stroke-width="2"/>
</g>
</g>
</svg>
