
<svg width="140" height="140" viewBox="0 0 140 140" fill="none" xmlns="http://www.w3.org/2000/svg">
<g clip-path="url(#clip0_495_322)">
<path d="M8.68282 96.8404C8.35179 95.9826 7.61691 95.2023 7.1088 94.2952C6.60068 93.3881 6.36941 92.1768 6.0883 91.1421C5.8842 90.5115 4.89965 90.6161 5.10375 91.2467C5.31236 93.2153 5.65233 96.7494 7.72544 97.5256C8.38331 97.9019 8.88692 97.471 8.68282 96.8404Z" fill="#5E17EB" fill-opacity="0.49"/>
<path d="M20.0599 108.645C19.1979 107.639 18.0094 107.112 16.8707 106.409C15.6051 105.479 14.3394 104.549 13.5274 103.365C13.2234 103.088 12.7697 103.342 12.8469 103.746C14.0671 106.191 16.4758 109.163 19.2567 110.138C20.0144 110.161 20.4908 109.149 20.0599 108.645Z" fill="#5E17EB" fill-opacity="0.49"/>
<path d="M33.0757 104.486C31.9414 105.122 30.9343 105.983 29.673 106.391C28.4117 106.8 27.3002 106.677 26.0119 106.504C25.2542 106.482 25.4084 107.29 25.8892 107.616C28.7972 108.819 32.0274 108.202 34.0147 105.897C34.4411 105.063 33.8061 103.929 33.0757 104.486Z" fill="#5E17EB" fill-opacity="0.49"/>
<path d="M38.7748 94.4426C38.6478 94.2161 38.2939 94.1162 37.8902 94.193C36.9828 94.7013 36.9102 95.6356 36.7104 96.3436C36.3611 97.5818 35.8846 98.5934 35.0544 99.5052C34.6777 100.163 35.4626 100.766 35.9662 100.335C36.7965 99.4237 37.4498 98.462 37.9262 97.4503C38.7066 96.7155 39.4597 95.4002 38.7748 94.4426Z" fill="#5E17EB" fill-opacity="0.49"/>
<path d="M36.4071 88.6176C35.4953 87.7873 34.8602 86.6531 34.1753 85.6958C33.5403 84.5613 33.0822 83.477 32.2202 82.4701C31.6125 81.9163 30.7049 82.4249 30.8592 83.2321C31.2674 84.4933 32.0793 85.6775 32.8912 86.8619C33.5763 87.8189 34.4382 88.8261 35.35 89.6561C36.1345 90.2595 37.142 89.398 36.4071 88.6176Z" fill="#5E17EB" fill-opacity="0.49"/>
<path d="M25.7966 79.5116C24.5581 79.1621 23.4467 79.0393 22.2354 79.2705C21.201 79.5517 19.663 80.2639 19.3633 81.326C19.2136 81.8568 19.7715 82.5872 20.4022 82.3828C21.2597 82.0517 21.9902 81.4935 22.6707 81.1125C23.5282 80.7814 24.5126 80.6774 25.2203 80.8771C26.2818 81.1766 26.808 79.9876 25.7966 79.5116Z" fill="#5E17EB" fill-opacity="0.49"/>
<path d="M22.2025 92.2504C21.7943 90.9892 22.1936 89.5738 22.847 88.6121C23.1737 88.1312 22.3889 87.5275 22.0623 88.0083C21.1321 89.274 20.4289 90.4126 20.3834 91.9279C20.3879 93.2659 20.7733 95.285 21.9118 95.9886C22.3928 96.315 23.0733 95.934 23.0461 95.3533C23.1686 94.2421 22.4837 93.2845 22.2025 92.2504Z" fill="#5E17EB" fill-opacity="0.49"/>
<path d="M32.5635 102.241C31.9556 101.687 31.021 101.615 30.2363 101.011C29.2745 100.358 28.5896 99.4004 27.9046 98.4434C27.5235 97.7629 26.6163 98.2706 26.9973 98.9512C27.8364 100.716 29.7914 103.942 32.1141 103.834C32.9214 103.679 33.2209 102.618 32.5635 102.241Z" fill="#5E17EB" fill-opacity="0.49"/>
<path d="M50.2426 103.217C47.5432 103.984 44.8437 104.751 42.1172 104.936C41.3096 105.091 41.1871 106.202 42.1216 106.275C45.1522 106.365 48.4866 106.733 51.0046 104.578C51.6854 104.198 51.0503 103.064 50.2426 103.217Z" fill="#5E17EB" fill-opacity="0.49"/>
<path d="M60.1608 93.7912C60.1834 93.0339 59.2988 92.7843 58.8451 93.0383C57.7609 93.4961 56.9578 94.9886 55.9506 95.8505C54.9434 96.7124 53.7592 97.5243 52.5751 98.3363C51.8946 98.7173 52.5296 99.8515 53.2101 99.4708C54.748 98.7587 56.1091 97.9966 57.4702 97.2346C58.6543 96.4226 60.1149 95.3066 60.1608 93.7912Z" fill="#5E17EB" fill-opacity="0.49"/>
<path d="M65.8962 79.5558C65.6921 78.9252 64.5807 78.8023 64.558 79.5599C63.9361 82.441 64.2489 85.3943 63.5002 88.0479C63.3505 88.5787 64.0582 88.7784 64.2079 88.2476C65.1835 85.467 66.7895 82.4817 65.8962 79.5558Z" fill="#5E17EB" fill-opacity="0.49"/>
<path d="M64.8625 72.3875C64.6312 71.1761 64.3999 69.9648 63.7649 68.8306C63.1797 67.5198 62.6944 65.8548 61.5558 65.1515C61.0749 64.8248 60.2174 65.1559 60.4215 65.7865C60.4759 66.9479 61.3378 67.9551 61.8459 68.8622C62.4809 69.9967 63.243 71.3575 63.6512 72.6187C63.9822 73.4765 65.0166 73.1953 64.8625 72.3875Z" fill="#5E17EB" fill-opacity="0.49"/>
<path d="M55.9037 58.7814C55.1416 57.4203 54.0529 56.5401 52.7872 55.61C51.2947 54.8069 49.2715 53.854 47.7063 53.9854C46.7218 54.0897 46.4223 55.1513 47.2071 55.7547C49.5615 57.565 52.9686 56.9982 54.8965 59.6433C55.3271 60.1468 56.1078 59.412 55.9037 58.7814Z" fill="#5E17EB" fill-opacity="0.49"/>
<path d="M43.8857 59.4017C40.8097 60.826 35.2157 64.405 37.098 68.5655C37.479 69.246 38.4636 69.1415 38.7903 68.6606C39.5434 67.3451 39.589 65.8295 40.2922 64.6912C41.3222 63.0714 43.0099 61.8288 44.4708 60.7129C45.2511 59.9783 44.5664 59.0211 43.8857 59.4017Z" fill="#5E17EB" fill-opacity="0.49"/>
<path d="M43.3442 78.9232C42.5323 77.7388 41.6703 76.7319 40.8583 75.5477C40.0963 74.1867 39.7379 72.7488 39.3797 71.3104C39.3525 70.7297 38.368 70.8342 38.3952 71.4149C38.3043 74.4451 38.8754 79.1908 42.464 80.012C42.9948 80.1614 43.7751 79.4268 43.3442 78.9232Z" fill="#5E17EB" fill-opacity="0.49"/>
<path d="M53.5967 86.5911C51.6233 85.4614 49.2236 85.166 47.8537 83.2511C47.5996 82.7977 46.9191 83.1787 47.173 83.6327C48.3934 86.0775 50.8474 87.5345 53.4741 87.7026C53.828 87.8025 54.0776 86.9178 53.5967 86.5911Z" fill="#5E17EB" fill-opacity="0.49"/>
<path d="M68.5944 93.6878C66.6937 91.6235 62.8781 90.929 60.1247 90.5339C59.417 90.3342 59.1175 91.3958 59.7752 91.7726C61.1408 92.3486 62.7332 92.7979 64.0486 93.5514C65.2373 94.0774 66.326 94.9576 67.5645 95.3071C68.6759 95.4299 69.202 94.241 68.5944 93.6878Z" fill="#5E17EB" fill-opacity="0.49"/>
<path d="M84.4185 91.0851C82.8533 91.2165 81.7191 91.8515 80.2311 92.3864C78.693 93.0991 77.2552 93.4572 75.6399 93.7652C74.8323 93.9197 75.0137 95.3076 75.7713 95.3304C77.2867 95.3756 78.5478 94.9677 79.9859 94.6097C81.651 94.1241 83.3163 93.6389 84.9038 92.75C85.584 92.3689 85.4028 90.9804 84.4185 91.0851Z" fill="#5E17EB" fill-opacity="0.49"/>
<path d="M95.5433 80.0891C95.5661 79.3312 94.5046 79.0317 94.1279 79.6898C93.0482 81.4856 92.0181 83.1057 90.3304 84.3483C89.8268 84.7793 90.2078 85.4598 90.8385 85.2554C93.057 84.1626 95.1481 82.8428 95.5433 80.0891Z" fill="#5E17EB" fill-opacity="0.49"/>
<path d="M99.5592 65.1773C99.2281 64.3199 98.0168 64.5511 97.994 65.3087C98.0525 67.8084 97.5309 70.3353 97.0589 72.6853C96.8592 73.393 98.0977 73.7424 98.2974 73.0347C99.3503 70.6577 100.503 67.9266 99.5592 65.1773Z" fill="#5E17EB" fill-opacity="0.49"/>
<path d="M98.2179 48.9452C97.8868 48.0877 96.7526 48.7227 96.9068 49.5303C97.2695 52.3068 98.2129 55.056 98.7525 57.8824C98.7797 58.4631 99.7642 58.3589 99.737 57.7782C99.828 54.7477 99.5648 51.6173 98.2179 48.9452Z" fill="#5E17EB" fill-opacity="0.49"/>
<path d="M91.1501 42.1757C90.007 40.1341 87.6485 36.9855 84.9219 37.1713C84.1643 37.1485 83.8648 38.2101 84.5226 38.5867C85.4843 39.24 86.5958 39.3626 87.5575 40.016C88.5192 40.6693 89.3811 41.6766 90.0161 42.8108C90.4471 43.3144 91.3545 42.8061 91.1501 42.1757Z" fill="#5E17EB" fill-opacity="0.49"/>
<path d="M79.0152 37.7966C77.4228 37.3474 75.9076 37.3019 74.4966 38.2409C73.3125 39.0528 71.2481 40.9535 71.7334 42.6185C71.8876 43.4261 72.8222 43.4987 73.5027 43.1177C74.0063 42.6868 74.1061 42.3329 74.2559 41.8021C74.4056 41.2713 74.7822 40.6136 75.2858 40.1826C76.1161 39.2708 77.5271 38.3318 78.8155 38.5043C79.3459 38.6543 79.5457 37.9463 79.0152 37.7966Z" fill="#5E17EB" fill-opacity="0.49"/>
<path d="M77.4121 57.0185C76.8769 55.5305 75.7111 54.2465 75.1257 52.9353C74.4138 51.3974 74.1055 49.7823 73.7971 48.1672C73.6429 47.3597 72.4316 47.5909 72.4089 48.3486C72.3179 51.379 73.243 56.2243 76.0011 57.9575C76.6589 58.3341 77.6159 57.6491 77.4121 57.0185Z" fill="#5E17EB" fill-opacity="0.49"/>
<path d="M89.4968 69.0237C88.2811 67.9166 86.9156 67.3403 85.473 66.3603C83.4994 65.2304 82.0296 63.6697 80.8366 61.805C80.3289 60.8977 78.9675 61.6597 79.4755 62.5671C81.2037 65.9198 84.978 69.4678 88.6934 70.5161C89.4012 70.7155 90.1047 69.5772 89.4968 69.0237Z" fill="#5E17EB" fill-opacity="0.49"/>
<path d="M107.349 61.2628C106.215 61.8978 105.688 63.0864 105.035 64.0481C104.105 65.3137 102.948 66.7064 101.714 67.6952C100.807 68.2033 101.569 69.5644 102.476 69.0564C103.837 68.2943 105.071 67.3053 106.128 66.2666C107.186 65.2279 108.519 63.8851 108.742 62.4197C108.765 61.6622 108.029 60.8818 107.349 61.2628Z" fill="#5E17EB" fill-opacity="0.49"/>
<path d="M115.543 49.8221C112.694 51.1193 110.838 54.989 110.217 57.8697C109.967 58.7543 111.206 59.1037 111.632 58.269C112.158 57.0804 112.912 55.7649 113.615 54.6262C114.545 53.3606 115.956 52.4216 116.709 51.1061C116.959 50.2214 116.224 49.4407 115.543 49.8221Z" fill="#5E17EB" fill-opacity="0.49"/>
<path d="M125.266 42.4416C124.254 41.9652 123.12 42.6002 122.262 42.9312C121.178 43.3894 120.348 44.3012 119.744 45.086C119.141 45.8707 120.18 46.928 120.783 46.1431C121.514 45.5851 122.068 44.9773 122.975 44.4692C123.832 44.1381 124.944 44.2607 125.547 43.476C125.774 43.3489 125.747 42.7683 125.266 42.4416Z" fill="#5E17EB" fill-opacity="0.49"/>
<path d="M133.089 41.9465C132.649 39.7457 131.989 37.3248 131.108 35.124C130.888 34.4637 130.228 33.8035 129.568 33.8035C125.166 34.0235 121.205 35.344 117.463 37.765C116.143 38.6453 117.243 40.626 118.784 39.9658C121.865 38.2051 124.946 37.3248 128.247 37.3248C128.687 38.8654 129.128 40.406 129.568 41.9465C130.008 43.7072 129.788 45.4679 130.888 46.7884C131.548 47.6687 132.649 47.2285 133.089 46.5683C134.19 45.2478 133.529 43.2667 133.089 41.9465Z" fill="#A883F0"/>
</g>
<defs>
<clipPath id="clip0_495_322">
<rect width="113.278" height="113.278" fill="white" transform="translate(30.7594) rotate(15.7559)"/>
</clipPath>
</defs>
</svg>
