<svg viewBox="0 0 26 26" fill="none" xmlns="http://www.w3.org/2000/svg">
<g clip-path="url(#clip0_446_2218)">
<path d="M13 0C10.4288 0 7.91543 0.762437 5.77759 2.1909C3.63975 3.61935 1.97351 5.64968 0.989572 8.02512C0.00563274 10.4006 -0.251811 13.0144 0.249797 15.5362C0.751405 18.0579 1.98953 20.3743 3.80762 22.1924C5.6257 24.0105 7.94208 25.2486 10.4638 25.7502C12.9856 26.2518 15.5995 25.9944 17.9749 25.0104C20.3503 24.0265 22.3807 22.3603 23.8091 20.2224C25.2376 18.0846 26 15.5712 26 13C26 9.55219 24.6304 6.24558 22.1924 3.80761C19.7544 1.36964 16.4478 0 13 0ZM8.86364 20.5755C8.86384 20.6476 8.8498 20.719 8.82235 20.7856C8.79489 20.8523 8.75455 20.9129 8.70364 20.964C8.65273 21.015 8.59224 21.0555 8.52565 21.0831C8.45906 21.1108 8.38767 21.125 8.31557 21.125H5.98001C5.90778 21.1252 5.83624 21.1111 5.76947 21.0836C5.70271 21.056 5.64205 21.0155 5.59098 20.9645C5.53991 20.9134 5.49944 20.8527 5.47189 20.786C5.44435 20.7192 5.43026 20.6477 5.43046 20.5755V10.7841C5.43046 10.6383 5.48836 10.4986 5.59142 10.3955C5.69448 10.2924 5.83426 10.2345 5.98001 10.2345H8.31557C8.46107 10.2349 8.60047 10.293 8.70321 10.396C8.80595 10.499 8.86364 10.6386 8.86364 10.7841V20.5755ZM7.14705 9.30682C6.70879 9.30682 6.28036 9.17686 5.91596 8.93337C5.55155 8.68988 5.26753 8.34381 5.09982 7.9389C4.9321 7.534 4.88822 7.08845 4.97372 6.65861C5.05922 6.22876 5.27027 5.83393 5.58017 5.52402C5.89007 5.21412 6.2849 5.00308 6.71475 4.91758C7.14459 4.83208 7.59014 4.87596 7.99504 5.04368C8.39995 5.21139 8.74602 5.49541 8.98951 5.85982C9.233 6.22422 9.36296 6.65264 9.36296 7.09091C9.36296 7.67861 9.1295 8.24223 8.71393 8.65779C8.29837 9.07336 7.73475 9.30682 7.14705 9.30682ZM21.0718 20.6139C21.072 20.6803 21.0591 20.7461 21.0338 20.8074C21.0084 20.8688 20.9712 20.9246 20.9243 20.9715C20.8773 21.0185 20.8216 21.0557 20.7602 21.081C20.6988 21.1064 20.633 21.1193 20.5666 21.1191H18.0552C17.9888 21.1193 17.923 21.1064 17.8617 21.081C17.8003 21.0557 17.7445 21.0185 17.6975 20.9715C17.6506 20.9246 17.6134 20.8688 17.5881 20.8074C17.5627 20.7461 17.5498 20.6803 17.55 20.6139V16.0269C17.55 15.3415 17.7509 13.0251 15.7581 13.0251C14.2143 13.0251 13.8997 14.6102 13.8376 15.3223V20.6198C13.8376 20.7525 13.7854 20.8799 13.6923 20.9744C13.5991 21.069 13.4725 21.1231 13.3398 21.125H10.9141C10.8478 21.125 10.7822 21.1119 10.721 21.0865C10.6598 21.0611 10.6042 21.0239 10.5574 20.9769C10.5106 20.93 10.4735 20.8743 10.4483 20.813C10.423 20.7517 10.4102 20.6861 10.4103 20.6198V10.7413C10.4102 10.675 10.423 10.6093 10.4483 10.548C10.4735 10.4867 10.5106 10.431 10.5574 10.3841C10.6042 10.3372 10.6598 10.2999 10.721 10.2745C10.7822 10.2491 10.8478 10.236 10.9141 10.236H13.3398C13.4738 10.236 13.6023 10.2893 13.697 10.384C13.7918 10.4787 13.845 10.6073 13.845 10.7413V11.5951C14.4182 10.7339 15.2676 10.072 17.0802 10.072C21.0955 10.072 21.0689 13.8214 21.0689 15.8807L21.0718 20.6139Z" fill="currentColor"/>
</g>
<defs>
<clipPath id="clip0_446_2218">
<rect width="26" height="26" fill="white"/>
</clipPath>
</defs>
</svg>
