<svg viewBox="0 0 32 32" fill="none" xmlns="http://www.w3.org/2000/svg">
<path d="M16.0003 0C9.32988 0 3.92322 5.40654 3.92322 12.0761C3.92322 16.8596 10.1361 26.0132 13.6489 30.8085C14.1983 31.5565 15.0713 31.9993 16.0003 31.9993C16.9294 31.9993 17.8023 31.5579 18.351 30.8085C21.8652 26.0132 28.0767 16.8596 28.0767 12.0761C28.0767 5.40654 22.6701 0 16.0003 0ZM16.0003 19.5737C12.0602 19.5737 8.85342 16.3684 8.85342 12.427C8.85342 8.48557 12.0602 5.28024 16.0003 5.28024C19.9411 5.28024 23.1479 8.48627 23.1479 12.427C23.1479 16.3677 19.9411 19.5737 16.0003 19.5737Z" fill="white"/>
<path d="M16.0003 8.08057C13.604 8.08057 11.6539 10.0299 11.6539 12.4269C11.6539 14.8231 13.604 16.7717 16.0003 16.7717C18.3966 16.7717 20.346 14.8231 20.346 12.4269C20.3467 10.0299 18.3966 8.08057 16.0003 8.08057Z" fill="white"/>
</svg>
