
<svg width="130" height="121" viewBox="0 0 130 121" fill="none" xmlns="http://www.w3.org/2000/svg">
<path d="M116.88 85.09C116.519 85.263 116.312 85.6573 116.378 86.0513C116.478 86.6448 117.117 86.9804 117.661 86.7197L118.418 86.3547L119.009 86.0609L119.606 85.7568L120.21 85.4424L120.927 85.0607C121.268 84.8731 121.453 84.4886 121.381 84.1055C121.267 83.5019 120.598 83.1786 120.058 83.4761L119.369 83.8433L118.779 84.1503L118.196 84.4467L117.622 84.7322L116.88 85.09ZM108.582 88.138C108.258 88.216 108 88.4836 107.924 88.8066C107.775 89.4724 108.361 90.05 109.024 89.8895L109.376 89.8041L109.86 89.6784L110.348 89.5429L110.843 89.3988L111.344 89.2452L111.85 89.0815L112.362 88.9087L112.572 88.8351C113.447 88.5229 113.337 87.229 112.382 87.0884C112.228 87.072 112.107 87.0844 111.961 87.1348L111.773 87.2008L111.283 87.3661L110.8 87.5215L110.325 87.6683L109.854 87.8056L109.392 87.933L108.935 88.0512L108.582 88.138ZM100.044 88.4527C99.0949 88.2518 98.535 89.4815 99.3176 90.0652C99.4231 90.1398 99.5322 90.1918 99.6593 90.2189L99.7395 90.2373L100.104 90.3127L100.472 90.3778L100.846 90.4363L101.224 90.4862L101.608 90.5287L101.996 90.5613L102.389 90.5862L102.786 90.6028L103.189 90.6109L103.449 90.6107C103.86 90.6047 104.203 90.3338 104.312 89.9392C104.464 89.3565 104.029 88.8041 103.428 88.8039L103.207 88.8031L102.843 88.7963L102.484 88.7817L102.131 88.7589L101.783 88.7294L101.442 88.6915L101.104 88.6469L100.773 88.5951L100.446 88.536L100.124 88.4698L100.044 88.4527ZM92.8846 84.1603C92.2625 83.4852 91.1349 84.0761 91.3413 84.9776C91.3822 85.1377 91.446 85.2656 91.5592 85.3878L91.6527 85.491L91.897 85.7492L92.1441 86.0026L92.3959 86.2485L92.6506 86.4901L92.9108 86.7266L93.1742 86.955L93.4418 87.1786L93.7135 87.3971L93.9901 87.6085L94.2712 87.8139L94.414 87.9128C94.7299 88.1258 95.1446 88.1219 95.4529 87.8969C95.9563 87.5297 95.948 86.7678 95.4296 86.4184L95.3215 86.3421L95.0722 86.1616L94.8271 85.9734L94.5856 85.7795L94.347 85.5801L94.1113 85.3753L93.8784 85.1644L93.6492 84.9476L93.4226 84.7244L93.1987 84.4966L92.9785 84.263L92.8846 84.1603ZM88.262 76.766C87.8337 75.8691 86.4905 76.2107 86.5417 77.2033C86.5499 77.3227 86.5761 77.4212 86.6252 77.5295L86.9625 78.252L87.1361 78.6124L87.3125 78.9695L87.4907 79.3222L87.6713 79.6709L87.8539 80.0172L88.0396 80.3576L88.3006 80.8231C88.8243 81.7019 90.175 81.1882 89.9637 80.1681C89.9403 80.0757 89.911 79.9958 89.8637 79.9145L89.6224 79.4857L89.4461 79.161L89.2713 78.8331L89.0985 78.4994L88.9279 78.1619L88.7599 77.8205L88.5922 77.4753L88.4275 77.1253L88.262 76.766ZM85.1127 68.4197C84.8236 67.5747 83.6451 67.5967 83.3864 68.4463C83.3356 68.6288 83.337 68.7989 83.3949 68.9799C83.7701 70.1353 84.1615 71.2827 84.5704 72.4261C84.8995 73.2876 86.1169 73.1959 86.309 72.2828C86.3375 72.1168 86.325 71.9741 86.2697 71.8137C85.8681 70.6866 85.4832 69.557 85.1127 68.4197ZM82.4704 59.8014C82.1898 58.873 80.8284 58.9767 80.7067 59.9645C80.6937 60.083 80.705 60.206 80.7403 60.3214C81.0879 61.4752 81.4311 62.6304 81.7796 63.7838C82.0507 64.6804 83.3576 64.633 83.5369 63.6622C83.557 63.5259 83.5486 63.3952 83.5093 63.2623C83.1613 62.1082 82.8182 60.9536 82.4704 59.8014ZM79.7347 51.1541C79.4305 50.2655 78.1249 50.3727 77.9843 51.3284C77.9662 51.4698 77.9789 51.6041 78.0255 51.7391C78.4152 52.871 78.7881 54.0109 79.1515 55.1513C79.4182 55.99 80.6085 55.9937 80.8779 55.1395C80.9284 54.9573 80.9326 54.788 80.8738 54.6061C80.5074 53.4524 80.1299 52.299 79.7347 51.1541ZM76.379 42.6728C76.2563 42.4008 76.0059 42.2136 75.7153 42.159C74.9949 42.0359 74.4367 42.7596 74.7359 43.4254L75.0685 44.1508L75.2526 44.565L75.6143 45.3983C75.7969 45.8311 75.9799 46.2641 76.155 46.6992C76.5327 47.6249 77.9107 47.3539 77.8976 46.3394C77.8935 46.2292 77.873 46.1341 77.8329 46.0305C77.6529 45.5818 77.4651 45.1356 77.2767 44.6907L76.9059 43.8345L76.7172 43.4096L76.379 42.6728ZM71.7792 34.7031C71.1975 33.9262 69.9828 34.4632 70.162 35.4141C70.1899 35.5471 70.2401 35.6562 70.318 35.7665L70.5692 36.1159L70.8142 36.4658L71.0555 36.8189L71.2938 37.1755L71.5284 37.5353L71.7597 37.8997L71.9882 38.2675L72.2559 38.7092C72.4573 39.0486 72.8503 39.2221 73.2352 39.1334C73.8319 38.9967 74.123 38.3229 73.8144 37.7939L73.5279 37.3206L73.2899 36.9371L73.0478 36.5579L72.8018 36.1806L72.5531 35.8067L72.2997 35.4363L72.043 35.0699L71.7792 34.7031ZM65.3085 28.0785C64.7611 27.6664 63.984 27.9756 63.8679 28.6517C63.8197 28.982 63.9416 29.3116 64.212 29.5149L64.5523 29.7698L64.88 30.0255L65.2035 30.2855L65.5231 30.5503L65.838 30.82L66.1483 31.0952L66.4545 31.3746L66.756 31.6597L66.878 31.7781C67.5903 32.4725 68.7486 31.6777 68.33 30.7488C68.2819 30.6516 68.2255 30.5683 68.1474 30.4912L68.0067 30.3539L67.6842 30.05L67.3566 29.7515L67.0254 29.4574L66.6885 29.1686L66.3473 28.8852L65.9999 28.607L65.6494 28.3339L65.3085 28.0785ZM56.9497 23.9609C55.9981 23.6903 55.3528 24.9188 56.15 25.5486C56.2427 25.6175 56.3307 25.6611 56.4412 25.6958L56.9373 25.8447L57.3701 25.9841L57.7969 26.1293L58.2182 26.2817L58.6338 26.4396L59.043 26.6046L59.4471 26.7749L59.7139 26.8926C60.002 27.026 60.3521 26.9918 60.6104 26.807C61.1781 26.3986 61.0946 25.5394 60.461 25.2474L60.165 25.1161L59.732 24.9323L59.2932 24.7568L58.8475 24.5868L58.3964 24.424L57.9399 24.2677L57.4771 24.1189L56.9497 23.9609ZM47.8033 22.6389C46.9165 22.6203 46.5299 23.7405 47.2448 24.2727C47.3996 24.3817 47.5583 24.4386 47.7492 24.4455C48.9313 24.4786 50.1011 24.559 51.2771 24.6921C51.6654 24.7373 52.0454 24.5225 52.2045 24.1649C52.4563 23.6079 52.0872 22.9667 51.4833 22.8962C50.2563 22.7578 49.0376 22.6738 47.8033 22.6389ZM38.6206 23.3572C37.7409 23.5174 37.6049 24.7361 38.448 25.0845C38.6155 25.147 38.7697 25.1667 38.9473 25.1347C40.1007 24.9161 41.2824 24.7556 42.4501 24.6389C43.2506 24.5526 43.5536 23.5587 42.9382 23.0446C42.7457 22.8923 42.5198 22.8143 42.2728 22.8408C41.0538 22.9634 39.8245 23.1288 38.6206 23.3572ZM29.7954 26.0368C29.0615 26.3674 29.08 27.4046 29.8245 27.7044C30.0535 27.7895 30.295 27.794 30.5211 27.6924C31.5958 27.2183 32.6948 26.7976 33.8124 26.4338C34.1826 26.3159 34.4416 25.9586 34.4361 25.5687C34.4288 24.9546 33.8385 24.5288 33.2533 24.7146C32.0788 25.0992 30.9261 25.5382 29.7954 26.0368ZM21.9842 31.0876C21.8295 31.2375 21.7408 31.4087 21.7097 31.6217C21.5984 32.4645 22.5978 32.9823 23.2257 32.4004C24.0484 31.6157 24.9859 30.8675 25.9283 30.2291C26.7209 29.6746 26.226 28.4481 25.2788 28.5897C25.1393 28.6133 25.0281 28.6578 24.9108 28.7367C23.885 29.437 22.8828 30.2296 21.9842 31.0876ZM128.726 80.3632C128.965 80.2044 129.105 79.9619 129.13 79.6782C129.183 78.9269 128.355 78.4405 127.733 78.8541L127.042 79.3055L126.36 79.7458L125.684 80.1742L125.018 80.5915L124.705 80.7833C123.924 81.2752 124.289 82.4826 125.22 82.4542C125.377 82.446 125.525 82.4025 125.659 82.3187L125.971 82.126L126.649 81.7025L127.333 81.2668L128.025 80.8201L128.726 80.3632Z" fill="#CB6CE6"/>
<path fill-rule="evenodd" clip-rule="evenodd" d="M23.4688 32.6481L6.18066e-05 41.1045L18.7931 27.1783L23.4688 32.6481Z" fill="#7C3B8E"/>
<path fill-rule="evenodd" clip-rule="evenodd" d="M0.000145004 41.1044L18.3232 22.8149L18.7932 27.1782L0.000145004 41.1044Z" fill="#CB6CE6"/>
<path fill-rule="evenodd" clip-rule="evenodd" d="M19.275 30.7648L20.4193 40.5265L0.00016173 41.1044L19.275 30.7648Z" fill="#CB6CE6"/>
<path fill-rule="evenodd" clip-rule="evenodd" d="M23.4689 32.648L19.275 30.7648L19.6954 34.3526L23.4689 32.648Z" fill="#CB6CE6"/>
</svg>
