
<svg width="421" height="1050" viewBox="0 0 421 1050" fill="none" xmlns="http://www.w3.org/2000/svg">
<g opacity="0.44">
<path d="M50.1598 0H0V310.525C1.25632 308.536 2.51265 306.546 4.00162 304.257C5.21141 307.74 6.23508 310.725 7.30528 313.809C5.76977 316.097 4.2808 318.386 2.65223 320.774C1.76815 317.888 0.930618 315.202 0.0465404 312.217V348.632C0.139601 348.433 0.232661 348.334 0.372252 348.135C1.48898 351.617 2.41958 354.403 3.48978 357.686C2.37305 359.477 1.2098 361.368 0.0465404 363.258V400.668C0.232662 401.265 0.418771 401.763 0.651423 402.36C0.465301 402.658 0.279193 402.957 0.0465404 403.255V539.564C2.28 536.181 4.60651 532.699 6.79344 529.416C8.56159 534.589 10.702 540.659 12.5167 546.031C9.95752 549.912 6.79345 554.688 4.18775 558.667C2.97795 554.389 1.48898 549.116 0.0465404 544.042V577.571C1.11674 575.88 2.1404 574.288 3.07101 572.895C4.97875 578.566 7.39835 585.631 9.44569 591.6C7.07264 594.585 3.90855 598.665 0.977135 602.346C0.697952 601.451 0.372253 600.555 0.0465404 599.66V620.255C2.18694 626.026 4.23427 631.498 6.14201 636.672C3.86202 637.368 1.72164 639.358 0.0465404 642.144V673.983C1.07021 675.973 2.23346 677.565 3.58284 678.46C8.04977 681.445 13.3077 677.664 15.1224 668.709C16.1926 663.536 16.5648 656.471 15.8669 651.099C15.1689 645.925 12.7493 641.746 11.0277 636.871C16.2391 635.179 19.9616 628.911 20.613 617.071C21.2644 605.132 18.1003 597.57 12.7959 592.595C19.0309 591.401 20.5665 589.312 24.475 577.571C26.3362 592.297 29.3142 599.063 34.5256 599.958C38.8529 600.654 43.6456 594.884 44.7623 585.73C45.4137 580.258 45.3206 573.293 44.3435 568.119C43.3664 563.145 40.8537 559.563 39.0856 555.583C44.0643 554.389 45.786 552.001 49.3223 540.758C49.5084 542.45 49.648 544.042 49.8341 545.434C51.1369 555.483 54.6267 562.15 58.954 563.145C63.421 564.14 67.6087 558.667 69.7026 549.016C69.9818 547.822 70.2609 546.728 70.5866 545.534L70.4936 545.733C70.8659 533.594 68.8185 524.341 62.6765 518.77C68.2601 518.173 71.7034 513.297 74.123 502.353C74.6813 515.387 77.7989 522.451 82.638 526.431L82.4985 526.232C87.6633 527.028 91.8976 523.645 94.2707 513.098C96.8298 501.756 94.6894 491.01 88.9662 483.051C91.8976 479.469 95.2013 475.489 98.5514 471.41C99.4355 479.469 102.088 485.339 105.95 488.822C112.231 490.314 116.745 485.14 118.56 474.395C120.467 463.052 118.42 453.899 111.813 444.745C117.117 444.745 120.514 438.974 122.887 428.925C123.166 431.413 123.352 433.004 123.538 434.497C124.888 445.441 128.936 452.406 133.728 452.207C138.521 452.008 142.476 444.844 143.593 434.596C144.663 424.647 142.43 415.394 137.823 410.121C137.032 409.225 136.427 407.733 135.729 406.539C140.615 408.628 145.128 403.355 146.99 393.405C149.13 382.063 146.99 371.815 140.941 363.656C142.802 362.164 145.082 361.268 146.85 358.681C148.665 355.995 149.968 351.717 151.596 347.836C151.782 349.727 151.968 351.518 152.201 353.309C153.457 363.557 157.552 370.422 162.252 370.223C167.044 370.024 171.046 362.86 172.023 352.612C173 342.563 170.767 333.111 166.207 328.335C165.416 327.539 164.718 326.345 163.973 325.251C169.743 325.848 174.163 320.973 175.327 310.824C175.978 305.352 175.606 298.586 174.768 293.213C173.884 287.841 171.837 283.363 170.999 280.677C174.024 280.08 177.886 275.702 179.468 264.758C181.143 253.117 178.584 244.958 174.256 237.794C179.654 234.909 183.19 228.641 183.702 217.099C184.214 205.657 181.283 197.996 177.467 194.215C180.492 190.335 183.888 185.957 187.145 181.778C189.286 194.315 192.869 200.483 197.94 199.787C202.361 199.19 206.083 192.623 207.153 183.569C208.27 174.018 206.595 163.471 202.5 159.591C200.034 157.302 196.824 156.407 194.265 157.8C191.798 159.093 189.798 164.168 188.355 166.456C186.029 160.188 183.656 153.721 181.841 148.746C184.633 144.965 187.843 140.687 190.961 136.408C192.915 149.044 196.591 155.313 201.756 154.616C206.362 154.019 210.085 147.054 210.969 137.602C211.946 127.454 209.759 118.002 205.525 113.524C200.686 108.55 196.126 111.833 192.217 121.982C189.844 115.514 187.332 108.649 185.052 102.48C189.565 100.988 193.474 94.9188 194.218 82.6808C194.916 70.9404 191.938 63.0802 186.494 57.7074C192.683 56.7125 196.731 51.0412 197.801 38.9028C198.871 26.4658 195.707 18.3072 190.263 12.8349C191.519 12.3375 192.264 12.1385 193.008 11.84C196.545 10.1486 199.15 5.96975 200.593 0.0995168H182.12C183.283 5.07429 185.238 8.95458 187.704 10.9445C184.633 14.5263 181.283 18.5062 178.305 21.8891C176.583 17.0138 174.396 10.845 172.488 5.47228C173.512 3.78086 174.675 1.98991 175.838 0H164.02C164.485 1.19395 164.904 2.3879 165.323 3.58184C163.089 6.66621 160.297 10.5465 157.645 14.2279C156.203 9.75056 154.621 4.8753 153.085 0.0995168H140.336C139.126 1.79094 137.87 3.58183 136.66 5.27325C136.195 3.68132 135.683 1.89044 135.171 0.0995168H50.8578C51.7418 2.7859 52.6259 5.37275 53.6031 8.15863C52.2071 10.1485 50.9043 11.9395 49.5084 13.9294C48.5778 11.1435 47.7868 8.55667 46.8096 5.5718C47.8798 3.68139 48.9966 1.89041 50.1598 0ZM44.0178 49.6483C45.088 47.8574 45.8325 46.5639 46.7631 44.972C47.5541 47.2604 48.3451 49.4493 49.2292 51.9367C48.159 53.4291 47.1819 54.8221 46.1582 56.3145C45.4137 53.9266 44.8088 52.0362 44.0178 49.6483ZM63.9793 58.0059C65.3287 55.7175 66.585 53.6281 68.1205 51.0412C69.1907 53.9266 70.2144 56.7124 71.3312 59.6973C69.7491 61.8862 68.3067 63.9756 66.585 66.463C65.6079 63.2792 64.8169 60.6923 63.9793 58.0059ZM84.0339 64.6721C85.6625 62.0852 87.3376 59.3989 89.0592 56.7125C90.3621 60.4933 91.5719 63.9757 92.9678 68.055C91.2927 70.4429 89.5246 73.0298 87.4772 75.9151C86.3605 72.1343 85.2437 68.6519 84.0339 64.6721ZM104.368 72.5322C106.136 69.7464 108.09 66.662 110.184 63.3787C111.673 67.7565 113.115 72.0347 114.558 76.313C112.604 79.1984 110.51 82.2828 108.416 85.4667C107.16 81.3874 105.81 77.109 104.368 72.5322ZM40.1092 94.2223C41.1794 92.6303 42.11 91.1379 43.2268 89.4465C44.2039 92.0334 45.1345 94.4212 46.1117 97.0081C44.9949 98.799 44.0178 100.291 42.7149 102.381C41.8774 99.6945 41.0864 97.1076 40.1092 94.2223ZM60.35 101.585C61.5598 99.4955 62.723 97.4061 64.0724 95.0182C65.1891 98.2021 66.2593 101.286 67.5157 104.868C65.9802 106.858 64.7238 108.55 63.421 110.341C62.3973 107.455 61.4202 104.769 60.35 101.585ZM80.265 109.744C81.847 107.256 83.4291 104.769 85.2437 101.883C86.5001 105.465 87.8029 109.147 89.1523 112.828C87.3842 115.315 85.6625 117.803 83.7548 120.489C82.638 117.106 81.4748 113.425 80.265 109.744ZM106.415 108.649C107.811 112.629 109.253 116.808 110.835 121.285C108.788 124.27 106.741 127.255 104.693 130.24C103.437 126.16 102.088 121.882 100.738 117.405C102.46 114.718 104.368 111.733 106.415 108.649ZM15.8669 131.633C16.9371 129.842 17.8677 128.25 18.9844 126.459C19.7289 128.946 20.3803 131.036 21.0783 133.324C20.0081 134.916 19.0775 136.309 18.0073 137.901C17.3093 135.811 16.6579 133.921 15.8669 131.633ZM36.3868 139.194C37.6431 137.204 38.8064 135.314 40.0162 133.324C40.9468 136.01 41.8308 138.498 42.8545 141.483C41.5982 143.373 40.4349 145.164 38.9925 147.452C38.0154 144.368 37.2709 141.98 36.3868 139.194ZM56.7671 146.855C58.07 144.965 59.2798 143.174 60.6291 141.184C61.6528 143.97 62.63 146.557 63.7932 149.641C62.3973 151.631 61.0014 153.522 59.559 155.611C58.5818 152.626 57.6977 149.84 56.7671 146.855ZM76.496 154.716C78.1246 152.228 79.7066 149.741 81.5213 146.955C82.8707 150.835 84.0805 154.417 85.3833 158.098C83.5686 160.685 81.754 163.372 79.9393 165.959C78.776 162.078 77.6128 158.397 76.496 154.716ZM102.693 153.721C104.089 157.7 105.531 161.78 107.02 166.158C105.066 169.043 103.018 172.127 100.878 175.311C99.5286 171.033 98.2257 166.655 96.9229 162.476C98.7841 159.69 100.692 156.805 102.693 153.721ZM11.8653 176.406C13.075 174.515 13.9591 173.122 15.0759 171.431C15.9134 173.719 16.7044 175.908 17.635 178.495C16.5183 180.186 15.4946 181.679 14.3314 183.37C13.5404 181.181 12.8424 179.191 11.8653 176.406ZM32.5248 184.266C33.7811 182.176 34.9443 180.286 36.2937 178.197C37.2709 180.883 38.248 183.569 39.2717 186.554C37.8758 188.544 36.5729 190.434 35.0374 192.723C34.0603 189.539 33.3623 187.052 32.5248 184.266ZM52.8586 191.728C54.208 189.738 55.5108 187.947 56.8602 185.957C58.0234 189.141 59.1402 191.927 60.3965 195.31C58.8145 197.698 57.5581 199.688 56.0692 201.976C54.999 198.593 54.0218 195.31 52.8586 191.728ZM73.0063 199.389C74.4487 197.001 76.0307 194.414 77.7058 191.628C79.0087 195.31 80.3115 199.091 81.7074 203.17C80.1719 205.359 78.5434 207.747 76.7752 210.234C75.4724 206.453 74.2626 203.07 73.0063 199.389ZM98.8772 198.593C100.32 202.672 101.809 207.05 103.344 211.329C101.25 214.413 99.1098 217.597 97.0625 220.582C95.8062 216.502 94.4102 212.124 93.0143 207.548C94.829 204.762 96.7833 201.777 98.8772 198.593ZM7.91018 221.378C9.21303 219.388 10.2832 217.696 11.4465 215.905C12.3771 218.492 13.1681 220.781 14.0987 223.467C12.9355 225.258 11.8653 226.949 10.4228 229.138C9.63181 226.651 8.84079 224.163 7.91018 221.378ZM28.4301 229.138C29.7795 227.049 31.0358 225.059 32.4782 222.77C33.5484 225.755 34.5721 228.641 35.6888 231.725C34.2464 233.814 32.8505 235.804 31.2685 238.093C30.1983 234.71 29.3607 232.123 28.4301 229.138ZM48.9966 236.899C50.5321 234.511 52.0676 232.123 53.6961 229.536C55.0455 233.317 56.2088 236.6 57.372 239.983C55.7435 242.371 54.1149 244.759 52.2537 247.445C51.1835 243.963 50.1598 240.68 48.9966 236.899ZM69.2373 244.56C70.9589 242.172 72.6805 239.784 74.3091 237.396C75.612 240.978 76.8218 244.361 78.1711 248.042C76.496 250.43 74.7279 253.017 72.9132 255.504C71.7034 251.823 70.4936 248.241 69.2373 244.56ZM95.2012 243.068C96.6437 247.346 98.1792 251.823 99.7147 256.3C97.4812 259.584 95.3874 262.768 93.34 265.852C91.9906 261.574 90.5017 256.798 89.0592 252.221C91.0135 249.435 93.1074 246.251 95.2012 243.068ZM3.81549 266.449C5.11835 264.36 6.37467 262.27 7.72405 260.181C8.84078 263.464 9.72486 266.051 10.6555 268.837C9.30609 270.827 7.95671 272.717 6.51427 274.807C5.63019 271.921 4.79263 269.334 3.81549 266.449ZM24.382 274.011C25.8709 271.623 27.2203 269.533 28.7558 267.145C29.8725 270.23 30.9427 273.314 32.1991 276.896C30.5705 279.284 29.1281 281.373 27.453 283.861C26.4758 280.677 25.4522 277.493 24.382 274.011ZM44.9484 281.771C46.577 279.284 48.2521 276.797 49.9737 274.11C51.23 277.692 52.4863 281.274 53.8357 285.055C51.8814 287.94 50.1598 290.427 48.3917 293.014C47.2749 289.333 46.1582 285.652 44.9484 281.771ZM65.2822 289.532C66.9573 287.144 68.7254 284.657 70.5866 281.97C71.843 285.453 73.0993 289.035 74.3556 292.616C72.541 295.701 70.8658 298.387 69.1442 301.272C67.9344 297.591 66.6781 293.711 65.2822 289.532ZM86.1278 296.397C87.896 293.412 89.6642 290.427 91.4788 287.443C92.8747 291.82 94.2706 296.099 95.6665 300.477C93.8984 303.063 92.0372 305.75 90.0364 308.536C88.6405 304.257 87.4307 300.377 86.1278 296.397ZM112.743 293.611C114.465 298.387 116.326 303.561 117.955 308.237C115.535 311.62 112.883 315.401 110.277 319.082C109.021 314.704 107.578 309.531 106.229 304.755C108.462 300.874 110.789 296.994 112.743 293.611ZM20.1477 318.983C21.7762 316.495 23.4048 314.008 25.1264 311.321C26.1036 314.306 27.0807 317.391 28.244 320.774C26.5689 323.46 25.0799 325.848 23.4513 328.634C22.4277 325.649 21.3575 322.565 20.1477 318.983ZM41.3655 326.146C42.9476 323.559 44.4831 320.973 46.2978 318.087C47.5076 321.967 48.6243 325.35 49.7876 329.032C48.0194 331.917 46.2978 334.703 44.5762 337.489C43.506 333.807 42.4357 330.027 41.3655 326.146ZM61.8389 334.006C63.8398 330.723 65.701 327.639 67.6087 324.554C69.0046 328.534 70.4471 332.614 71.8895 336.693C69.7026 339.976 67.5622 343.16 65.4218 346.443C64.305 342.563 63.0953 338.384 61.8389 334.006ZM81.7074 340.573C83.6617 337.887 85.8021 334.802 87.9891 331.818C89.5246 335.996 91.2462 340.673 92.9213 345.249C90.8274 348.035 88.5474 350.921 86.2209 354.005C84.6854 349.428 83.1964 344.951 81.7074 340.573ZM108.881 337.29C110.742 342.563 112.79 348.433 114.558 353.309C112.045 356.791 109.253 360.771 106.555 364.452C105.112 359.676 103.391 354.005 101.669 348.334C103.902 344.851 106.508 340.872 108.881 337.29ZM16.5648 363.059C18.2399 360.373 19.8685 357.686 21.6367 354.801C22.893 358.283 24.1493 361.766 25.4056 365.348C23.4979 368.332 21.6366 371.317 19.7754 374.203C18.7052 370.621 17.635 366.84 16.5648 363.059ZM36.5729 369.825C38.4807 367.039 40.4349 364.154 42.5288 361.069C43.9247 365.049 45.4602 369.327 46.9492 373.506C44.8088 376.69 42.7149 379.874 40.6676 382.859C39.3647 378.779 38.0154 374.402 36.5729 369.825ZM57.1859 377.486C59.1867 374.501 61.4202 371.218 63.6071 367.934C65.1426 372.412 66.8177 377.188 68.4463 381.864C66.1197 385.346 63.8397 388.829 61.6528 392.112C60.2569 387.436 58.7214 382.461 57.1859 377.486ZM11.7257 406.837C13.5869 404.151 15.5877 401.166 17.7281 398.082C19.1705 402.26 20.5665 406.34 22.0554 410.519C20.1012 413.503 18.0538 416.687 15.8669 419.971C14.6106 415.792 13.1681 411.314 11.7257 406.837ZM32.4317 414.498C34.4325 411.513 36.6194 408.33 38.8064 405.046C40.3419 409.524 41.9239 414.2 43.506 418.876C41.4121 421.96 39.1321 425.443 36.8056 428.826C35.4097 424.149 33.9207 419.274 32.4317 414.498ZM52.9982 422.557C55.2316 419.274 57.7443 415.493 59.9777 412.21C61.6993 417.185 63.514 422.358 65.1891 427.134C62.8626 430.418 60.2104 434.198 57.7443 437.681C56.2088 432.607 54.5337 427.433 52.9982 422.557ZM81.056 418.777C82.9637 424.249 85.1507 430.318 86.8723 435.293C84.3597 438.875 81.3817 443.153 78.5899 447.133C77.1474 442.158 75.3328 435.989 73.6577 430.219C76.0307 426.537 78.776 422.259 81.056 418.777ZM7.53794 451.511C9.67834 448.327 11.8653 445.143 14.0057 441.959C15.6808 446.735 17.3093 451.511 18.7983 455.789C16.5183 459.172 14.2383 462.654 12.0514 466.037C10.6089 461.46 9.07345 456.485 7.53794 451.511ZM28.1974 459.47C30.3844 456.286 32.8039 452.705 35.1305 449.222C36.8521 454.197 38.7599 459.47 40.3419 464.047C37.9223 467.629 35.3166 471.31 32.897 474.793C31.4546 469.917 29.7795 464.545 28.1974 459.47ZM3.30366 496.284C5.58365 492.901 8.0963 489.219 10.3298 485.936C12.1444 491.11 14.0522 496.483 15.7273 501.059C13.3542 504.442 10.6555 508.323 8.14283 512.004C6.56079 506.731 4.88569 501.358 3.30366 496.284ZM24.0097 504.044C26.3362 500.562 29.0815 496.383 31.5011 492.801C33.3158 498.075 35.3631 504.044 37.1313 509.218C34.7117 512.7 31.6872 517.078 28.9885 521.058C27.4529 515.884 25.6848 509.815 24.0097 504.044ZM34.2929 555.285C30.524 556.379 26.9876 561.055 25.4987 569.214C23.5909 562.448 21.4971 554.986 19.7289 548.519C22.2416 544.837 25.3591 540.161 27.7787 536.579C29.7329 542.251 32.0595 549.016 34.2929 555.285ZM58.5818 517.178C55.9296 521.257 52.6259 526.232 49.9271 530.411C48.4382 525.137 46.3908 517.874 44.6692 511.705C47.2284 507.925 50.2529 503.348 52.6259 499.766C54.4406 505.338 56.7206 511.904 58.5818 517.178ZM83.8013 481.359C80.0789 482.354 76.5891 487.13 75.1001 494.791C73.2389 488.324 71.1916 481.16 69.4699 474.992C72.0291 471.012 74.9605 466.534 77.3801 462.754C79.2878 468.325 81.6144 474.992 83.8013 481.359ZM61.9785 472.206C59.5124 475.788 56.581 480.066 53.8822 483.946C52.3467 478.772 50.532 472.703 48.95 467.231C51.3231 463.649 53.9753 459.57 56.3018 455.988C58.1165 461.361 60.2104 467.33 61.9785 472.206ZM107.904 443.551C105.298 446.834 102.134 450.914 99.389 454.396C97.7139 449.521 95.7131 443.452 93.8054 437.78C96.1784 434.696 99.1098 430.915 101.576 427.632C103.623 432.806 105.95 438.676 107.904 443.551ZM135.636 406.34C133.356 407.733 130.844 408.131 128.936 410.717C126.656 413.802 124.934 418.876 123.166 422.557C123.213 413.404 120.84 405.643 117.35 401.663C120.467 396.888 123.724 391.913 126.749 387.237C127.726 396.092 129.68 405.245 135.636 406.34ZM111.208 398.778C108.974 401.564 105.996 405.146 103.158 408.628C101.529 403.852 99.5751 397.982 97.9 393.007C100.273 389.226 102.925 384.948 105.112 381.466C107.02 386.839 109.253 393.107 111.208 398.778ZM89.7107 390.52C87.5237 393.803 85.0576 397.485 82.5915 401.265C81.056 396.191 79.3809 390.818 77.7058 385.346C79.7066 382.56 82.0331 379.277 84.2201 376.193C86.0348 380.869 87.989 386.043 89.7107 390.52ZM136.055 361.567C133.403 365.447 130.053 370.322 127.4 374.203C125.772 368.73 123.771 361.865 122.003 355.896C124.469 352.214 127.493 347.637 130.053 343.757C131.867 349.229 134.147 355.896 136.055 361.567ZM163.648 324.952C158.622 327.141 153.69 329.629 151.922 342.663C151.643 331.718 149.456 323.559 145.687 319.679C148.804 315.102 152.061 310.128 155.319 305.252C155.877 314.306 158.576 321.868 163.648 324.952ZM139.731 316.495C137.265 319.878 134.054 324.256 131.076 328.335C129.68 323.46 127.866 317.192 126.144 311.222C128.564 307.342 131.309 303.063 133.682 299.382C135.636 304.854 137.87 311.322 139.731 316.495ZM165.462 280.776C161.321 281.075 157.785 286.547 156.11 294.706C154.481 288.239 152.713 281.274 151.224 275.205C153.504 271.225 156.296 266.349 158.622 262.27C160.623 267.643 163.089 274.309 165.462 280.776ZM142.383 271.921C140.15 275.404 137.497 279.483 135.031 283.264C133.635 278.289 132.053 272.717 130.611 267.444C132.844 263.763 135.264 259.683 137.544 256.002C139.079 260.977 140.801 266.747 142.383 271.921ZM120.793 263.564C118.606 267.046 116.326 270.528 114.046 274.11C112.604 269.732 111.022 264.857 109.486 260.28C111.813 256.698 114.186 253.117 116.419 249.734C117.862 254.211 119.351 258.987 120.793 263.564ZM167.51 235.008C165.09 238.988 162.205 243.764 159.599 247.943C157.924 242.67 155.83 236.103 154.155 230.73C156.808 226.651 159.879 221.875 162.484 217.895C163.88 222.87 165.788 229.238 167.51 235.008ZM146.897 228.044C144.477 231.427 141.546 235.406 138.847 239.088C137.311 234.113 135.59 228.442 133.915 222.969C136.195 219.388 138.847 215.209 141.173 211.527C142.988 216.801 145.128 222.969 146.897 228.044ZM125.074 219.686C122.84 222.87 120.421 226.253 117.955 229.735C116.559 225.357 114.977 220.184 113.441 215.209C115.535 211.925 117.815 208.443 120.049 204.961C121.77 209.936 123.492 215.01 125.074 219.686ZM172.256 191.23C169.557 195.011 166.207 199.787 163.461 203.667C161.786 198.195 159.739 191.33 158.017 185.758C160.53 181.878 163.554 177.301 166.021 173.52C167.975 179.092 170.394 185.858 172.256 191.23ZM150.526 183.072C148.153 186.256 145.361 190.036 142.523 193.817C141.127 189.34 139.405 183.669 137.73 178.097C140.15 174.316 142.662 170.237 144.942 166.655C146.71 171.928 148.758 177.898 150.526 183.072ZM128.703 174.714C126.423 177.998 124.05 181.48 121.817 184.763C120.421 180.186 118.839 175.212 117.35 170.237C119.49 166.953 121.724 163.372 123.864 160.088C125.446 164.964 127.121 169.938 128.703 174.714ZM176.164 146.258C173.605 149.741 170.162 154.318 167.184 158.297C165.648 153.223 163.601 146.457 161.879 140.687C164.392 136.806 167.416 132.031 169.743 128.449C171.837 134.219 174.303 141.085 176.164 146.258ZM154.248 138.199C151.922 141.284 149.083 145.164 146.385 148.746C144.896 143.97 143.174 138.398 141.546 133.125C143.919 129.245 146.524 125.066 148.665 121.584C150.433 126.857 152.387 132.727 154.248 138.199ZM132.426 129.543C130.146 132.926 127.819 136.309 125.539 139.592C124.143 135.115 122.608 130.14 121.072 125.165C123.073 122.081 125.26 118.798 127.586 115.116C129.075 119.693 130.751 124.568 132.426 129.543ZM179.421 101.485C176.909 105.067 173.698 109.744 170.999 113.624C169.278 107.953 167.23 101.386 165.416 95.4162C167.603 92.4314 170.441 88.6505 172.861 85.4667C175.001 90.541 177.421 96.5107 179.421 101.485ZM158.017 93.0283C155.598 96.3116 152.759 100.192 150.154 103.774C148.665 98.998 146.897 93.3268 145.268 88.0535C147.641 84.1732 150.247 79.9944 152.48 76.5121C154.295 81.8848 156.296 87.954 158.017 93.0283ZM136.241 84.5712C134.008 87.8545 131.635 91.3369 129.308 94.7198C127.912 90.2425 126.33 85.2677 124.795 80.2929C126.888 77.0095 129.122 73.5272 131.355 70.0449C132.984 74.9201 134.613 79.7954 136.241 84.5712ZM183.237 56.5135C180.817 59.2993 177.56 63.0802 174.489 66.5625C172.767 61.5877 170.674 55.618 168.905 50.6433C171.279 47.4594 174.163 43.6785 176.723 40.1962C178.816 45.4695 181.283 51.6382 183.237 56.5135ZM161.879 48.1559C159.506 51.3397 156.621 55.22 153.876 58.9013C152.294 53.9266 150.526 48.2553 148.851 42.9821C151.224 39.2012 153.923 34.9229 156.249 31.3411C158.017 36.7139 160.111 42.8826 161.879 48.1559ZM140.057 39.6988C137.823 42.8826 135.404 46.3649 133.031 49.8473C131.635 45.2705 130.053 40.1962 128.471 35.2214C130.704 31.6396 132.984 27.9583 135.078 24.5754C136.799 29.7492 138.475 34.8235 140.057 39.6988ZM118.513 31.4406C116.466 34.326 114.325 37.4103 112.138 40.4947C110.789 36.2164 109.393 31.8386 107.997 27.4608C109.858 24.5754 111.859 21.491 114 18.2077C115.395 22.3865 116.978 26.8638 118.513 31.4406ZM96.8764 22.9835C95.0151 25.6699 93.1074 28.3562 91.1996 31.0426C90.2225 27.7593 89.1988 24.4759 88.0821 20.6951C89.8037 17.7102 91.3392 15.1234 93.0143 12.3375C94.3172 15.9193 95.5735 19.4017 96.8764 22.9835ZM67.0504 13.4319C68.7255 10.845 70.1214 8.65614 71.7034 6.16875C72.6805 9.05412 73.6577 11.9395 74.7279 15.1234C73.2389 17.4118 71.7965 19.7997 70.1679 22.2871C69.0977 19.3022 68.1206 16.4167 67.0504 13.4319Z" fill="#CB6CE6" fill-opacity="0.42"/>
<path d="M82.4055 526.232C84.5459 529.117 87.012 531.406 88.7802 535.187C91.7116 541.554 91.8977 551.902 89.8503 559.662C87.7565 567.523 83.6153 571.801 79.4741 570.308C75.1467 568.816 72.0292 562.548 71.0986 553.394C70.8194 550.807 70.7264 548.121 70.5402 545.534L70.4472 545.733C72.4014 533.296 76.31 526.53 82.5916 526.331L82.4055 526.232Z" fill="#CB6CE6" fill-opacity="0.42"/>
<path d="M105.764 488.821C111.813 492.304 115.814 499.567 116.233 513.894L116.326 513.695C113.627 528.52 110.277 534.49 105.066 533.694C99.9475 532.898 96.0389 524.54 95.6201 513.596C95.2479 503.149 98.412 493.796 103.251 491.01C104.182 490.513 105.019 489.617 105.903 488.921C105.903 488.821 105.764 488.821 105.764 488.821Z" fill="#CB6CE6" fill-opacity="0.42"/>
<path d="M55.371 608.415C47.833 602.147 44.9947 593.59 46.2975 580.954C47.3677 570.607 51.8347 563.443 56.7669 564.14C61.7922 564.836 65.6542 572.796 66.2591 583.442C66.8174 593.889 63.7464 603.838 58.9538 606.624C57.744 607.321 56.4877 607.719 55.2779 608.216L55.371 608.415Z" fill="#CB6CE6" fill-opacity="0.42"/>
<path d="M193.939 244.361C188.634 244.361 184.214 234.312 184.307 222.472C184.4 210.632 188.821 201.279 194.404 201.279C200.127 201.279 204.548 211.03 204.455 223.268C204.315 235.406 199.848 244.361 193.939 244.361Z" fill="#CB6CE6" fill-opacity="0.42"/>
<path d="M191.007 244.759C196.172 244.66 200.546 254.41 200.639 265.952C200.685 277.891 196.405 287.443 190.821 287.642C185.237 287.841 180.724 278.687 180.584 266.748C180.445 254.112 184.819 244.859 191.007 244.759Z" fill="#CB6CE6" fill-opacity="0.42"/>
<path d="M198.592 42.9818C198.592 31.0423 202.966 21.6897 208.55 21.5902C214.273 21.4907 218.786 31.1419 218.647 43.4793C218.554 55.4188 214.087 64.5724 208.503 64.4729C202.92 64.3734 198.592 54.9213 198.592 42.9818Z" fill="#CB6CE6" fill-opacity="0.42"/>
<path d="M41.4124 622.842C41.4124 634.781 37.0385 644.134 31.4549 644.233C25.7316 644.333 21.2647 634.582 21.3578 622.344C21.4508 610.405 25.9178 601.251 31.5479 601.351C37.1316 601.45 41.4589 610.803 41.4124 622.842Z" fill="#CB6CE6" fill-opacity="0.42"/>
<path d="M158.482 414.598C152.945 414.797 148.432 405.643 148.246 393.803C148.06 381.665 152.48 371.715 158.157 371.516C163.88 371.317 168.393 380.869 168.393 393.107C168.347 405.046 164.02 414.399 158.482 414.598Z" fill="#CB6CE6" fill-opacity="0.42"/>
<path d="M129.68 496.483C124.004 496.383 119.537 486.533 119.676 474.395C119.816 462.555 124.283 453.302 129.82 453.401C135.497 453.501 139.963 463.351 139.824 475.489C139.684 487.429 135.217 496.582 129.68 496.483Z" fill="#CB6CE6" fill-opacity="0.42"/>
<path d="M205.013 109.544C199.476 109.743 194.963 100.59 194.823 88.7497C194.637 76.6113 199.057 66.6618 204.734 66.5623C210.457 66.3633 214.971 76.0143 214.924 88.1528C214.924 99.8933 210.55 109.345 205.013 109.544Z" fill="#CB6CE6" fill-opacity="0.42"/>
<path d="M186.68 332.514C181.097 332.315 176.816 322.963 176.909 310.824C177.002 298.885 181.376 289.731 187.053 289.93C192.636 290.129 196.917 299.482 196.824 311.62C196.731 323.46 192.311 332.614 186.68 332.514Z" fill="#CB6CE6" fill-opacity="0.42"/>
<path d="M144.663 438.178C144.617 426.139 148.944 416.787 154.574 416.787C160.204 416.787 164.532 426.04 164.485 438.178C164.439 449.919 160.251 458.973 154.76 459.172C149.084 459.371 144.71 450.217 144.663 438.178Z" fill="#CB6CE6" fill-opacity="0.42"/>
<path d="M222.229 0H202.547C203.012 11.1435 207.2 19.4016 212.551 19.2026C217.763 19.1031 221.764 10.9445 222.229 0Z" fill="#CB6CE6" fill-opacity="0.42"/>
<path d="M116.233 513.795C118.234 505.238 121.025 498.871 125.911 498.871C131.402 498.871 135.729 507.726 135.822 519.267C135.962 531.008 131.867 540.46 126.516 540.957C120.979 541.455 116.558 533.197 116.186 521.556C116.093 518.969 116.279 516.282 116.279 513.596C116.326 513.596 116.233 513.795 116.233 513.795Z" fill="#CB6CE6" fill-opacity="0.42"/>
<path d="M92.0838 556.976C92.0838 544.937 96.3645 535.684 101.995 535.784C107.625 535.784 111.906 545.136 111.813 557.175C111.766 568.816 107.532 577.87 102.088 577.97C96.5042 578.069 92.1303 569.015 92.0838 556.976Z" fill="#CB6CE6" fill-opacity="0.42"/>
<path d="M55.2781 608.216C59.2797 612.495 62.2577 618.464 62.2577 628.911C62.2577 640.652 58.1165 649.905 52.719 650.104C47.2284 650.402 42.808 641.647 42.5753 630.105C42.3427 618.265 46.2047 608.813 51.6488 608.017C52.8586 607.818 54.1149 608.216 55.3712 608.216C55.3712 608.415 55.2781 608.216 55.2781 608.216Z" fill="#CB6CE6" fill-opacity="0.42"/>
<path d="M183.004 377.188C177.374 377.088 173.093 367.736 173.232 355.597C173.325 343.956 177.653 335.001 183.143 335.101C188.773 335.2 193.054 344.652 192.915 356.691C192.822 368.332 188.541 377.287 183.004 377.188Z" fill="#CB6CE6" fill-opacity="0.42"/>
<path d="M87.0589 594.088C87.0124 606.027 82.592 615.082 76.9153 614.883C71.3316 614.684 67.1439 605.132 67.2835 592.994C67.423 581.353 71.7504 572.597 77.241 572.597C82.8711 572.696 87.1519 582.049 87.0589 594.088Z" fill="#CB6CE6" fill-opacity="0.42"/>
<path d="M169.557 400.669C169.65 389.127 174.024 380.073 179.422 380.172C184.959 380.272 189.286 390.023 189.1 401.862C188.914 413.304 184.447 422.259 179.049 421.961C173.652 421.762 169.464 412.31 169.557 400.669Z" fill="#CB6CE6" fill-opacity="0.42"/>
<path d="M212.364 140.886C212.364 129.344 216.692 120.091 222.089 120.091C227.626 119.991 232.047 129.543 231.907 141.482C231.814 153.024 227.394 162.078 221.996 161.879C216.599 161.78 212.364 152.427 212.364 140.886Z" fill="#CB6CE6" fill-opacity="0.42"/>
<path d="M225.998 116.907C220.6 117.007 216.18 107.853 216.133 96.3115C216.087 84.77 220.368 75.318 225.765 75.2185C231.163 75.119 235.583 84.2725 235.63 95.814C235.723 107.356 231.442 116.708 225.998 116.907Z" fill="#CB6CE6" fill-opacity="0.42"/>
<path d="M220.647 274.309C220.647 285.751 216.227 295.104 210.876 295.104C205.525 295.104 201.198 285.751 201.151 274.11C201.105 262.767 205.571 253.315 210.922 253.315C216.273 253.415 220.647 262.867 220.647 274.309Z" fill="#CB6CE6" fill-opacity="0.42"/>
<path d="M204.827 228.242C204.78 217.795 209.386 208.443 214.644 208.443C220.042 208.443 224.416 217.596 224.462 229.138C224.509 240.679 220.275 250.032 214.877 250.231C209.107 250.33 204.827 240.978 204.827 228.242Z" fill="#CB6CE6" fill-opacity="0.42"/>
<path d="M17.8675 666.421C17.7744 654.482 22.1017 645.129 27.7319 645.129C33.0364 645.03 37.4102 654.482 37.4102 666.023C37.4102 677.565 33.1294 686.818 27.7319 686.917C22.3344 687.116 17.9605 677.963 17.8675 666.421Z" fill="#CB6CE6" fill-opacity="0.42"/>
<path d="M208.596 185.858C208.642 174.316 212.923 165.063 218.321 165.063C223.858 165.063 228.278 174.615 228.139 186.455C228.045 197.996 223.625 207.05 218.228 206.851C212.83 206.652 208.596 197.399 208.596 185.858Z" fill="#CB6CE6" fill-opacity="0.42"/>
<path d="M141.033 483.051C141.033 471.509 145.268 462.157 150.665 462.057C156.202 461.958 160.669 471.41 160.576 483.25C160.483 494.791 156.156 503.945 150.758 503.845C145.361 503.845 141.033 494.592 141.033 483.051Z" fill="#CB6CE6" fill-opacity="0.42"/>
<path d="M73.379 657.964C68.0745 657.864 63.6541 648.213 63.7472 636.87C63.8402 625.528 68.4002 616.176 73.7047 616.474C78.8696 616.772 83.1504 626.125 83.1504 637.169C83.1504 648.512 78.6834 658.063 73.379 657.964Z" fill="#CB6CE6" fill-opacity="0.42"/>
<path d="M121.723 584.038C116.372 583.342 112.231 573.293 112.557 561.95C112.883 550.707 117.722 541.653 122.98 542.549C128.191 543.444 132.239 553.195 131.96 564.239C131.681 575.581 127.028 584.735 121.723 584.038Z" fill="#CB6CE6" fill-opacity="0.42"/>
<path d="M239.399 51.6381C239.213 63.0801 234.607 72.2337 229.256 71.8357C223.905 71.3382 219.624 61.3887 219.95 49.9467C220.229 38.8032 224.696 29.948 229.861 30.147C235.212 30.4455 239.539 40.1961 239.399 51.6381Z" fill="#CB6CE6" fill-opacity="0.42"/>
<path d="M98.1791 621.051C92.8281 621.051 88.4077 611.4 88.5007 599.958C88.5938 588.516 93.1073 579.163 98.4583 579.462C103.67 579.661 107.95 589.013 107.95 600.157C107.997 611.599 103.577 621.051 98.1791 621.051Z" fill="#CB6CE6" fill-opacity="0.42"/>
<path d="M146.85 548.618C141.686 548.419 137.312 538.768 137.358 527.824C137.405 516.481 142.151 506.83 147.362 507.427C152.527 507.925 156.808 517.675 156.622 528.62C156.529 539.564 151.969 548.817 146.85 548.618Z" fill="#CB6CE6" fill-opacity="0.42"/>
<path d="M243.075 6.66627C243.122 4.37788 242.889 2.18902 242.61 0.0996094H224.184C223.904 1.89053 223.718 3.68148 223.718 5.57189C223.579 16.9144 227.999 26.7644 233.35 26.8639C238.515 26.8639 242.935 17.7103 243.075 6.66627Z" fill="#CB6CE6" fill-opacity="0.42"/>
<path d="M0 722.138C1.11673 723.133 2.32652 723.73 3.58285 723.73C8.74772 723.73 13.1681 714.477 13.2612 703.433C13.3542 692.091 8.88731 682.34 3.58285 682.34C2.32652 682.34 1.11673 682.937 0 683.932V722.138Z" fill="#CB6CE6" fill-opacity="0.42"/>
<path d="M48.7174 694.678C43.599 694.777 39.1321 685.425 38.9925 674.381C38.8995 663.138 43.506 653.288 48.7639 653.387C53.9288 653.586 58.3026 663.138 58.3026 674.082C58.3026 685.126 53.8823 694.678 48.7174 694.678Z" fill="#CB6CE6" fill-opacity="0.42"/>
<path d="M194.497 364.153C194.497 353.209 198.918 343.757 204.036 343.558C209.294 343.458 213.901 353.308 213.761 364.551C213.621 375.496 209.154 384.849 204.036 384.749C198.871 384.65 194.497 375.098 194.497 364.153Z" fill="#CB6CE6" fill-opacity="0.42"/>
<path d="M175.187 466.734C169.836 466.236 165.555 456.088 165.881 444.745C166.253 433.602 170.813 424.747 175.932 425.244C181.283 425.742 185.563 435.89 185.238 447.233C184.912 458.376 180.306 467.231 175.187 466.734Z" fill="#CB6CE6" fill-opacity="0.42"/>
<path d="M198.173 318.087C198.499 306.645 203.338 297.591 208.549 298.486C213.761 299.382 217.856 309.331 217.53 320.276C217.204 331.718 212.365 340.772 207.154 339.877C201.942 338.981 197.894 329.032 198.173 318.087Z" fill="#CB6CE6" fill-opacity="0.42"/>
<path d="M14.3781 710.796C14.4712 699.752 18.9846 690.4 24.103 690.698C29.3144 690.997 33.6417 700.747 33.4091 711.692C33.2229 722.537 28.8956 731.392 23.8703 731.392C18.7055 731.392 14.2851 721.84 14.3781 710.796Z" fill="#CB6CE6" fill-opacity="0.42"/>
<path d="M171.93 511.407C166.765 511.606 162.298 502.154 162.298 491.11C162.298 480.066 166.718 470.614 171.883 470.713C176.908 470.813 181.189 479.867 181.329 490.612C181.468 501.557 177.141 511.208 171.93 511.407Z" fill="#CB6CE6" fill-opacity="0.42"/>
<path d="M243.354 169.142C238.143 169.341 233.723 160.088 233.769 148.945C233.769 138.1 237.91 129.046 243.029 128.847C248.24 128.648 252.661 137.901 252.614 149.044C252.567 159.889 248.426 168.943 243.354 169.142Z" fill="#CB6CE6" fill-opacity="0.42"/>
<path d="M93.8986 665.326C88.5941 664.531 84.639 654.78 85.0578 643.637C85.5231 632.692 89.9435 624.434 95.0153 625.13C100.32 625.926 104.275 635.677 103.856 646.82C103.391 657.765 98.9704 666.023 93.8986 665.326Z" fill="#CB6CE6" fill-opacity="0.42"/>
<path d="M190.914 409.523C190.775 398.38 195.102 388.928 200.36 388.928C205.432 388.928 209.666 397.783 209.806 408.727C209.945 419.871 205.618 429.323 200.36 429.323C195.288 429.323 191.054 420.468 190.914 409.523Z" fill="#CB6CE6" fill-opacity="0.42"/>
<path d="M118.746 628.315C113.441 627.618 109.439 617.768 109.905 606.724C110.323 595.779 114.744 587.422 119.816 588.118C125.12 588.815 129.122 598.665 128.656 609.709C128.191 620.753 123.771 629.011 118.746 628.315Z" fill="#CB6CE6" fill-opacity="0.42"/>
<path d="M246.891 124.071C241.726 123.971 237.585 115.116 237.585 104.072C237.538 92.7297 241.912 83.6757 247.217 83.9742C252.381 84.2726 256.43 93.3268 256.337 104.371C256.197 115.315 252.009 124.17 246.891 124.071Z" fill="#CB6CE6" fill-opacity="0.42"/>
<path d="M238.841 212.423C233.536 211.627 229.581 201.876 230 190.733C230.465 179.689 234.886 171.53 239.957 172.227C245.262 173.023 249.217 182.773 248.798 193.917C248.333 204.961 243.913 213.219 238.841 212.423Z" fill="#CB6CE6" fill-opacity="0.42"/>
<path d="M133.915 571.204C133.962 560.16 138.103 551.305 143.221 551.305C148.526 551.205 152.76 560.558 152.62 571.9C152.481 582.944 148.246 591.6 143.082 591.401C138.01 591.202 133.868 582.248 133.915 571.204Z" fill="#CB6CE6" fill-opacity="0.42"/>
<path d="M226.231 236.202C226.557 224.86 231.163 216.303 236.375 217.298C241.493 218.193 245.402 227.646 245.076 238.491C244.75 249.833 240.144 258.39 234.932 257.395C229.814 256.4 225.905 246.948 226.231 236.202Z" fill="#CB6CE6" fill-opacity="0.42"/>
<path d="M168.207 554.091C162.949 554.19 158.901 545.733 158.854 534.49C158.854 523.247 162.856 514.69 168.114 514.69C173.232 514.79 177.141 522.949 177.234 533.893C177.374 545.236 173.465 553.892 168.207 554.091Z" fill="#CB6CE6" fill-opacity="0.42"/>
<path d="M0 767.608C5.07182 767.409 8.98038 759.25 9.07344 748.306C9.1665 737.063 5.21141 728.407 0 728.208V767.608Z" fill="#CB6CE6" fill-opacity="0.42"/>
<path d="M35.6885 718.358C35.8281 707.214 40.0159 698.956 45.2738 699.354C50.4852 699.752 54.3007 708.707 54.0681 720.049C53.8354 730.894 49.7873 738.854 44.6689 738.655C39.4575 738.456 35.549 729.7 35.6885 718.358Z" fill="#CB6CE6" fill-opacity="0.42"/>
<path d="M69.8426 702.041C64.6777 702.24 60.4899 693.683 60.3969 682.639C60.2573 671.297 64.445 662.143 69.7495 662.242C74.9144 662.342 79.0091 670.998 79.0091 682.042C79.0091 693.086 75.0074 701.842 69.8426 702.041Z" fill="#CB6CE6" fill-opacity="0.42"/>
<path d="M250.519 78.9003C245.308 78.7013 241.353 69.8462 241.399 58.7027C241.492 47.5592 245.634 39.1021 250.845 39.2016C256.057 39.4006 260.012 48.2557 259.965 59.3992C259.872 70.5427 255.731 79.0993 250.519 78.9003Z" fill="#CB6CE6" fill-opacity="0.42"/>
<path d="M222.602 282.567C222.555 271.523 226.557 262.668 231.721 262.37C237.026 262.171 241.307 271.026 241.26 282.468C241.214 293.512 237.166 302.168 231.954 302.267C226.743 302.168 222.648 293.611 222.602 282.567Z" fill="#CB6CE6" fill-opacity="0.42"/>
<path d="M228.279 307.54C233.537 307.739 237.445 316.396 237.306 327.738C237.213 338.881 233.071 347.239 227.767 346.841C222.695 346.543 218.88 337.986 218.926 327.042C218.973 315.898 223.021 307.441 228.279 307.54Z" fill="#CB6CE6" fill-opacity="0.42"/>
<path d="M196.73 473.798C191.472 473.897 187.424 465.44 187.378 454.197C187.378 442.954 191.379 434.397 196.637 434.397C201.755 434.497 205.664 442.656 205.757 453.6C205.897 464.943 201.988 473.599 196.73 473.798Z" fill="#CB6CE6" fill-opacity="0.42"/>
<path d="M124.562 652.989C124.608 663.834 120.7 672.391 115.674 672.59C110.463 672.789 106.368 664.133 106.415 652.989C106.461 642.244 110.416 633.786 115.488 633.786C120.56 633.786 124.515 642.244 124.562 652.989Z" fill="#CB6CE6" fill-opacity="0.42"/>
<path d="M139.498 635.677C134.426 635.677 130.471 627.22 130.425 616.474C130.378 605.331 134.473 596.675 139.684 596.874C144.71 597.073 148.618 605.629 148.572 616.474C148.572 627.319 144.57 635.677 139.498 635.677Z" fill="#CB6CE6" fill-opacity="0.42"/>
<path d="M183.796 498.871C183.842 488.125 187.844 479.768 192.869 479.768C198.034 479.768 202.036 488.623 201.896 499.766C201.756 510.412 197.662 518.67 192.636 518.471C187.658 518.173 183.749 509.616 183.796 498.871Z" fill="#CB6CE6" fill-opacity="0.42"/>
<path d="M20.1939 775.369C15.1686 775.369 11.167 767.011 11.0739 756.365C11.0274 745.321 15.0756 736.565 20.2404 736.665C25.2657 736.764 29.1743 745.321 29.1743 756.066C29.1743 766.812 25.1726 775.269 20.1939 775.369Z" fill="#CB6CE6" fill-opacity="0.42"/>
<path d="M263.595 13.6309C263.548 8.25816 262.525 3.48234 260.943 0H247.961C246.285 3.48234 245.262 8.4571 245.262 14.1283C245.262 25.3713 249.31 33.729 254.568 33.6295C259.779 33.53 263.688 24.8739 263.595 13.6309Z" fill="#CB6CE6" fill-opacity="0.42"/>
<path d="M234.234 372.213C234.234 383.356 230.186 391.813 224.928 391.614C219.903 391.415 216.041 382.958 216.041 372.113C216.041 360.97 220.089 352.512 225.347 352.711C230.372 352.91 234.234 361.368 234.234 372.213Z" fill="#CB6CE6" fill-opacity="0.42"/>
<path d="M99.7612 689.802C99.8542 700.548 95.9457 709.204 90.9669 709.502C85.802 709.801 81.6608 701.145 81.6608 690.101C81.6608 679.355 85.6159 670.898 90.6412 670.799C95.6665 670.699 99.7146 679.156 99.7612 689.802Z" fill="#CB6CE6" fill-opacity="0.42"/>
<path d="M56.9066 727.312C56.8601 716.666 60.8617 707.91 65.7939 707.811C70.7727 707.711 74.8674 716.268 74.9139 726.815C74.9604 737.461 70.9588 746.216 66.0266 746.316C61.0479 746.515 56.9997 737.958 56.9066 727.312Z" fill="#CB6CE6" fill-opacity="0.42"/>
<path d="M230.419 417.185C230.419 427.831 226.371 436.387 221.392 436.387C216.413 436.387 212.411 427.731 212.411 417.085C212.411 406.439 216.46 397.882 221.438 397.882C226.371 397.882 230.419 406.539 230.419 417.185Z" fill="#CB6CE6" fill-opacity="0.42"/>
<path d="M173.326 579.462C173.279 590.108 169.231 598.665 164.252 598.565C159.274 598.466 155.272 589.809 155.318 579.163C155.365 568.517 159.413 559.961 164.392 560.06C169.371 560.16 173.372 568.816 173.326 579.462Z" fill="#CB6CE6" fill-opacity="0.42"/>
<path d="M268.108 92.8294C273.04 93.0284 277.089 102.082 276.902 112.53C276.763 123.076 272.482 131.633 267.596 131.135C262.804 130.737 258.942 121.982 258.988 111.833C258.988 101.386 263.176 92.6304 268.108 92.8294Z" fill="#CB6CE6" fill-opacity="0.42"/>
<path d="M262.758 67.2591C262.711 56.8121 266.946 47.8574 271.831 47.9569C276.577 48.1559 280.626 56.8121 280.672 66.9606C280.719 77.4076 276.484 86.3622 271.599 86.2627C266.853 86.0637 262.804 77.4076 262.758 67.2591Z" fill="#CB6CE6" fill-opacity="0.42"/>
<path d="M244.006 290.328C244.006 279.881 248.24 270.926 253.079 271.125C257.825 271.324 261.827 279.98 261.873 290.129C261.873 300.576 257.639 309.531 252.8 309.332C248.007 309.232 244.006 300.476 244.006 290.328Z" fill="#CB6CE6" fill-opacity="0.42"/>
<path d="M265.642 245.655C265.549 256.201 261.315 264.857 256.429 264.559C251.497 264.26 247.495 255.107 247.681 244.66C247.867 234.412 251.962 226.154 256.708 226.154C261.64 226.154 265.735 235.108 265.642 245.655Z" fill="#CB6CE6" fill-opacity="0.42"/>
<path d="M269.457 200.284C269.457 210.831 265.363 219.686 260.384 219.586C255.405 219.487 251.357 210.632 251.45 199.986C251.543 189.738 255.498 181.181 260.291 181.082C265.27 180.982 269.411 189.638 269.457 200.284Z" fill="#CB6CE6" fill-opacity="0.42"/>
<path d="M264.06 176.306C259.081 176.207 255.08 167.252 255.173 156.606C255.266 146.06 259.547 137.404 264.479 137.802C269.271 138.1 273.18 146.856 273.18 157.104C273.18 167.65 269.039 176.406 264.06 176.306Z" fill="#CB6CE6" fill-opacity="0.42"/>
<path d="M189.147 561.453C184.4 561.552 180.259 552.896 180.166 542.748C180.073 532.301 184.307 523.147 189.193 523.346C193.939 523.545 197.987 532.301 197.987 542.449C197.987 552.598 193.939 561.354 189.147 561.453Z" fill="#CB6CE6" fill-opacity="0.42"/>
<path d="M258.058 335.499C258.011 345.747 253.824 354.403 249.078 354.303C244.285 354.204 240.237 345.249 240.283 335.101C240.33 324.853 244.518 316.197 249.264 316.296C254.056 316.396 258.105 325.251 258.058 335.499Z" fill="#CB6CE6" fill-opacity="0.42"/>
<path d="M32.2453 764.325C32.1522 754.176 36.1538 745.321 40.9 744.923C45.7856 744.625 50.0665 753.579 50.0665 764.026C50.0199 774.175 45.9718 782.93 41.2257 783.03C36.433 783.129 32.3384 774.473 32.2453 764.325Z" fill="#CB6CE6" fill-opacity="0.42"/>
<path d="M0 809.794C2.79183 806.71 4.88569 800.541 4.97875 793.477C5.11835 786.015 2.97795 779.249 0 775.966V809.794Z" fill="#CB6CE6" fill-opacity="0.42"/>
<path d="M208.736 462.157C208.736 452.008 212.784 443.252 217.53 443.053C222.416 442.954 226.65 452.008 226.557 462.455C226.464 472.604 222.323 481.26 217.577 481.16C212.784 481.061 208.736 472.305 208.736 462.157Z" fill="#CB6CE6" fill-opacity="0.42"/>
<path d="M266.62 22.2872C266.573 12.1387 270.621 3.28351 275.367 3.18402C280.113 3.08452 284.255 11.7407 284.301 21.8892C284.348 32.0378 280.299 40.8928 275.553 40.9923C270.807 41.1913 266.666 32.5353 266.62 22.2872Z" fill="#CB6CE6" fill-opacity="0.42"/>
<path d="M254.15 380.272C254.15 390.619 250.008 399.176 245.216 398.878C240.516 398.579 236.701 390.122 236.701 380.172C236.701 369.825 240.842 361.268 245.634 361.567C250.334 361.865 254.15 370.322 254.15 380.272Z" fill="#CB6CE6" fill-opacity="0.42"/>
<path d="M86.9651 753.878C82.219 753.878 78.1243 745.122 78.1709 734.974C78.2174 724.825 82.3586 716.07 87.1047 716.368C91.7578 716.567 95.6663 725.024 95.7128 734.874C95.8059 745.023 91.7578 753.878 86.9651 753.878Z" fill="#CB6CE6" fill-opacity="0.42"/>
<path d="M136.38 680.052C131.588 679.853 127.54 670.898 127.679 660.75C127.819 650.502 132.099 641.945 136.799 642.343C141.452 642.741 145.314 651.397 145.314 661.247C145.314 671.495 141.173 680.251 136.38 680.052Z" fill="#CB6CE6" fill-opacity="0.42"/>
<path d="M102.926 698.459C102.833 688.31 106.927 679.355 111.72 679.355C116.513 679.355 120.607 688.111 120.561 698.359C120.514 708.309 116.606 716.766 111.953 717.064C107.206 717.363 103.019 708.607 102.926 698.459Z" fill="#CB6CE6" fill-opacity="0.42"/>
<path d="M151.782 624.135C151.829 613.987 156.016 605.331 160.716 605.53C165.508 605.828 169.51 614.783 169.324 624.832C169.138 634.781 165.183 643.04 160.576 643.04C155.784 643.139 151.735 634.284 151.782 624.135Z" fill="#CB6CE6" fill-opacity="0.42"/>
<path d="M25.8248 801.237C25.7318 811.585 21.6371 819.943 16.7979 819.445C12.0984 819.047 8.37592 810.59 8.42245 800.541C8.51551 790.194 12.6102 781.836 17.4493 782.333C22.1489 782.831 25.8713 791.288 25.8248 801.237Z" fill="#CB6CE6" fill-opacity="0.42"/>
<path d="M205.199 505.338C205.246 494.99 209.294 486.533 214.133 486.931C218.832 487.23 222.601 495.587 222.555 505.636C222.508 515.984 218.46 524.441 213.621 524.043C208.921 523.744 205.152 515.387 205.199 505.338Z" fill="#CB6CE6" fill-opacity="0.42"/>
<path d="M62.1181 790.393C57.3255 790.293 53.6031 782.234 53.6031 771.986C53.6496 761.738 57.4186 753.778 62.2112 753.778C67.0039 753.878 70.7263 761.937 70.7263 772.185C70.6798 782.433 66.9108 790.393 62.1181 790.393Z" fill="#CB6CE6" fill-opacity="0.42"/>
<path d="M241.586 443.352C236.793 443.253 233.117 435.293 233.164 424.946C233.21 414.697 236.933 406.837 241.772 406.937C246.564 407.036 250.24 414.996 250.194 425.344C250.147 435.592 246.425 443.452 241.586 443.352Z" fill="#CB6CE6" fill-opacity="0.42"/>
<path d="M185.284 605.629C180.492 605.53 176.769 597.471 176.816 587.123C176.862 576.875 180.631 568.915 185.471 569.015C190.263 569.114 193.986 577.174 193.939 587.521C193.846 597.869 190.077 605.729 185.284 605.629Z" fill="#CB6CE6" fill-opacity="0.42"/>
<path d="M261.92 343.16C261.967 333.31 265.643 325.549 270.249 325.549C274.856 325.649 278.485 333.509 278.485 343.359C278.438 353.209 274.762 360.97 270.156 360.97C265.549 360.97 261.874 353.01 261.92 343.16Z" fill="#CB6CE6" fill-opacity="0.42"/>
<path d="M210.271 568.319C205.571 568.418 201.896 560.956 201.756 551.006C201.663 540.659 205.339 532.6 210.131 532.6C214.785 532.6 218.414 540.36 218.46 550.31C218.507 560.359 214.924 568.12 210.271 568.319Z" fill="#CB6CE6" fill-opacity="0.42"/>
<path d="M292.862 92.9289C288.209 93.0284 284.533 85.4667 284.394 75.6166C284.301 65.3686 287.977 57.3095 292.769 57.3095C297.422 57.409 301.005 65.0701 301.052 75.0197C301.052 84.9692 297.469 92.8294 292.862 92.9289Z" fill="#CB6CE6" fill-opacity="0.42"/>
<path d="M274.111 316.197C269.411 316.296 265.735 308.834 265.596 298.885C265.503 288.537 269.179 280.478 273.971 280.478C278.624 280.478 282.254 288.239 282.3 298.188C282.347 308.237 278.764 315.998 274.111 316.197Z" fill="#CB6CE6" fill-opacity="0.42"/>
<path d="M238.561 487.926C233.908 487.827 230.326 480.066 230.326 470.117C230.326 459.868 234.141 452.008 238.934 452.307C243.54 452.605 247.076 460.565 246.983 470.515C246.89 480.464 243.214 488.026 238.561 487.926Z" fill="#CB6CE6" fill-opacity="0.42"/>
<path d="M285.185 181.381C280.346 181.381 276.716 173.321 276.81 162.874C276.903 152.925 280.578 145.363 285.278 145.363C290.117 145.363 293.747 153.422 293.654 163.869C293.514 173.918 289.885 181.48 285.185 181.381Z" fill="#CB6CE6" fill-opacity="0.42"/>
<path d="M289.885 208.742C289.838 219.089 286.022 226.75 281.137 226.352C276.484 226.054 272.994 218.094 273.087 208.045C273.134 197.797 276.949 190.037 281.835 190.435C286.441 190.733 289.931 198.693 289.885 208.742Z" fill="#CB6CE6" fill-opacity="0.42"/>
<path d="M181.468 650.004C176.862 649.904 173.279 641.845 173.326 631.995C173.372 622.145 177.141 614.484 181.748 614.584C186.354 614.683 189.937 622.742 189.89 632.592C189.797 642.442 186.075 650.203 181.468 650.004Z" fill="#CB6CE6" fill-opacity="0.42"/>
<path d="M141.127 706.418C141.08 716.368 137.451 724.029 132.751 724.029C127.912 724.029 124.283 715.871 124.422 705.523C124.562 695.573 128.284 688.111 132.984 688.31C137.637 688.509 141.173 696.369 141.127 706.418Z" fill="#CB6CE6" fill-opacity="0.42"/>
<path d="M148.478 669.008C148.525 659.059 152.154 651.397 156.854 651.397C161.646 651.397 165.322 659.556 165.183 669.904C165.043 679.853 161.321 687.315 156.621 687.116C151.922 686.917 148.385 679.057 148.478 669.008Z" fill="#CB6CE6" fill-opacity="0.42"/>
<path d="M297.33 120.389C297.283 130.637 293.468 138.299 288.629 138C284.022 137.702 280.532 129.841 280.579 119.792C280.625 109.544 284.441 101.883 289.28 102.182C293.933 102.48 297.423 110.34 297.33 120.389Z" fill="#CB6CE6" fill-opacity="0.42"/>
<path d="M37.5037 826.908C32.6645 827.007 28.9886 819.246 28.9886 808.899C29.0352 798.949 32.5715 791.288 37.2245 791.089C42.0637 790.99 45.7396 798.75 45.693 809.098C45.7396 819.047 42.1567 826.808 37.5037 826.908Z" fill="#CB6CE6" fill-opacity="0.42"/>
<path d="M91.4787 779.846C91.5252 789.696 87.8958 797.656 83.2893 797.755C78.6828 797.855 74.9604 790.094 74.9138 780.244C74.8673 770.394 78.4967 762.434 83.1032 762.335C87.7097 762.235 91.4322 769.996 91.4787 779.846Z" fill="#CB6CE6" fill-opacity="0.42"/>
<path d="M107.95 760.942C103.297 760.942 99.6679 753.181 99.6214 743.231C99.5748 732.884 103.344 725.024 108.183 725.223C112.836 725.422 116.372 733.282 116.326 743.331C116.279 753.38 112.65 761.041 107.95 760.942Z" fill="#CB6CE6" fill-opacity="0.42"/>
<path d="M269.318 252.719C269.457 242.471 273.319 234.909 278.205 235.407C282.812 235.904 286.255 243.963 286.115 254.012C285.976 264.26 282.114 271.822 277.228 271.324C272.575 270.827 269.178 262.768 269.318 252.719Z" fill="#CB6CE6" fill-opacity="0.42"/>
<path d="M296.491 47.8574C291.885 47.8574 288.162 39.7982 288.255 29.9481C288.302 20.0981 292.117 12.2379 296.724 12.5364C301.191 12.7354 304.727 20.4961 304.774 30.0477C304.774 39.7982 301.098 47.8574 296.491 47.8574Z" fill="#CB6CE6" fill-opacity="0.42"/>
<path d="M266.34 405.842C261.78 405.743 258.058 397.385 258.244 387.635C258.43 378.183 262.152 370.521 266.573 370.72C271.133 370.82 274.855 379.277 274.669 388.928C274.483 398.281 270.76 405.942 266.34 405.842Z" fill="#CB6CE6" fill-opacity="0.42"/>
<path d="M66.5852 817.057C66.5852 826.41 62.8627 834.37 58.4889 834.569C53.9754 834.668 50.1134 826.31 50.2065 816.659C50.3461 807.307 54.115 799.447 58.4889 799.546C62.9093 799.646 66.5852 807.705 66.5852 817.057Z" fill="#CB6CE6" fill-opacity="0.42"/>
<path d="M303.797 0H295.281C296.445 1.49243 297.748 2.58693 299.143 2.68642C300.772 2.88541 302.401 1.89041 303.797 0Z" fill="#CB6CE6" fill-opacity="0.42"/>
<path d="M206.455 612.892C202.082 612.992 198.313 605.132 198.219 595.779C198.126 586.227 202.035 577.77 206.502 577.969C210.876 578.168 214.598 586.128 214.552 595.48C214.552 604.833 210.829 612.793 206.455 612.892Z" fill="#CB6CE6" fill-opacity="0.42"/>
<path d="M5.16536 845.812C5.21189 836.359 8.8878 828.4 13.3082 828.4C17.8682 828.3 21.6837 836.758 21.5441 846.409C21.4045 855.861 17.589 863.621 13.2151 863.422C8.79473 863.323 5.11883 855.264 5.16536 845.812Z" fill="#CB6CE6" fill-opacity="0.42"/>
<path d="M226.696 513.894C226.603 504.542 230.232 496.283 234.606 495.985C239.119 495.587 243.074 503.845 243.074 513.496C243.074 522.948 239.352 530.908 234.978 531.007C230.604 531.206 226.789 523.346 226.696 513.894Z" fill="#CB6CE6" fill-opacity="0.42"/>
<path d="M270.761 433.204C270.761 442.457 266.899 450.615 262.572 450.516C258.198 450.416 254.475 442.059 254.568 432.806C254.708 423.752 258.337 416.091 262.572 415.892C266.945 415.792 270.761 423.951 270.761 433.204Z" fill="#CB6CE6" fill-opacity="0.42"/>
<path d="M153.225 696.966C157.599 697.264 161.321 705.622 161.135 714.875C160.949 724.228 156.994 732.088 152.667 731.59C148.432 731.093 144.896 723.133 144.943 714.179C145.036 704.727 148.898 696.667 153.225 696.966Z" fill="#CB6CE6" fill-opacity="0.42"/>
<path d="M129.215 768.404C124.888 768.702 121.026 760.643 120.933 751.29C120.886 742.037 124.655 733.779 129.029 733.779C133.217 733.779 136.939 741.441 137.125 750.495C137.265 759.748 133.589 768.205 129.215 768.404Z" fill="#CB6CE6" fill-opacity="0.42"/>
<path d="M104.321 805.217C99.9476 805.317 96.1786 797.257 96.2251 787.905C96.2717 778.851 99.8545 771.09 104.135 770.991C108.509 770.891 112.278 778.95 112.232 788.303C112.185 797.357 108.602 805.018 104.321 805.217Z" fill="#CB6CE6" fill-opacity="0.42"/>
<path d="M169.837 677.565C169.743 668.212 173.512 660.153 177.886 660.153C182.121 660.253 185.75 667.814 185.843 676.968C185.936 686.32 182.167 694.38 177.793 694.38C173.559 694.28 169.93 686.718 169.837 677.565Z" fill="#CB6CE6" fill-opacity="0.42"/>
<path d="M298.306 171.729C298.259 162.576 301.749 154.815 306.03 154.517C310.45 154.218 314.219 162.178 314.173 171.63C314.126 180.784 310.543 188.445 306.262 188.445C301.982 188.445 298.399 180.883 298.306 171.729Z" fill="#CB6CE6" fill-opacity="0.42"/>
<path d="M302.494 199.488C306.775 199.488 310.358 207.05 310.451 216.303C310.497 225.755 306.728 233.715 302.308 233.516C298.027 233.317 294.491 225.457 294.537 216.303C294.63 207.05 298.213 199.488 302.494 199.488Z" fill="#CB6CE6" fill-opacity="0.42"/>
<path d="M298.633 278.189C294.306 278.09 290.816 270.429 290.863 261.176C290.909 251.923 294.492 244.46 298.819 244.56C303.147 244.659 306.637 252.321 306.59 261.574C306.543 270.926 302.961 278.388 298.633 278.189Z" fill="#CB6CE6" fill-opacity="0.42"/>
<path d="M231.024 575.482C226.743 575.283 223.207 567.622 223.207 558.468C223.207 549.016 227.069 541.156 231.443 541.554C235.723 541.952 239.213 549.911 239.074 558.966C238.934 568.119 235.305 575.581 231.024 575.482Z" fill="#CB6CE6" fill-opacity="0.42"/>
<path d="M34.3393 870.884C30.0585 870.785 26.4756 863.123 26.4756 853.97C26.4291 844.518 30.2446 836.558 34.665 836.956C38.9458 837.255 42.4356 845.115 42.3425 854.268C42.2495 863.422 38.6201 870.984 34.3393 870.884Z" fill="#CB6CE6" fill-opacity="0.42"/>
<path d="M54.5332 878.147C50.2524 878.048 47.0418 870.884 47.0884 861.631C47.1349 852.478 50.4851 845.613 54.8124 845.712C59.0932 845.812 62.3038 852.975 62.2573 862.228C62.2107 871.382 58.8606 878.346 54.5332 878.147Z" fill="#CB6CE6" fill-opacity="0.42"/>
<path d="M291.373 367.736C286.906 367.835 283.556 360.771 283.556 351.219C283.556 342.066 286.813 335.002 291.094 334.902C295.561 334.803 298.911 341.867 298.911 351.418C298.865 360.572 295.654 367.636 291.373 367.736Z" fill="#CB6CE6" fill-opacity="0.42"/>
<path d="M302.727 306.148C302.774 315.6 299.377 322.963 294.957 322.963C290.536 322.963 287.14 315.6 287.186 306.148C287.233 296.994 290.49 289.93 294.771 289.731C299.238 289.532 302.681 296.696 302.727 306.148Z" fill="#CB6CE6" fill-opacity="0.42"/>
<path d="M316.733 54.5234C312.406 54.5234 309.149 47.5587 309.102 38.4051C309.056 28.8535 312.452 21.6899 316.919 21.8889C321.2 22.0879 324.411 29.152 324.364 38.4051C324.364 47.6582 321.06 54.5234 316.733 54.5234Z" fill="#CB6CE6" fill-opacity="0.42"/>
<path d="M202.64 656.969C198.219 656.969 194.823 649.705 194.869 640.253C194.916 630.801 198.359 623.638 202.779 623.837C207.06 624.036 210.317 631.1 210.364 640.154C210.41 649.606 207.06 656.969 202.64 656.969Z" fill="#CB6CE6" fill-opacity="0.42"/>
<path d="M321.478 82.8798C321.524 92.4313 318.174 99.6945 313.707 99.595C309.38 99.4955 306.123 92.5309 306.076 83.3773C306.03 73.8257 309.38 66.5625 313.847 66.662C318.128 66.7615 321.431 73.7262 321.478 82.8798Z" fill="#CB6CE6" fill-opacity="0.42"/>
<path d="M9.30602 907.001C5.07175 906.703 1.90769 899.34 2.04728 890.186C2.18688 881.132 5.63012 874.367 9.91092 874.665C14.1452 874.964 17.3093 882.326 17.1697 891.48C17.0301 900.534 13.5868 907.3 9.30602 907.001Z" fill="#CB6CE6" fill-opacity="0.42"/>
<path d="M258.988 493.299C254.615 493.398 251.171 486.036 251.125 476.683C251.078 467.33 254.521 459.968 258.895 459.868C263.269 459.769 266.712 467.131 266.759 476.484C266.759 485.837 263.362 493.199 258.988 493.299Z" fill="#CB6CE6" fill-opacity="0.42"/>
<path d="M227.441 619.559C223.207 619.559 219.857 612.594 219.857 603.441C219.857 594.387 223.114 587.223 227.394 587.223C231.629 587.223 234.979 594.188 234.979 603.341C234.979 612.495 231.675 619.559 227.441 619.559Z" fill="#CB6CE6" fill-opacity="0.42"/>
<path d="M79.5205 841.632C75.1001 841.732 71.7033 834.469 71.7033 825.016C71.7033 815.564 75.1466 808.401 79.567 808.5C83.8478 808.6 87.1049 815.664 87.1979 824.718C87.291 834.17 83.9408 841.533 79.5205 841.632Z" fill="#CB6CE6" fill-opacity="0.42"/>
<path d="M262.757 521.257C262.804 530.51 259.593 537.574 255.313 537.773C250.985 537.873 247.682 531.008 247.588 521.854C247.542 512.601 250.753 505.537 255.033 505.338C259.361 505.238 262.711 512.103 262.757 521.257Z" fill="#CB6CE6" fill-opacity="0.42"/>
<path d="M302.215 127.951C302.262 118.599 305.705 111.336 310.079 111.336C314.453 111.435 317.85 118.798 317.85 128.15C317.803 137.503 314.36 144.766 309.986 144.766C305.566 144.766 302.169 137.304 302.215 127.951Z" fill="#CB6CE6" fill-opacity="0.42"/>
<path d="M295.049 396.191C295.049 405.245 291.792 412.409 287.511 412.409C283.277 412.409 279.927 405.444 279.927 396.29C279.927 387.236 283.184 380.073 287.465 380.073C291.699 380.073 295.003 387.137 295.049 396.191Z" fill="#CB6CE6" fill-opacity="0.42"/>
<path d="M100.552 848.995C96.5507 849.095 93.1075 841.931 93.0144 833.374C92.9213 824.519 96.4577 816.958 100.599 817.057C104.6 817.256 107.951 824.519 107.951 833.076C107.904 841.732 104.554 848.995 100.552 848.995Z" fill="#CB6CE6" fill-opacity="0.42"/>
<path d="M132.798 795.765C132.891 804.819 129.587 812.182 125.353 812.281C121.119 812.381 117.722 805.217 117.722 796.163C117.722 787.408 120.886 780.343 124.981 780.045C129.215 779.747 132.705 786.711 132.798 795.765Z" fill="#CB6CE6" fill-opacity="0.42"/>
<path d="M327.342 0H313.709C314.872 5.47225 317.478 9.25311 320.502 9.3526C323.573 9.3526 326.133 5.57175 327.342 0Z" fill="#CB6CE6" fill-opacity="0.42"/>
<path d="M198.964 701.344C194.962 701.444 191.519 694.379 191.379 685.823C191.24 676.968 194.776 669.306 198.917 669.406C202.919 669.505 206.316 676.769 206.316 685.325C206.362 693.882 202.965 701.145 198.964 701.344Z" fill="#CB6CE6" fill-opacity="0.42"/>
<path d="M157.598 759.151C157.598 768.205 154.248 775.369 150.014 775.369C145.779 775.269 142.476 768.006 142.522 758.952C142.615 750.196 145.826 743.331 149.921 743.132C154.155 742.933 157.552 749.997 157.598 759.151Z" fill="#CB6CE6" fill-opacity="0.42"/>
<path d="M173.931 738.357C169.697 738.158 166.44 730.795 166.533 721.741C166.672 712.687 170.162 705.821 174.396 706.12C178.491 706.518 181.608 713.582 181.608 722.338C181.562 731.491 178.165 738.556 173.931 738.357Z" fill="#CB6CE6" fill-opacity="0.42"/>
<path d="M291.187 441.064C291.234 449.521 287.883 456.883 283.882 457.182C279.787 457.381 276.204 449.819 276.251 440.964C276.297 432.507 279.741 425.244 283.742 425.244C287.697 425.343 291.14 432.606 291.187 441.064Z" fill="#CB6CE6" fill-opacity="0.42"/>
<path d="M323.014 134.916C322.921 126.658 326.131 119.394 329.993 119.096C333.995 118.797 337.531 126.061 337.485 134.617C337.485 142.875 334.181 149.94 330.319 150.039C326.504 150.139 323.107 143.174 323.014 134.916Z" fill="#CB6CE6" fill-opacity="0.42"/>
<path d="M38.015 899.241C37.9219 907.797 34.2925 915.06 30.3374 914.662C26.3358 914.264 22.9856 906.504 23.2183 898.047C23.4509 889.788 26.8942 882.923 30.6632 883.023C34.7113 883.222 38.1546 890.883 38.015 899.241Z" fill="#CB6CE6" fill-opacity="0.42"/>
<path d="M319.757 253.912C323.619 253.912 326.969 260.877 327.016 269.235C327.062 277.791 323.573 285.154 319.571 284.955C315.709 284.756 312.452 277.493 312.498 269.235C312.591 260.877 315.895 253.912 319.757 253.912Z" fill="#CB6CE6" fill-opacity="0.42"/>
<path d="M83.0102 869.79C83.0567 878.247 79.5669 885.709 75.6118 885.61C71.7963 885.51 68.4462 878.446 68.3996 870.188C68.3531 861.731 71.8429 854.268 75.798 854.368C79.6135 854.467 82.9171 861.631 83.0102 869.79Z" fill="#CB6CE6" fill-opacity="0.42"/>
<path d="M279.787 500.065C275.925 499.866 272.668 492.602 272.714 484.344C272.761 475.688 276.344 468.525 280.345 469.022C284.254 469.519 287.418 476.882 287.232 485.14C287.046 493.498 283.602 500.363 279.787 500.065Z" fill="#CB6CE6" fill-opacity="0.42"/>
<path d="M252.101 582.248C248.1 582.148 244.703 574.487 244.796 566.03C244.889 557.473 248.519 550.21 252.474 550.608C256.289 551.006 259.593 558.269 259.593 566.428C259.546 574.985 256.056 582.447 252.101 582.248Z" fill="#CB6CE6" fill-opacity="0.42"/>
<path d="M223.812 664.033C219.856 664.232 216.32 656.77 216.367 648.313C216.367 640.154 219.67 632.991 223.532 632.792C227.487 632.593 231.024 640.055 230.977 648.512C230.931 656.671 227.627 663.834 223.812 664.033Z" fill="#CB6CE6" fill-opacity="0.42"/>
<path d="M319.99 179.689C319.944 171.232 323.434 163.77 327.389 163.869C331.204 163.969 334.554 171.133 334.601 179.291C334.648 187.748 331.158 195.21 327.203 195.111C323.341 195.011 320.037 187.848 319.99 179.689Z" fill="#CB6CE6" fill-opacity="0.42"/>
<path d="M323.48 240.083C319.525 239.983 316.082 232.421 316.221 223.964C316.361 215.806 319.758 208.741 323.573 208.841C327.528 208.94 330.972 216.502 330.832 224.959C330.692 233.118 327.296 240.182 323.48 240.083Z" fill="#CB6CE6" fill-opacity="0.42"/>
<path d="M326.922 90.9391C326.969 82.4819 330.179 75.8158 334.134 75.9153C338.089 76.0148 341.207 82.8799 341.16 91.337C341.114 99.7942 337.903 106.46 333.948 106.361C329.993 106.261 326.876 99.3962 326.922 90.9391Z" fill="#CB6CE6" fill-opacity="0.42"/>
<path d="M315.848 329.728C311.939 329.529 308.775 322.565 308.822 314.207C308.868 305.551 312.312 298.487 316.36 298.984C320.268 299.382 323.386 306.546 323.2 314.804C323.06 323.261 319.756 329.927 315.848 329.728Z" fill="#CB6CE6" fill-opacity="0.42"/>
<path d="M195.102 745.122C191.054 745.122 188.076 738.456 188.169 729.8C188.262 721.542 191.24 715.373 195.149 715.373C199.197 715.373 202.175 722.039 202.082 730.695C201.942 738.953 199.011 745.122 195.102 745.122Z" fill="#CB6CE6" fill-opacity="0.42"/>
<path d="M51.0901 920.234C47.0419 920.433 43.9709 913.966 43.9709 905.31C43.9709 896.952 46.9023 890.684 50.7643 890.485C54.8125 890.286 57.8835 896.753 57.8835 905.41C57.837 913.668 54.9521 920.035 51.0901 920.234Z" fill="#CB6CE6" fill-opacity="0.42"/>
<path d="M146.338 819.146C142.429 819.246 139.405 813.077 139.265 804.72C139.126 796.063 142.15 789.298 146.198 789.198C150.246 789.099 153.317 795.765 153.271 804.421C153.224 812.779 150.246 819.047 146.338 819.146Z" fill="#CB6CE6" fill-opacity="0.42"/>
<path d="M305.239 359.378C305.239 350.722 308.356 344.155 312.405 344.354C316.313 344.553 319.198 350.92 319.245 359.278C319.245 367.934 316.127 374.501 312.079 374.302C308.17 374.103 305.285 367.735 305.239 359.378Z" fill="#CB6CE6" fill-opacity="0.42"/>
<path d="M163.275 767.11C163.322 758.554 166.439 751.987 170.487 752.186C174.489 752.385 177.513 759.151 177.374 767.807C177.234 776.065 174.256 782.333 170.348 782.333C166.346 782.333 163.229 775.667 163.275 767.11Z" fill="#CB6CE6" fill-opacity="0.42"/>
<path d="M330.832 45.967C330.878 37.3109 334.043 31.0427 338.091 31.3412C341.953 31.6396 344.791 38.1068 344.745 46.4644C344.698 55.0211 341.534 61.3888 337.486 61.0903C333.624 60.7918 330.785 54.3246 330.832 45.967Z" fill="#CB6CE6" fill-opacity="0.42"/>
<path d="M0 926.204V942.322C1.16326 946.302 3.21061 948.889 5.67672 948.988C9.58527 949.187 12.6098 943.019 12.7493 934.76C12.8889 926.005 9.86445 919.438 5.8163 919.438C3.30366 919.438 1.20979 922.125 0 926.204Z" fill="#CB6CE6" fill-opacity="0.42"/>
<path d="M248.333 626.225C244.425 626.125 241.493 619.857 241.493 611.5C241.493 602.843 244.611 596.476 248.659 596.675C252.521 596.973 255.359 603.44 255.313 611.798C255.266 620.156 252.242 626.324 248.333 626.225Z" fill="#CB6CE6" fill-opacity="0.42"/>
<path d="M283.137 529.913C283.091 538.271 280.113 544.44 276.158 544.34C272.11 544.241 269.132 537.575 269.318 528.819C269.457 520.561 272.528 514.492 276.437 514.79C280.345 514.989 283.184 521.456 283.137 529.913Z" fill="#CB6CE6" fill-opacity="0.42"/>
<path d="M121.398 855.96C117.35 855.86 114.418 849.194 114.511 840.538C114.651 832.28 117.675 826.211 121.537 826.31C125.585 826.41 128.517 833.076 128.424 841.732C128.331 849.99 125.306 856.059 121.398 855.96Z" fill="#CB6CE6" fill-opacity="0.42"/>
<path d="M301.657 404.151C301.704 395.893 304.681 389.625 308.544 389.724C312.406 389.824 315.337 396.191 315.29 404.449C315.244 412.708 312.266 418.976 308.404 418.876C304.542 418.876 301.611 412.509 301.657 404.151Z" fill="#CB6CE6" fill-opacity="0.42"/>
<path d="M348.373 0.995033C348.373 0.696546 348.326 0.398096 348.326 0.0996094H334.833C334.833 0.497591 334.786 0.796084 334.786 1.19407C334.786 9.45219 337.764 15.9194 341.626 15.8199C345.442 15.7204 348.419 9.25316 348.373 0.995033Z" fill="#CB6CE6" fill-opacity="0.42"/>
<path d="M220.043 678.758C223.905 678.957 226.836 685.624 226.696 693.882C226.557 702.04 223.393 708.209 219.531 707.911C215.855 707.513 213.063 701.145 213.063 693.185C213.11 684.927 216.181 678.659 220.043 678.758Z" fill="#CB6CE6" fill-opacity="0.42"/>
<path d="M265.781 574.188C265.874 566.527 269.038 560.06 272.621 560.259C276.204 560.458 279.229 567.224 279.136 574.885C279.043 582.546 275.878 589.013 272.296 588.814C268.713 588.615 265.688 581.85 265.781 574.188Z" fill="#CB6CE6" fill-opacity="0.42"/>
<path d="M71.9365 927.696C68.3537 927.696 65.2362 921.13 65.2362 913.468C65.2362 905.807 68.3072 899.141 71.89 899.141C75.4729 899.141 78.5904 905.708 78.5904 913.369C78.6369 921.03 75.5659 927.597 71.9365 927.696Z" fill="#CB6CE6" fill-opacity="0.42"/>
<path d="M33.5945 941.924C33.6875 949.585 30.7096 956.351 27.1268 956.65C23.4043 956.948 20.1472 950.182 20.1472 942.223C20.1472 934.562 23.2182 927.995 26.801 927.895C30.4304 927.796 33.5014 934.263 33.5945 941.924Z" fill="#CB6CE6" fill-opacity="0.42"/>
<path d="M304.914 462.057C301.285 462.256 298.167 455.889 298.027 448.128C297.888 440.069 301.005 433.104 304.821 433.204C308.45 433.204 311.475 439.671 311.521 447.531C311.521 455.292 308.543 461.858 304.914 462.057Z" fill="#CB6CE6" fill-opacity="0.42"/>
<path d="M89.8972 876.655C89.8507 868.397 92.8286 861.83 96.6907 861.83C100.553 861.83 103.577 868.298 103.531 876.556C103.484 884.515 100.646 890.783 96.9233 890.982C93.0613 891.181 89.9903 884.913 89.8972 876.655Z" fill="#CB6CE6" fill-opacity="0.42"/>
<path d="M251.311 656.372C251.311 664.033 248.193 670.699 244.61 670.699C241.027 670.6 237.91 663.735 238.003 656.173C238.096 648.81 241.074 642.443 244.517 642.343C248.146 642.045 251.311 648.711 251.311 656.372Z" fill="#CB6CE6" fill-opacity="0.42"/>
<path d="M166.672 826.311C163.136 826.41 159.971 819.744 159.971 812.182C159.971 804.621 163.136 797.954 166.672 798.054C170.069 798.153 173.093 804.521 173.186 811.784C173.279 819.346 170.208 826.211 166.672 826.311Z" fill="#CB6CE6" fill-opacity="0.42"/>
<path d="M142.616 861.532C139.08 861.631 135.916 854.766 135.962 847.205C136.055 839.941 139.033 833.474 142.476 833.375C146.013 833.275 149.177 840.14 149.13 847.702C149.037 855.065 146.013 861.432 142.616 861.532Z" fill="#CB6CE6" fill-opacity="0.42"/>
<path d="M307.52 493C307.427 500.363 304.356 506.631 300.913 506.532C297.33 506.432 294.259 499.368 294.492 491.806C294.724 484.444 297.889 478.275 301.285 478.673C304.729 479.071 307.613 485.737 307.52 493Z" fill="#CB6CE6" fill-opacity="0.42"/>
<path d="M184.772 774.871C184.865 767.21 188.169 760.743 191.705 761.24C195.149 761.738 198.033 768.404 197.94 775.667C197.847 783.329 194.544 789.796 191.007 789.298C187.564 788.801 184.679 782.135 184.772 774.871Z" fill="#CB6CE6" fill-opacity="0.42"/>
<path d="M350.375 232.521C350.375 240.083 347.117 246.849 343.581 246.55C340.138 246.252 337.206 239.785 337.206 232.422C337.206 224.86 340.464 218.095 344 218.393C347.443 218.691 350.375 225.258 350.375 232.521Z" fill="#CB6CE6" fill-opacity="0.42"/>
<path d="M354.144 187.748C354.097 195.409 350.84 201.976 347.304 201.578C343.86 201.18 340.929 194.613 341.022 187.35C341.069 179.689 344.326 173.122 347.862 173.52C351.259 173.818 354.19 180.485 354.144 187.748Z" fill="#CB6CE6" fill-opacity="0.42"/>
<path d="M344.791 142.478C344.791 135.115 347.769 128.648 351.258 128.648C354.841 128.548 357.959 135.413 357.819 143.075C357.68 150.437 354.609 156.705 351.165 156.506C347.722 156.307 344.791 149.84 344.791 142.478Z" fill="#CB6CE6" fill-opacity="0.42"/>
<path d="M111.394 884.117C111.487 876.555 114.465 870.486 118.002 870.785C121.538 871.083 124.33 877.55 124.144 885.112C123.958 892.375 121.119 898.146 117.722 898.046C114.14 898.046 111.301 891.679 111.394 884.117Z" fill="#CB6CE6" fill-opacity="0.42"/>
<path d="M209.759 738.555C209.713 730.993 212.598 724.725 216.134 724.725C219.67 724.725 222.555 730.993 222.509 738.555C222.462 745.818 219.717 751.788 216.32 751.987C212.784 752.186 209.806 746.117 209.759 738.555Z" fill="#CB6CE6" fill-opacity="0.42"/>
<path d="M343.395 322.166C343.442 329.728 340.557 335.996 337.02 335.996C333.484 335.996 330.599 329.728 330.646 322.166C330.692 314.903 333.438 308.933 336.834 308.734C340.371 308.535 343.349 314.605 343.395 322.166Z" fill="#CB6CE6" fill-opacity="0.42"/>
<path d="M347.256 277.692C347.209 285.154 344.185 291.422 340.695 291.323C337.205 291.223 334.274 284.756 334.32 277.294C334.367 269.832 337.391 263.563 340.881 263.663C344.371 263.762 347.302 270.23 347.256 277.692Z" fill="#CB6CE6" fill-opacity="0.42"/>
<path d="M355.168 112.828C351.631 113.027 348.7 106.858 348.653 99.2965C348.653 91.7349 351.538 85.5661 355.075 85.5661C358.471 85.6656 361.263 91.4363 361.403 98.6995C361.542 106.361 358.75 112.728 355.168 112.828Z" fill="#CB6CE6" fill-opacity="0.42"/>
<path d="M358.797 67.3584C355.307 67.3584 352.655 61.6871 352.655 54.225C352.655 46.7628 355.307 41.0916 358.797 41.0916C362.287 41.0916 364.939 46.7628 364.939 54.225C364.939 61.7866 362.333 67.3584 358.797 67.3584Z" fill="#CB6CE6" fill-opacity="0.42"/>
<path d="M268.574 632.791C264.991 632.692 262.339 626.523 262.478 618.763C262.618 611.4 265.363 606.027 268.853 606.127C272.436 606.226 275.088 612.395 274.948 620.156C274.762 627.518 272.017 632.99 268.574 632.791Z" fill="#CB6CE6" fill-opacity="0.42"/>
<path d="M41.691 950.58C41.5979 942.819 44.3432 936.85 47.9261 936.949C51.3693 936.949 54.0681 942.521 54.1146 949.884C54.2077 957.644 51.4624 963.614 47.8795 963.514C44.4363 963.614 41.7375 958.042 41.691 950.58Z" fill="#CB6CE6" fill-opacity="0.42"/>
<path d="M333.437 380.57C329.947 380.769 327.202 375.297 327.109 367.835C326.969 360.074 329.714 354.005 333.344 354.105C336.834 354.105 339.486 359.776 339.486 367.238C339.486 374.7 336.927 380.471 333.437 380.57Z" fill="#CB6CE6" fill-opacity="0.42"/>
<path d="M0 991.573C0.651426 992.07 1.30285 992.369 2.00081 992.369C5.53712 992.468 8.18936 986.896 8.23589 979.434C8.28242 971.873 5.67672 966.201 2.18694 966.102C1.39592 966.102 0.697966 966.4 0.0465404 966.898V991.573H0Z" fill="#CB6CE6" fill-opacity="0.42"/>
<path d="M297.422 550.708C293.886 550.907 291.187 545.434 291.141 537.972C291.048 530.411 293.607 524.64 297.097 524.54C300.633 524.341 303.332 529.814 303.378 537.276C303.471 544.738 300.912 550.509 297.422 550.708Z" fill="#CB6CE6" fill-opacity="0.42"/>
<path d="M163.462 868.297C160.251 868.198 157.552 862.228 157.599 855.363C157.645 848.498 160.437 842.727 163.648 842.826C166.858 842.926 169.557 848.896 169.511 855.761C169.464 862.626 166.672 868.397 163.462 868.297Z" fill="#CB6CE6" fill-opacity="0.42"/>
<path d="M247.03 701.045C247.123 708.607 244.518 714.378 240.981 714.477C237.445 714.577 234.793 708.905 234.793 701.344C234.793 694.18 237.305 688.608 240.656 688.31C244.192 688.111 246.937 693.583 247.03 701.045Z" fill="#CB6CE6" fill-opacity="0.42"/>
<path d="M99.0631 921.229C99.1097 928.79 96.4574 934.462 92.9211 934.362C89.3848 934.362 86.7791 928.591 86.8721 921.03C86.9187 913.866 89.4779 908.394 92.8281 908.294C96.3644 908.195 99.0631 913.766 99.0631 921.229Z" fill="#CB6CE6" fill-opacity="0.42"/>
<path d="M368.568 9.7506C368.614 5.87027 367.916 2.48739 366.707 0H358.378C357.261 2.2884 356.563 5.57173 356.516 9.15357C356.47 16.2178 359.076 21.9885 362.379 22.088C365.729 22.287 368.475 16.8148 368.568 9.7506Z" fill="#CB6CE6" fill-opacity="0.42"/>
<path d="M187.518 831.385C184.307 831.285 181.608 825.315 181.655 818.45C181.701 811.585 184.493 805.814 187.704 805.914C190.914 806.013 193.613 811.983 193.566 818.848C193.52 825.714 190.728 831.484 187.518 831.385Z" fill="#CB6CE6" fill-opacity="0.42"/>
<path d="M329.39 423.751C325.946 423.652 323.341 417.782 323.434 410.32C323.527 402.957 326.319 397.485 329.808 397.783C333.112 398.082 335.578 403.653 335.578 410.817C335.578 418.279 332.879 423.851 329.39 423.751Z" fill="#CB6CE6" fill-opacity="0.42"/>
<path d="M62.2579 958.54C62.2114 951.774 65.0032 945.705 68.1673 945.705C71.3314 945.705 74.1697 951.774 74.0766 958.54C74.0301 965.007 71.3779 970.778 68.3534 970.977C65.1894 971.275 62.3044 965.306 62.2579 958.54Z" fill="#CB6CE6" fill-opacity="0.42"/>
<path d="M218.275 781.538C218.321 788.303 215.436 794.372 212.272 794.273C209.248 794.074 206.549 788.303 206.502 781.836C206.456 775.07 209.341 769.001 212.505 769.101C215.529 769.3 218.228 775.07 218.275 781.538Z" fill="#CB6CE6" fill-opacity="0.42"/>
<path d="M331.715 455.888C331.668 462.754 328.737 468.624 325.573 468.325C322.362 468.027 319.664 461.759 319.85 454.993C320.036 448.526 322.781 442.954 325.806 442.954C328.97 443.053 331.762 449.123 331.715 455.888Z" fill="#CB6CE6" fill-opacity="0.42"/>
<path d="M293.606 595.182C290.442 595.282 287.557 589.213 287.604 582.447C287.65 575.98 290.349 570.209 293.373 570.01C296.538 569.911 299.422 575.98 299.376 582.745C299.329 589.213 296.631 594.983 293.606 595.182Z" fill="#CB6CE6" fill-opacity="0.42"/>
<path d="M138.894 905.011C135.869 905.111 133.077 899.539 132.891 893.072C132.705 886.306 135.497 880.038 138.661 879.839C141.825 879.74 144.71 885.809 144.663 892.575C144.617 899.141 141.918 904.912 138.894 905.011Z" fill="#CB6CE6" fill-opacity="0.42"/>
<path d="M265.782 677.067C262.618 677.167 259.733 670.998 259.826 664.232C259.872 657.765 262.618 651.994 265.642 651.895C268.806 651.795 271.691 657.964 271.598 664.73C271.505 671.197 268.806 676.968 265.782 677.067Z" fill="#CB6CE6" fill-opacity="0.42"/>
<path d="M29.0345 987.493C28.988 994.358 26.0565 1000.23 22.8925 999.93C19.6819 999.632 16.9831 993.364 17.1692 986.598C17.3554 980.131 20.1006 974.559 23.1251 974.559C26.3357 974.559 29.1276 980.628 29.0345 987.493Z" fill="#CB6CE6" fill-opacity="0.42"/>
<path d="M113.72 941.427C110.603 941.128 108.183 935.258 108.369 928.592C108.602 921.826 111.301 916.851 114.465 917.448C117.489 917.946 119.723 923.418 119.629 929.786C119.536 936.551 116.838 941.825 113.72 941.427Z" fill="#CB6CE6" fill-opacity="0.42"/>
<path d="M237.072 758.355C233.908 758.255 231.442 752.683 231.535 745.918C231.628 739.252 234.28 733.978 237.444 734.277C240.422 734.575 242.795 739.849 242.795 746.316C242.795 753.081 240.236 758.454 237.072 758.355Z" fill="#CB6CE6" fill-opacity="0.42"/>
<path d="M368.613 207.349C365.542 207.349 363.169 202.473 363.03 196.006C362.89 189.141 365.31 183.768 368.52 183.669C371.731 183.669 374.15 188.942 374.104 195.807C374.057 202.473 371.684 207.349 368.613 207.349Z" fill="#CB6CE6" fill-opacity="0.42"/>
<path d="M364.66 252.321C361.449 252.122 359.123 246.55 359.309 239.685C359.495 233.218 361.961 228.442 365.032 228.641C368.243 228.84 370.569 234.411 370.383 241.277C370.15 247.843 367.731 252.52 364.66 252.321Z" fill="#CB6CE6" fill-opacity="0.42"/>
<path d="M361.123 297.193C358.006 297.193 355.679 292.417 355.632 285.751C355.539 278.786 357.959 273.612 361.263 273.712C364.38 273.911 366.614 278.886 366.567 285.552C366.521 292.218 364.241 297.093 361.123 297.193Z" fill="#CB6CE6" fill-opacity="0.42"/>
<path d="M377.827 150.337C377.92 157.004 375.687 162.078 372.616 162.376C369.359 162.675 366.893 157.501 366.893 150.537C366.939 143.87 369.219 138.995 372.337 138.895C375.408 138.796 377.734 143.671 377.827 150.337Z" fill="#CB6CE6" fill-opacity="0.42"/>
<path d="M327.574 500.661C327.574 507.526 325.061 512.7 321.851 512.501C318.78 512.302 316.5 507.228 316.5 500.661C316.5 493.796 319.012 488.622 322.223 488.821C325.247 489.02 327.574 494.095 327.574 500.661Z" fill="#CB6CE6" fill-opacity="0.42"/>
<path d="M295.096 627.22C295.189 633.886 292.909 638.96 289.791 639.06C286.673 639.159 284.347 634.185 284.347 627.518C284.347 621.151 286.487 616.375 289.465 616.076C292.583 615.778 295.002 620.554 295.096 627.22Z" fill="#CB6CE6" fill-opacity="0.42"/>
<path d="M381.457 105.267C381.55 111.933 379.27 117.007 376.152 117.107C373.035 117.206 370.708 112.231 370.708 105.565C370.708 99.1973 372.849 94.4215 375.827 94.123C378.944 93.8246 381.364 98.6999 381.457 105.267Z" fill="#CB6CE6" fill-opacity="0.42"/>
<path d="M357.633 318.983C360.704 319.281 362.891 324.554 362.705 331.32C362.519 337.588 360.192 342.066 357.214 341.966C354.097 341.867 351.863 336.693 351.956 330.027C352.049 323.36 354.469 318.684 357.633 318.983Z" fill="#CB6CE6" fill-opacity="0.42"/>
<path d="M261.873 720.746C258.848 720.646 256.522 715.373 256.661 708.806C256.801 702.638 259.128 697.961 262.059 698.061C265.083 698.16 267.41 703.433 267.27 710C267.084 716.169 264.758 720.845 261.873 720.746Z" fill="#CB6CE6" fill-opacity="0.42"/>
<path d="M89.2923 977.743C86.3609 977.842 84.0344 973.166 83.8948 966.898C83.7552 960.231 86.0818 955.057 89.1528 954.958C92.2703 954.858 94.5968 960.032 94.5503 966.599C94.5037 972.967 92.2238 977.643 89.2923 977.743Z" fill="#CB6CE6" fill-opacity="0.42"/>
<path d="M38.8067 995.552C38.7136 988.886 40.9936 983.812 44.1111 983.712C47.2287 983.613 49.5552 988.588 49.5552 995.254C49.5552 1001.62 47.4148 1006.4 44.4369 1006.7C41.2728 1006.99 38.8532 1002.22 38.8067 995.552Z" fill="#CB6CE6" fill-opacity="0.42"/>
<path d="M318.221 556.876C315.336 556.876 313.009 551.902 312.963 545.733C312.916 539.266 315.429 534.092 318.453 534.291C321.292 534.49 323.572 539.664 323.525 545.832C323.479 552.001 321.106 556.876 318.221 556.876Z" fill="#CB6CE6" fill-opacity="0.42"/>
<path d="M359.587 375.695C359.494 381.764 357.12 386.64 354.282 386.64C351.258 386.54 348.885 381.068 349.071 374.7C349.257 368.631 351.723 363.855 354.561 364.154C357.4 364.452 359.633 369.626 359.587 375.695Z" fill="#CB6CE6" fill-opacity="0.42"/>
<path d="M0 1034.75C2.04734 1033.26 3.53631 1029.28 3.58284 1024.41C3.62938 1019.33 2.09387 1015.05 0 1013.46V1034.75Z" fill="#CB6CE6" fill-opacity="0.42"/>
<path d="M183.702 874.765C180.864 874.665 178.537 869.292 178.584 863.323C178.63 857.253 181.143 852.279 183.935 852.378C186.773 852.577 189.1 857.85 189.053 863.82C189.007 869.889 186.541 874.864 183.702 874.765Z" fill="#CB6CE6" fill-opacity="0.42"/>
<path d="M379.734 73.5274C376.896 73.4279 374.569 68.3536 374.569 62.1849C374.569 55.7177 377.128 50.6434 380.153 50.9419C382.991 51.2404 385.224 56.5137 385.131 62.6824C384.992 68.8511 382.572 73.6268 379.734 73.5274Z" fill="#CB6CE6" fill-opacity="0.42"/>
<path d="M233.49 800.541C230.791 800.641 228.418 795.666 228.371 789.895C228.325 784.124 230.651 779.05 233.35 778.951C236.049 778.851 238.422 783.826 238.468 789.597C238.515 795.268 236.188 800.342 233.49 800.541Z" fill="#CB6CE6" fill-opacity="0.42"/>
<path d="M208.783 837.752C205.991 837.951 203.478 832.777 203.432 826.807C203.385 820.838 205.851 815.266 208.643 815.564C211.667 815.863 213.482 819.644 213.808 826.111C214.087 831.981 211.574 837.553 208.783 837.752Z" fill="#CB6CE6" fill-opacity="0.42"/>
<path d="M154.621 900.335C154.668 894.365 157.18 889.192 160.019 889.391C162.81 889.59 165.323 895.161 164.997 901.131C164.672 907.499 162.857 911.28 159.832 911.578C156.994 911.877 154.574 906.305 154.621 900.335Z" fill="#CB6CE6" fill-opacity="0.42"/>
<path d="M383.598 28.2569C380.945 28.2569 378.526 23.2821 378.479 17.5114C378.433 11.5416 380.992 6.16886 383.784 6.36785C386.436 6.56684 388.763 11.8401 388.716 17.5114C388.67 23.1826 386.25 28.2569 383.598 28.2569Z" fill="#CB6CE6" fill-opacity="0.42"/>
<path d="M350.699 429.821C347.907 430.02 345.348 424.647 345.395 418.677C345.395 413.006 347.768 407.932 350.42 407.733C353.212 407.534 355.771 412.906 355.725 418.876C355.678 424.547 353.351 429.622 350.699 429.821Z" fill="#CB6CE6" fill-opacity="0.42"/>
<path d="M134.938 948.192C132.24 948.093 129.913 942.919 129.96 937.248C130.006 931.477 132.426 926.502 135.078 926.602C137.777 926.701 140.103 931.875 140.057 937.546C140.01 943.416 137.591 948.391 134.938 948.192Z" fill="#CB6CE6" fill-opacity="0.42"/>
<path d="M24.2427 1032.37C24.0566 1038.63 21.637 1043.21 18.8917 1042.51C15.9603 1041.72 14.4714 1037.74 14.5179 1031.57C14.5644 1025.7 17.0771 1021.12 19.8223 1021.82C22.7538 1022.61 24.1497 1026.59 24.2427 1032.37Z" fill="#CB6CE6" fill-opacity="0.42"/>
<path d="M59.4663 1003.01C59.5594 997.244 61.979 992.368 64.6777 992.667C67.3765 992.965 69.703 998.338 69.3773 1004.01C69.0516 1010.18 67.2835 1013.66 64.3986 1013.86C61.6998 1014.06 59.3733 1008.79 59.4663 1003.01Z" fill="#CB6CE6" fill-opacity="0.42"/>
<path d="M290.954 672.092C291.047 677.863 288.767 683.037 286.069 683.136C283.37 683.236 280.904 678.261 281.043 672.49C281.183 666.321 282.858 662.64 285.696 661.943C288.349 661.247 290.815 666.321 290.954 672.092Z" fill="#CB6CE6" fill-opacity="0.42"/>
<path d="M319.386 590.307C319.386 596.575 317.059 601.45 314.314 600.953C311.382 600.455 309.754 596.774 309.661 590.506C309.568 584.635 311.941 579.661 314.733 580.158C317.617 580.755 319.153 584.436 319.386 590.307Z" fill="#CB6CE6" fill-opacity="0.42"/>
<path d="M346.885 473.996C344 473.598 342.278 470.415 342.046 464.146C341.86 458.177 344.093 453.301 346.885 453.6C349.816 453.898 351.538 457.48 351.538 463.748C351.538 470.017 349.77 473.399 346.885 473.996Z" fill="#CB6CE6" fill-opacity="0.42"/>
<path d="M347.628 508.223C347.396 514.193 346.046 517.974 343.255 518.272C340.463 518.471 338.741 515.088 338.602 509.119C338.508 503.149 340.09 499.468 342.882 499.169C345.674 498.871 347.163 502.452 347.628 508.223Z" fill="#CB6CE6" fill-opacity="0.42"/>
<path d="M110.184 964.41C113.209 964.808 115.163 969.484 114.837 975.255C114.512 981.623 112.65 984.807 109.719 984.21C106.927 983.712 105.485 979.832 105.578 973.962C105.764 967.494 107.625 964.609 110.184 964.41Z" fill="#CB6CE6" fill-opacity="0.42"/>
<path d="M262.851 752.882C262.525 759.151 260.989 762.832 258.011 762.633C255.033 762.434 253.451 758.554 253.544 752.285C253.638 746.316 255.313 742.933 258.104 742.933C261.129 742.933 262.618 746.714 262.851 752.882Z" fill="#CB6CE6" fill-opacity="0.42"/>
<path d="M84.4993 1021.82C83.3826 1018.24 81.5679 1014.85 81.3352 1011.07C81.0095 1005.8 82.9638 1002.12 85.5695 1002.22C88.1752 1002.32 90.0829 1006.1 89.6176 1011.47C89.2919 1015.25 87.4307 1018.44 86.2209 1021.92C85.6625 1021.92 85.0577 1021.82 84.4993 1021.82Z" fill="#CB6CE6" fill-opacity="0.42"/>
<path d="M39.5511 1050.97C38.3879 1047.49 36.6662 1044.3 36.1079 1040.42C35.4565 1035.65 38.1552 1030.47 40.5283 1030.97C43.0874 1031.57 45.0417 1035.05 44.5764 1040.42C44.2507 1044.3 42.3895 1047.49 41.2262 1050.97C40.7144 1050.87 40.156 1050.97 39.5511 1050.97Z" fill="#CB6CE6" fill-opacity="0.42"/>
<path d="M309.939 646.223C308.776 642.741 307.054 639.557 306.496 635.677C305.844 630.901 308.543 625.727 310.916 626.225C313.475 626.822 315.429 630.304 314.964 635.677C314.638 639.557 312.777 642.741 311.614 646.323C311.056 646.224 310.497 646.223 309.939 646.223Z" fill="#CB6CE6" fill-opacity="0.42"/>
<path d="M392.344 169.242C391.227 165.66 389.552 162.377 389.133 158.397C388.575 153.621 391.414 148.547 393.694 149.243C396.253 150.039 398.114 153.721 397.602 158.994C397.23 162.775 395.276 165.859 394.066 169.342C393.461 169.342 392.902 169.342 392.344 169.242Z" fill="#CB6CE6" fill-opacity="0.42"/>
<path d="M179.374 919.339C178.165 915.956 176.396 912.871 175.792 908.991C175.094 904.315 177.746 898.942 180.119 899.24C182.725 899.638 184.632 903.121 184.307 908.394C184.027 912.274 182.213 915.657 181.096 919.239C180.538 919.239 179.979 919.239 179.374 919.339Z" fill="#CB6CE6" fill-opacity="0.42"/>
<path d="M387.132 258.39C383.224 257.395 381.456 254.41 381.456 248.44C381.456 242.869 383.131 239.287 385.69 239.187C388.482 239.088 390.482 242.869 390.11 248.639C389.878 252.42 388.016 255.803 387.132 258.39Z" fill="#CB6CE6" fill-opacity="0.42"/>
<path d="M203.896 882.327C202.733 878.745 201.058 875.461 200.593 871.581C200.034 866.805 202.78 861.631 205.106 862.328C207.665 863.024 209.573 866.706 209.061 871.979C208.689 875.76 206.781 878.944 205.571 882.426C205.06 882.327 204.455 882.327 203.896 882.327Z" fill="#CB6CE6" fill-opacity="0.42"/>
<path d="M277.275 715.771C278.904 713.284 280.393 709.204 282.161 708.508C284.627 707.612 286.395 711.692 286.488 717.164C286.535 722.736 284.813 726.915 282.347 726.218C280.579 725.721 278.997 721.84 277.322 719.452C277.275 718.258 277.275 717.064 277.275 715.771Z" fill="#CB6CE6" fill-opacity="0.42"/>
<path d="M381.224 304.258C380.061 300.775 378.34 297.492 377.874 293.612C377.269 288.836 380.015 283.662 382.341 284.259C384.9 284.856 386.808 288.438 386.343 293.811C386.017 297.691 384.109 300.875 382.946 304.357C382.341 304.258 381.783 304.258 381.224 304.258Z" fill="#CB6CE6" fill-opacity="0.42"/>
<path d="M394.252 200.881C393.787 209.139 392.345 213.02 389.553 212.92C386.947 212.821 385.272 209.338 385.272 203.767C385.226 197.797 387.04 193.519 389.693 194.414C391.461 195.011 392.996 199.09 394.252 200.881Z" fill="#CB6CE6" fill-opacity="0.42"/>
<path d="M228.976 845.115C227.813 841.732 225.905 838.548 225.579 834.768C225.161 829.494 227.161 825.017 229.628 826.012C231.21 826.609 233.49 831.086 233.629 834.171C233.769 837.553 231.815 841.334 230.744 845.016C230.139 845.016 229.535 845.016 228.976 845.115Z" fill="#CB6CE6" fill-opacity="0.42"/>
<path d="M373.499 336.593C375.128 334.205 376.71 330.325 378.478 329.828C380.99 329.131 382.945 333.608 382.433 338.782C382.061 342.165 379.92 346.841 378.478 346.941C376.896 347.14 375.174 342.762 373.546 340.374C373.499 339.081 373.499 337.887 373.499 336.593Z" fill="#CB6CE6" fill-opacity="0.42"/>
<path d="M396.113 123.971C395.042 120.39 393.228 117.007 393.042 113.226C392.762 107.853 394.903 103.674 397.369 105.067C398.951 105.963 401.045 110.639 401.091 113.723C401.138 117.106 399.044 120.688 397.881 124.071C397.322 124.071 396.718 123.971 396.113 123.971Z" fill="#CB6CE6" fill-opacity="0.42"/>
<path d="M155.039 955.555C154.016 951.973 152.061 948.292 152.201 944.909C152.341 941.924 154.574 937.546 156.156 936.949C158.669 936.054 160.53 940.531 160.018 945.904C159.692 949.486 157.878 952.371 156.761 955.555C156.203 955.555 155.598 955.555 155.039 955.555Z" fill="#CB6CE6" fill-opacity="0.42"/>
<path d="M343.86 555.981C342.278 558.071 340.789 561.453 339.114 561.851C336.648 562.548 335.252 558.568 335.345 553.195C335.438 547.823 337.067 544.241 339.44 545.335C341.068 546.131 342.464 549.812 343.953 552.101C343.906 553.494 343.906 554.787 343.86 555.981Z" fill="#CB6CE6" fill-opacity="0.42"/>
<path d="M130.192 991.871C129.262 988.687 127.773 985.702 127.54 982.419C127.168 977.145 128.889 974.061 131.449 974.26C134.008 974.459 135.543 978.041 134.985 983.115C134.613 986.398 132.984 989.085 131.914 992.07C131.355 991.97 130.797 991.97 130.192 991.871Z" fill="#CB6CE6" fill-opacity="0.42"/>
<path d="M258.895 799.645C257.453 801.735 256.15 805.117 254.568 805.714C252.102 806.709 250.566 803.128 250.613 797.655C250.613 792.183 252.195 788.701 254.614 789.696C256.196 790.293 257.499 793.676 258.895 795.864C258.895 797.158 258.895 798.451 258.895 799.645Z" fill="#CB6CE6" fill-opacity="0.42"/>
<path d="M396.392 68.1546C397.835 66.0652 399.231 62.8814 400.766 62.2844C403.232 61.3889 404.721 65.0703 404.675 70.443C404.628 75.9153 403 79.2981 400.58 78.2036C399.045 77.5072 397.742 74.0248 396.346 71.8359C396.392 70.642 396.392 69.448 396.392 68.1546Z" fill="#CB6CE6" fill-opacity="0.42"/>
<path d="M373.732 391.714C372.662 388.43 371.033 385.446 370.708 381.864C370.289 376.69 372.01 373.407 374.523 373.407C377.036 373.407 378.804 376.591 378.385 381.764C378.106 385.346 376.477 388.43 375.454 391.714C374.895 391.714 374.337 391.714 373.732 391.714Z" fill="#CB6CE6" fill-opacity="0.42"/>
<path d="M370.15 436.188C369.126 433.204 367.218 430.02 367.311 427.134C367.451 424.149 369.498 421.463 370.661 418.677C371.964 421.264 374.105 423.553 374.337 426.438C374.57 429.224 372.755 432.706 371.871 435.89C371.313 436.089 370.708 436.089 370.15 436.188Z" fill="#CB6CE6" fill-opacity="0.42"/>
<path d="M60.4435 1057.34C59.5129 1054.16 57.8378 1050.87 57.9309 1047.79C58.0239 1045.1 60.3039 1040.42 61.281 1040.82C62.7235 1041.32 64.6778 1045.4 64.8639 1048.38C65.0035 1051.17 63.0957 1054.45 62.1186 1057.54C61.5602 1057.44 61.0018 1057.44 60.4435 1057.34Z" fill="#CB6CE6" fill-opacity="0.42"/>
<path d="M10.4229 1077.44C12.796 1073.66 14.2384 1069.68 15.4948 1069.97C16.7976 1070.17 17.9609 1074.45 19.2172 1076.94C18.0539 1079.63 16.9837 1083.9 15.6809 1084.3C14.4246 1084.7 12.9356 1080.92 10.4229 1077.44Z" fill="#CB6CE6" fill-opacity="0.42"/>
<path d="M404.582 36.5146C402.907 31.4403 400.952 27.958 401.185 25.5701C401.511 22.4857 403.558 20.0979 404.814 17.511C405.978 20.1974 407.932 22.7842 408.025 25.6696C408.164 28.356 406.303 31.4403 404.582 36.5146Z" fill="#CB6CE6" fill-opacity="0.42"/>
<path d="M306.729 691.594C305.147 686.32 303.286 682.838 303.565 680.45C303.937 677.366 306.031 675.276 307.38 672.689C308.497 675.475 310.405 678.261 310.451 681.147C310.451 683.833 308.543 686.718 306.729 691.594Z" fill="#CB6CE6" fill-opacity="0.42"/>
<path d="M334.646 607.221C333.762 604.236 332.04 600.953 332.226 598.366C332.459 595.58 334.413 592.098 335.809 591.7C336.74 591.501 338.787 596.177 338.787 598.665C338.787 601.55 337.112 604.436 336.181 607.321C335.716 607.221 335.158 607.221 334.646 607.221Z" fill="#CB6CE6" fill-opacity="0.42"/>
<path d="M363.077 472.007C365.217 468.524 366.474 464.843 367.637 464.943C368.893 465.042 370.01 468.922 371.22 471.111C370.103 473.698 369.126 477.777 367.777 478.474C366.753 479.071 365.264 475.29 363.077 472.007Z" fill="#CB6CE6" fill-opacity="0.42"/>
<path d="M110.557 1020.63C109.207 1022.71 107.811 1026.59 106.555 1026.3C105.252 1026 103.484 1022.02 103.205 1019.13C103.019 1017.14 105.066 1012.47 106.276 1012.27C107.625 1012.07 109.068 1015.45 110.464 1017.34C110.51 1018.44 110.51 1019.53 110.557 1020.63Z" fill="#CB6CE6" fill-opacity="0.42"/>
<path d="M275.181 759.25C276.531 757.261 278.02 753.48 279.229 753.778C280.532 754.176 282.254 758.256 282.487 761.141C282.626 763.131 280.532 767.608 279.322 767.807C277.973 767.907 276.577 764.424 275.181 762.534C275.181 761.439 275.181 760.345 275.181 759.25Z" fill="#CB6CE6" fill-opacity="0.42"/>
<path d="M368.241 516.481C366.287 519.565 365.17 522.65 364.146 522.55C363.076 522.351 362.145 518.968 361.168 516.979C362.099 514.889 362.936 511.307 364.007 511.009C365.03 510.611 366.24 513.695 368.241 516.481Z" fill="#CB6CE6" fill-opacity="0.42"/>
<path d="M177.048 963.117C175.605 958.341 174.07 955.555 174.256 953.267C174.442 950.879 176.117 947.894 177.281 947.397C178.025 947.098 179.84 951.078 179.886 953.267C179.933 955.854 178.537 958.441 177.048 963.117Z" fill="#CB6CE6" fill-opacity="0.42"/>
<path d="M299.052 723.631C301.053 720.845 302.309 717.76 303.286 718.158C304.357 718.457 305.194 722.039 306.125 724.128C305.148 726.118 304.17 729.501 303.147 729.7C302.123 729.799 301.006 726.615 299.052 723.631Z" fill="#CB6CE6" fill-opacity="0.42"/>
<path d="M225.998 889.291C224.509 884.615 222.974 881.829 223.113 879.64C223.253 877.252 224.881 874.068 226.091 873.67C226.836 873.371 228.697 877.252 228.743 879.341C228.79 881.829 227.394 884.416 225.998 889.291Z" fill="#CB6CE6" fill-opacity="0.42"/>
<path d="M205.572 916.155C203.571 919.438 202.315 923.119 201.384 922.721C200.128 922.224 199.15 918.742 198.034 916.453C199.057 914.264 199.942 910.682 201.105 910.384C202.175 910.086 203.431 913.269 205.572 916.155Z" fill="#CB6CE6" fill-opacity="0.42"/>
<path d="M403.14 256.3C404.862 253.813 406.072 250.828 406.816 251.326C407.886 251.923 408.631 255.106 409.468 257.196C408.538 258.887 407.607 261.773 406.63 261.872C405.746 261.972 404.769 259.086 403.14 256.3Z" fill="#CB6CE6" fill-opacity="0.42"/>
<path d="M246.611 842.23C248.705 839.643 249.961 836.757 250.938 837.155C251.962 837.653 253.172 841.135 253.311 843.523C253.404 845.016 251.59 848.398 250.659 848.299C249.542 848.199 248.472 845.314 246.611 842.23Z" fill="#CB6CE6" fill-opacity="0.42"/>
<path d="M36.8518 1093.95C35.4094 1089.87 33.9204 1087.49 34.0135 1085.4C34.1065 1083.21 35.5955 1080.22 36.6657 1079.63C37.3637 1079.33 39.1318 1082.71 39.2249 1084.7C39.3179 1086.99 38.1082 1089.48 36.8518 1093.95Z" fill="#CB6CE6" fill-opacity="0.42"/>
<path d="M331.669 652.292C330.413 647.915 329.017 645.328 329.203 643.238C329.389 641.05 330.971 638.363 332.088 637.965C332.786 637.766 334.415 641.547 334.415 643.537C334.368 645.825 333.065 648.114 331.669 652.292Z" fill="#CB6CE6" fill-opacity="0.42"/>
<path d="M81.4744 1047.49C82.9168 1051.57 84.2662 1053.76 84.3127 1056.05C84.3593 1057.94 82.7772 1061.82 82.0793 1061.72C80.9625 1061.42 79.334 1058.83 79.1013 1056.74C78.9152 1054.75 80.2646 1051.97 81.4744 1047.49Z" fill="#CB6CE6" fill-opacity="0.42"/>
<path d="M152.387 999.134C151.038 994.955 149.595 992.368 149.735 990.378C149.874 988.19 151.41 985.304 152.527 984.807C153.225 984.508 154.946 988.09 154.946 990.08C154.946 992.468 153.643 994.856 152.387 999.134Z" fill="#CB6CE6" fill-opacity="0.42"/>
<path d="M410.398 219.587C409.282 215.806 407.932 213.12 408.165 211.528C408.491 209.239 409.98 207.846 411.003 206.055C411.748 208.145 413.097 210.135 413.097 212.224C413.097 214.214 411.701 216.204 410.398 219.587Z" fill="#CB6CE6" fill-opacity="0.42"/>
<path d="M418.402 128.747C417.192 125.464 415.982 123.574 416.029 121.882C416.075 120.091 417.285 117.703 418.216 117.206C418.728 116.907 420.217 119.693 420.263 121.186C420.31 123.076 419.333 125.165 418.402 128.747Z" fill="#CB6CE6" fill-opacity="0.42"/>
<path d="M402.861 309.232C401.837 305.451 400.72 303.163 400.813 301.074C400.86 299.382 402.581 296.298 403.093 296.696C404.07 297.392 405.234 299.979 405.373 302.168C405.559 303.66 404.21 305.75 402.861 309.232Z" fill="#CB6CE6" fill-opacity="0.42"/>
<path d="M275.553 812.878C274.436 809.495 273.366 807.605 273.32 805.714C273.273 804.222 274.623 801.038 275.181 801.237C276.111 801.635 277.414 803.725 277.554 805.516C277.694 807.207 276.577 809.296 275.553 812.878Z" fill="#CB6CE6" fill-opacity="0.42"/>
<path d="M357.26 562.05C358.563 559.762 359.494 557.075 360.099 557.274C361.029 557.672 361.727 560.16 362.518 561.851C361.774 563.344 361.122 565.93 360.331 566.03C359.54 566.229 358.656 564.04 357.26 562.05Z" fill="#CB6CE6" fill-opacity="0.42"/>
<path d="M402.767 346.244C401.185 348.732 400.254 351.319 399.463 351.12C398.579 350.921 397.23 348.234 397.23 346.543C397.23 344.851 398.486 341.966 399.37 341.767C400.114 341.568 401.138 344.055 402.767 346.244Z" fill="#CB6CE6" fill-opacity="0.42"/>
<path d="M127.679 1034.45C126.516 1031.17 125.306 1029.18 125.399 1027.49C125.493 1025.7 126.702 1023.41 127.633 1022.91C128.145 1022.61 129.634 1025.5 129.634 1026.99C129.68 1028.88 128.657 1030.87 127.679 1034.45Z" fill="#CB6CE6" fill-opacity="0.42"/>
<path d="M395.462 396.39C394.532 393.405 393.368 391.216 393.554 389.923C393.834 388.032 395.043 386.739 395.881 385.147C396.532 386.838 397.649 388.53 397.649 390.221C397.696 391.913 396.532 393.604 395.462 396.39Z" fill="#CB6CE6" fill-opacity="0.42"/>
<path d="M414.399 174.316C413.236 170.635 412.073 168.546 412.073 166.556C412.073 164.864 413.469 163.173 414.213 161.382C415.097 163.173 416.4 164.665 416.633 166.854C416.865 168.347 415.609 170.635 414.399 174.316Z" fill="#CB6CE6" fill-opacity="0.42"/>
</g>
</svg>
