
<svg width="246" height="306" viewBox="20 0 246 306" fill="none" xmlns="http://www.w3.org/2000/svg">
<g opacity="0.44">
<path d="M21.4328 -5H-9V83.1084C-8.23777 82.5438 -7.47553 81.9792 -6.57215 81.3299C-5.83815 82.3179 -5.21707 83.1649 -4.56776 84.04C-5.49938 84.6893 -6.40277 85.3387 -7.39084 86.0162C-7.92723 85.1975 -8.43538 84.4353 -8.97176 83.5883V93.9208C-8.9153 93.8643 -8.85884 93.8361 -8.77415 93.7797C-8.09661 94.7677 -7.532 95.5582 -6.88269 96.4898C-7.56023 96.998 -8.26599 97.5344 -8.97176 98.0707V108.686C-8.85884 108.855 -8.74592 108.996 -8.60477 109.165C-8.71769 109.25 -8.83061 109.335 -8.97176 109.42V148.096C-7.61668 147.136 -6.20515 146.148 -4.8783 145.216C-3.80553 146.684 -2.5069 148.406 -1.4059 149.931C-2.9586 151.032 -4.8783 152.387 -6.45922 153.516C-7.19322 152.302 -8.09661 150.806 -8.97176 149.366V158.88C-8.32245 158.4 -7.70138 157.948 -7.13677 157.553C-5.9793 159.162 -4.51129 161.167 -3.26914 162.861C-4.70891 163.707 -6.62861 164.865 -8.40716 165.909C-8.57654 165.655 -8.77415 165.401 -8.97176 165.147V170.991C-7.67315 172.628 -6.431 174.181 -5.27353 175.649C-6.65684 175.847 -7.95545 176.411 -8.97176 177.202V186.236C-8.35069 186.8 -7.64492 187.252 -6.82623 187.506C-4.11607 188.353 -0.925984 187.28 0.175017 184.739C0.824327 183.271 1.05017 181.267 0.62671 179.743C0.203248 178.275 -1.26475 177.089 -2.30929 175.705C0.852565 175.226 3.11102 173.447 3.50626 170.088C3.90149 166.7 1.98179 164.554 -1.23652 163.143C2.54641 162.804 3.47803 162.211 5.84942 158.88C6.97865 163.058 8.78542 164.978 11.9473 165.232C14.5727 165.429 17.4805 163.792 18.1581 161.195C18.5533 159.642 18.4968 157.666 17.904 156.198C17.3111 154.786 15.7867 153.77 14.7139 152.641C17.7346 152.302 18.7791 151.625 20.9247 148.435C21.0376 148.914 21.1223 149.366 21.2352 149.761C22.0257 152.613 24.143 154.504 26.7684 154.786C29.4786 155.069 32.0194 153.516 33.2898 150.778C33.4592 150.439 33.6285 150.128 33.8262 149.79L33.7697 149.846C33.9955 146.402 32.7534 143.776 29.0269 142.196C32.4146 142.026 34.5037 140.643 35.9717 137.537C36.3105 141.236 38.2019 143.24 41.1379 144.369L41.0533 144.313C44.1869 144.539 46.7559 143.579 48.1957 140.586C49.7483 137.368 48.4497 134.319 44.9773 132.061C46.7559 131.044 48.7603 129.915 50.7929 128.758C51.3293 131.044 52.9384 132.71 55.2816 133.698C59.0928 134.122 61.8311 132.654 62.9321 129.605C64.0896 126.386 62.8474 123.789 58.8387 121.192C62.057 121.192 64.1178 119.554 65.5576 116.703C65.727 117.409 65.8399 117.861 65.9528 118.284C66.7715 121.389 69.2276 123.366 72.1354 123.309C75.0432 123.253 77.4428 121.22 78.1203 118.312C78.7696 115.489 77.4146 112.864 74.6197 111.367C74.1398 111.113 73.7728 110.69 73.3493 110.351C76.3135 110.944 79.0519 109.448 80.1812 106.625C81.4798 103.406 80.1812 100.499 76.5112 98.1837C77.6404 97.7602 79.0237 97.5061 80.0965 96.7721C81.1975 96.0099 81.9879 94.796 82.976 93.695C83.0889 94.2313 83.2019 94.7395 83.343 95.2477C84.1052 98.1554 86.5896 100.103 89.4409 100.047C92.3487 99.9904 94.7765 97.9578 95.3694 95.05C95.9622 92.1987 94.6071 89.5168 91.8405 88.1617C91.3606 87.9359 90.9371 87.5971 90.4854 87.2866C93.986 87.456 96.668 86.0727 97.3737 83.1931C97.769 81.6404 97.5431 79.7207 97.035 78.1962C96.4986 76.6718 95.2564 75.4014 94.7483 74.6392C96.5833 74.4698 98.9264 73.2276 99.8863 70.1222C100.903 66.8192 99.3499 64.5043 96.7244 62.4717C99.9992 61.653 102.145 59.8744 102.455 56.5997C102.766 53.3531 100.987 51.1794 98.6724 50.1066C100.507 49.0056 102.568 47.7634 104.544 46.5777C105.843 50.1348 108.017 51.8851 111.094 51.6875C113.776 51.5181 116.034 49.6549 116.684 47.0859C117.361 44.3757 116.345 41.3832 113.861 40.2822C112.364 39.6329 110.416 39.3789 108.864 39.7741C107.367 40.1411 106.154 41.5809 105.278 42.2302C103.867 40.4516 102.427 38.6166 101.326 37.2051C103.02 36.1323 104.968 34.9184 106.859 33.7045C108.045 37.2898 110.275 39.0683 113.409 38.8707C116.204 38.7013 118.462 36.7252 118.999 34.0432C119.591 31.1637 118.265 28.4818 115.696 27.2114C112.76 25.7998 109.993 26.7315 107.622 29.611C106.182 27.776 104.657 25.8281 103.274 24.0778C106.012 23.6543 108.384 21.9322 108.835 18.4598C109.259 15.1286 107.452 12.8984 104.149 11.3739C107.904 11.0916 110.36 9.48242 111.009 6.03826C111.659 2.50941 109.739 0.194474 106.436 -1.35822C107.198 -1.49938 107.65 -1.55583 108.101 -1.64053C110.247 -2.12045 111.828 -3.30614 112.703 -4.97176H101.495C102.201 -3.56022 103.387 -2.45923 104.883 -1.89461C103.02 -0.878304 100.987 0.250946 99.1805 1.21079C98.136 -0.172516 96.8091 -1.92283 95.6517 -3.4473C96.2727 -3.92722 96.9785 -4.43538 97.6843 -5H90.5136C90.796 -4.66123 91.05 -4.32246 91.3041 -3.98369C89.949 -3.10853 88.2552 -2.00753 86.646 -0.962991C85.7709 -2.23338 84.811 -3.61668 83.8794 -4.97176H76.1442C75.4102 -4.49184 74.6479 -3.98369 73.9139 -3.50377C73.6316 -3.95546 73.3211 -4.46361 73.0105 -4.97176H21.8563C22.3927 -4.20953 22.9291 -3.47554 23.5219 -2.68507C22.675 -2.12046 21.8845 -1.6123 21.0376 -1.04768C20.473 -1.83814 19.9931 -2.57213 19.4002 -3.41906C20.0495 -3.95544 20.7271 -4.46361 21.4328 -5ZM17.7064 9.0872C18.3557 8.57904 18.8074 8.21204 19.372 7.76034C19.8519 8.40965 20.3318 9.03072 20.8682 9.73649C20.2189 10.16 19.6261 10.5552 19.005 10.9787C18.5533 10.3011 18.1863 9.76474 17.7064 9.0872ZM29.8174 11.4586C30.6361 10.8093 31.3983 10.2164 32.3299 9.48243C32.9792 10.3011 33.6003 11.0916 34.2779 11.9385C33.318 12.5596 32.4428 13.1524 31.3983 13.8582C30.8055 12.9548 30.3255 12.2208 29.8174 11.4586ZM41.9849 13.35C42.9729 12.616 43.9893 11.8538 45.0338 11.0916C45.8243 12.1644 46.5583 13.1524 47.4052 14.3099C46.3889 14.9874 45.3161 15.7214 44.074 16.5401C43.3964 15.4674 42.7189 14.4793 41.9849 13.35ZM54.3217 15.5803C55.3945 14.7898 56.5802 13.9147 57.8506 12.983C58.754 14.2252 59.6291 15.4391 60.5043 16.653C59.3186 17.4717 58.0482 18.3469 56.7778 19.2503C56.0156 18.0928 55.1969 16.8789 54.3217 15.5803ZM15.335 21.7346C15.9843 21.2829 16.5489 20.8595 17.2264 20.3795C17.8193 21.1135 18.3839 21.7911 18.9767 22.5251C18.2992 23.0332 17.7064 23.4567 16.9159 24.0495C16.4077 23.2873 15.9278 22.5533 15.335 21.7346ZM27.6154 23.8237C28.3494 23.2308 29.0552 22.638 29.8739 21.9604C30.5514 22.8638 31.2007 23.739 31.9629 24.7553C31.0313 25.3199 30.2691 25.7998 29.4786 26.308C28.8575 25.4893 28.2647 24.7271 27.6154 23.8237ZM39.6982 26.1386C40.658 25.4328 41.6179 24.7271 42.7189 23.9084C43.4811 24.9247 44.2716 25.9692 45.0903 27.0138C44.0175 27.7195 42.9729 28.4253 41.8155 29.1875C41.1379 28.2277 40.4322 27.1831 39.6982 26.1386ZM55.5639 25.8281C56.4108 26.9573 57.286 28.143 58.2458 29.4134C57.0037 30.2603 55.7615 31.1072 54.5193 31.9542C53.7571 30.7967 52.9384 29.5828 52.1197 28.3124C53.1643 27.5501 54.3217 26.7032 55.5639 25.8281ZM0.62671 32.3494C1.27602 31.8412 1.84064 31.3895 2.51818 30.8814C2.96987 31.5871 3.36511 32.18 3.78857 32.8293C3.13926 33.281 2.57465 33.6762 1.92534 34.1279C1.50187 33.5351 1.10663 32.9987 0.62671 32.3494ZM13.0765 34.4949C13.8387 33.9303 14.5445 33.3939 15.2785 32.8293C15.8431 33.5915 16.3795 34.2973 17.0006 35.1442C16.2384 35.6806 15.5326 36.1888 14.6574 36.8381C14.0646 35.9629 13.6129 35.2854 13.0765 34.4949ZM25.4416 36.6687C26.2321 36.1323 26.9661 35.6242 27.7848 35.0595C28.4058 35.85 28.9987 36.584 29.7045 37.4592C28.8575 38.0238 28.0106 38.5602 27.1355 39.153C26.5426 38.3061 26.0062 37.5156 25.4416 36.6687ZM37.4115 38.8989C38.3996 38.1932 39.3594 37.4874 40.4604 36.6969C41.2791 37.7979 42.0131 38.8142 42.8036 39.8588C41.7026 40.5928 40.6016 41.355 39.5006 42.089C38.7948 40.988 38.089 39.9435 37.4115 38.8989ZM53.3054 38.6166C54.1523 39.7459 55.0275 40.9033 55.9309 42.1455C54.7452 42.9642 53.503 43.8393 52.2044 44.7427C51.3857 43.5288 50.5953 42.2866 49.8048 41.1009C50.934 40.3105 52.0915 39.4918 53.3054 38.6166ZM-1.80114 45.0533C-1.06714 44.5169 -0.530748 44.1216 0.146791 43.6417C0.654946 44.291 1.13487 44.9121 1.69948 45.6461C1.02194 46.126 0.400869 46.5495 -0.304902 47.0294C-0.784825 46.4083 -1.2083 45.8437 -1.80114 45.0533ZM10.7333 47.2835C11.4956 46.6907 12.2013 46.1543 13.02 45.5614C13.6129 46.3237 14.2057 47.0859 14.8268 47.9328C13.9799 48.4974 13.1894 49.0338 12.2578 49.6831C11.665 48.7797 11.2415 48.074 10.7333 47.2835ZM23.0702 49.4008C23.8889 48.8362 24.6794 48.328 25.4981 47.7634C26.2038 48.6668 26.8814 49.4573 27.6436 50.4171C26.6838 51.0947 25.9215 51.6593 25.0181 52.3086C24.3688 51.3487 23.776 50.4171 23.0702 49.4008ZM35.2942 51.5746C36.1693 50.897 37.1292 50.163 38.1455 49.3726C38.9359 50.4171 39.7264 51.4899 40.5733 52.6473C39.6417 53.2684 38.6536 53.946 37.5809 54.6517C36.7904 53.579 36.0564 52.6191 35.2942 51.5746ZM50.9905 51.3487C51.8657 52.5062 52.769 53.7484 53.7007 54.9623C52.4303 55.8374 51.1317 56.7408 49.8895 57.5877C49.1273 56.4303 48.2803 55.1881 47.4334 53.8895C48.5344 53.099 49.7201 52.2521 50.9905 51.3487ZM-4.20076 57.8136C-3.4103 57.249 -2.76099 56.7691 -2.05522 56.2609C-1.4906 56.9949 -1.01067 57.6442 -0.446054 58.4064C-1.15182 58.9146 -1.80114 59.3945 -2.67629 60.0156C-3.15622 59.3098 -3.63614 58.604 -4.20076 57.8136ZM8.24903 60.0156C9.06773 59.4227 9.82996 58.8581 10.7051 58.2088C11.3544 59.0557 11.9755 59.8744 12.653 60.7496C11.7779 61.3424 10.931 61.9071 9.97112 62.5564C9.32181 61.5965 8.81365 60.8625 8.24903 60.0156ZM20.7271 62.2176C21.6587 61.5401 22.5903 60.8625 23.5784 60.1285C24.3971 61.2013 25.1028 62.1329 25.8086 63.0928C24.8205 63.7703 23.8324 64.4478 22.7032 65.2101C22.0539 64.222 21.4328 63.2904 20.7271 62.2176ZM33.0075 64.3914C34.052 63.7138 35.0965 63.0363 36.0846 62.3587C36.8751 63.3751 37.6091 64.3349 38.4278 65.3794C37.4115 66.057 36.3387 66.791 35.2377 67.4968C34.5037 66.4522 33.7697 65.4359 33.0075 64.3914ZM48.7603 63.9679C49.6354 65.1818 50.567 66.4522 51.4987 67.7226C50.1436 68.6542 48.8732 69.5576 47.631 70.4328C46.8123 69.2188 45.9089 67.8638 45.0338 66.5651C46.2195 65.7747 47.4899 64.8713 48.7603 63.9679ZM-6.68507 70.6021C-5.89461 70.0093 -5.13238 69.4165 -4.31368 68.8236C-3.63614 69.7552 -3.09976 70.4892 -2.53514 71.2797C-3.35383 71.8443 -4.17252 72.3807 -5.04768 72.9735C-5.58407 72.1549 -6.09223 71.4208 -6.68507 70.6021ZM5.79296 72.7477C6.69634 72.0702 7.51503 71.4773 8.44665 70.7998C9.12419 71.6749 9.7735 72.5501 10.5357 73.5664C9.54766 74.2439 8.6725 74.8368 7.65619 75.5425C7.06334 74.6392 6.44226 73.7358 5.79296 72.7477ZM18.271 74.9497C19.2591 74.2439 20.2754 73.5382 21.3199 72.7759C22.0821 73.7922 22.8444 74.8085 23.6631 75.8813C22.4774 76.7 21.4328 77.4058 20.3601 78.1398C19.6825 77.0953 19.005 76.0507 18.271 74.9497ZM30.6078 77.1517C31.6241 76.4742 32.6969 75.7684 33.8262 75.0062C34.5884 75.9942 35.3506 77.0106 36.1129 78.0269C35.0119 78.902 33.9955 79.6642 32.951 80.4829C32.217 79.4384 31.4548 78.3374 30.6078 77.1517ZM43.2553 79.0996C44.328 78.2527 45.4008 77.4058 46.5018 76.5589C47.3487 77.801 48.1956 79.0149 49.0426 80.2571C47.9698 80.9911 46.8406 81.7533 45.6266 82.5438C44.7797 81.3299 44.0457 80.2289 43.2553 79.0996ZM59.4033 78.3092C60.4478 79.6642 61.577 81.1323 62.5651 82.4591C61.0971 83.419 59.488 84.4917 57.9071 85.5363C57.1448 84.2941 56.2697 82.8261 55.451 81.471C56.8061 80.37 58.2176 79.269 59.4033 78.3092ZM3.22395 85.508C4.21203 84.8023 5.20011 84.0965 6.24465 83.3343C6.8375 84.1812 7.43034 85.0563 8.13611 86.0162C7.1198 86.7784 6.21642 87.4559 5.22834 88.2464C4.60726 87.3995 3.95795 86.5243 3.22395 85.508ZM16.0972 87.5406C17.057 86.8066 17.9887 86.0726 19.0897 85.254C19.8237 86.3549 20.5012 87.3148 21.207 88.3593C20.1342 89.178 19.0897 89.9685 18.0451 90.7589C17.3958 89.7144 16.7465 88.6416 16.0972 87.5406ZM28.5188 89.7709C29.7327 88.8393 30.8619 87.9641 32.0194 87.089C32.8663 88.2182 33.7415 89.3757 34.6166 90.5331C33.2898 91.4647 31.9911 92.3681 30.6925 93.2997C30.015 92.1987 29.281 91.013 28.5188 89.7709ZM40.5733 91.6341C41.759 90.8719 43.0576 89.9967 44.3845 89.1498C45.3161 90.3355 46.3606 91.6624 47.377 92.961C46.1066 93.7514 44.7233 94.5701 43.3117 95.4453C42.3801 94.1467 41.4767 92.8763 40.5733 91.6341ZM57.0601 90.7025C58.1894 92.1987 59.4315 93.8644 60.5043 95.2477C58.9798 96.2357 57.286 97.365 55.6486 98.4095C54.7734 97.0544 53.7289 95.4453 52.6843 93.8361C54.0394 92.848 55.6204 91.7188 57.0601 90.7025ZM1.05018 98.0143C2.06649 97.2521 3.05457 96.4898 4.12734 95.6711C4.88957 96.6592 5.65179 97.6473 6.41403 98.6636C5.25656 99.5105 4.12733 100.357 2.9981 101.176C2.34879 100.16 1.69949 99.0871 1.05018 98.0143ZM13.1894 99.934C14.3469 99.1435 15.5326 98.3248 16.803 97.4497C17.6499 98.5789 18.5815 99.7928 19.4849 100.979C18.1863 101.882 16.9159 102.785 15.6737 103.632C14.8833 102.475 14.0646 101.233 13.1894 99.934ZM25.6957 102.108C26.9096 101.261 28.2647 100.329 29.5915 99.3976C30.5231 100.668 31.5395 102.023 32.5275 103.35C31.116 104.338 29.7327 105.326 28.4058 106.258C27.5589 104.931 26.6273 103.519 25.6957 102.108ZM-1.88583 110.436C-0.756598 109.674 0.457329 108.827 1.75595 107.952C2.6311 109.137 3.47803 110.295 4.38141 111.48C3.19572 112.327 1.95356 113.231 0.62671 114.162C-0.135522 112.977 -1.01068 111.706 -1.88583 110.436ZM10.6769 112.61C11.8908 111.763 13.2177 110.859 14.5445 109.928C15.4761 111.198 16.436 112.525 17.3958 113.852C16.1254 114.727 14.7421 115.715 13.3306 116.675C12.4837 115.348 11.5803 113.965 10.6769 112.61ZM23.1549 114.896C24.51 113.965 26.0344 112.892 27.3895 111.96C28.4341 113.372 29.5351 114.84 30.5514 116.195C29.1398 117.127 27.5307 118.199 26.0345 119.187C25.1028 117.748 24.0865 116.28 23.1549 114.896ZM40.1781 113.824C41.3356 115.376 42.6624 117.098 43.7069 118.51C42.1825 119.526 40.3757 120.74 38.6819 121.869C37.8067 120.458 36.7057 118.707 35.6894 117.07C37.1292 116.026 38.7948 114.812 40.1781 113.824ZM-4.4266 123.111C-3.12798 122.208 -1.80113 121.305 -0.502517 120.401C0.513793 121.756 1.50187 123.111 2.40525 124.325C1.02194 125.285 -0.361368 126.273 -1.68822 127.233C-2.56337 125.935 -3.49498 124.523 -4.4266 123.111ZM8.10788 125.37C9.43473 124.467 10.9027 123.45 12.3143 122.462C13.3588 123.874 14.5163 125.37 15.4761 126.669C14.0081 127.685 12.4272 128.729 10.9592 129.717C10.084 128.334 9.06773 126.81 8.10788 125.37ZM-6.99561 135.815C-5.6123 134.856 -4.08783 133.811 -2.73275 132.879C-1.63175 134.347 -0.474289 135.872 0.542021 137.17C-0.897751 138.13 -2.53514 139.231 -4.05961 140.276C-5.01945 138.78 -6.03577 137.255 -6.99561 135.815ZM5.5671 138.017C6.97865 137.029 8.64426 135.844 10.1123 134.827C11.2133 136.324 12.4554 138.017 13.5282 139.485C12.0602 140.473 10.2252 141.716 8.5878 142.845C7.65618 141.377 6.58341 139.655 5.5671 138.017ZM11.8061 152.556C9.51943 152.867 7.37387 154.194 6.47049 156.509C5.31303 154.589 4.04264 152.472 2.96987 150.637C4.49434 149.592 6.3858 148.265 7.8538 147.249C9.0395 148.858 10.451 150.778 11.8061 152.556ZM26.5426 141.744C24.9335 142.901 22.9291 144.313 21.2917 145.499C20.3883 144.002 19.1461 141.941 18.1016 140.191C19.6543 139.118 21.4893 137.82 22.9291 136.803C24.0301 138.384 25.4134 140.248 26.5426 141.744ZM41.8437 131.581C39.5853 131.863 37.4679 133.218 36.5645 135.392C35.4353 133.557 34.1932 131.524 33.1486 129.774C34.7013 128.645 36.4798 127.374 37.9478 126.302C39.1053 127.882 40.5169 129.774 41.8437 131.581ZM28.6035 128.983C27.1072 130 25.3287 131.214 23.6913 132.315C22.7597 130.847 21.6587 129.125 20.6988 127.572C22.1386 126.556 23.7478 125.398 25.1593 124.382C26.2603 125.906 27.5307 127.6 28.6035 128.983ZM56.4673 120.853C54.8864 121.785 52.9667 122.942 51.301 123.93C50.2847 122.547 49.0708 120.825 47.9133 119.216C49.3531 118.34 51.1317 117.268 52.6279 116.336C53.87 117.804 55.2816 119.47 56.4673 120.853ZM73.2929 110.295C71.9095 110.69 70.3851 110.803 69.2276 111.537C67.8443 112.412 66.7998 113.852 65.727 114.896C65.7552 112.299 64.3154 110.097 62.1981 108.968C64.0896 107.613 66.0658 106.201 67.9008 104.874C68.4936 107.387 69.6793 109.984 73.2929 110.295ZM58.4717 108.149C57.1166 108.94 55.3098 109.956 53.5877 110.944C52.5996 109.589 51.414 107.923 50.3977 106.512C51.8374 105.439 53.4466 104.225 54.7734 103.237C55.9309 104.761 57.286 106.54 58.4717 108.149ZM45.429 105.806C44.1022 106.738 42.6059 107.782 41.1097 108.855C40.1781 107.415 39.1618 105.891 38.1455 104.338C39.3594 103.548 40.7709 102.616 42.0978 101.741C43.1988 103.068 44.3845 104.536 45.429 105.806ZM73.5469 97.5908C71.9378 98.6918 69.9051 100.075 68.296 101.176C67.3079 99.6234 66.094 97.6755 65.0212 95.9817C66.5175 94.9371 68.3525 93.6385 69.9052 92.5375C71.0062 94.0902 72.3895 95.9817 73.5469 97.5908ZM90.2878 87.2019C87.2389 87.823 84.2464 88.5287 83.1736 92.227C83.0043 89.1216 81.6774 86.8067 79.3907 85.7057C81.2822 84.407 83.2583 82.9955 85.2345 81.6122C85.5732 84.1812 87.2106 86.3267 90.2878 87.2019ZM75.7772 84.8023C74.2809 85.7621 72.333 87.0043 70.5262 88.1617C69.6793 86.7784 68.5783 84.9999 67.5338 83.306C69.0018 82.205 70.6674 80.9911 72.1072 79.9466C73.2929 81.4993 74.6479 83.3343 75.7772 84.8023ZM91.3888 74.6674C88.8763 74.7521 86.7307 76.3048 85.7144 78.6197C84.7263 76.7847 83.6536 74.8085 82.7502 73.0865C84.1335 71.9572 85.8273 70.5739 87.2389 69.4165C88.4528 70.9409 89.949 72.8324 91.3888 74.6674ZM77.3863 72.1548C76.0312 73.1429 74.4221 74.3004 72.9259 75.3732C72.0789 73.9616 71.1191 72.3807 70.2439 70.8845C71.599 69.8399 73.067 68.6825 74.4503 67.6379C75.3819 69.0495 76.4265 70.6868 77.3863 72.1548ZM64.2872 69.7835C62.9604 70.7715 61.5771 71.7596 60.1937 72.7759C59.3186 71.5338 58.3587 70.1505 57.4271 68.8518C58.8387 67.8355 60.2785 66.8192 61.6335 65.8594C62.5087 67.1298 63.4121 68.4848 64.2872 69.7835ZM92.631 61.6812C91.163 62.8104 89.4127 64.1655 87.8317 65.3512C86.8154 63.855 85.545 61.9918 84.5287 60.4673C86.1379 59.3098 88.0011 57.9547 89.582 56.8255C90.4289 58.2371 91.5864 60.0438 92.631 61.6812ZM80.1247 59.705C78.6567 60.6649 76.8782 61.7941 75.2408 62.8387C74.3092 61.4271 73.2646 59.818 72.2483 58.2653C73.6316 57.249 75.2408 56.0633 76.6523 55.0187C77.7533 56.515 79.0519 58.2653 80.1247 59.705ZM66.8844 57.3337C65.5294 58.2371 64.0614 59.1969 62.5651 60.185C61.7182 58.9428 60.7584 57.4748 59.8267 56.0633C61.0971 55.1317 62.4805 54.1436 63.8355 53.1555C64.8801 54.567 65.9246 56.0068 66.8844 57.3337ZM95.5105 49.2596C93.8731 50.3324 91.8405 51.6875 90.1749 52.7885C89.1586 51.2358 87.9164 49.2879 86.8719 47.7069C88.3963 46.6059 90.2313 45.3073 91.7276 44.2346C92.9133 45.8155 94.3813 47.7352 95.5105 49.2596ZM82.3267 46.9447C80.8869 47.8481 79.1931 48.9209 77.471 49.9937C76.6241 48.7233 75.5795 47.1141 74.5632 45.5332C76.0312 44.4604 77.5557 43.3029 78.939 42.2866C80.0118 43.7829 81.2539 45.4767 82.3267 46.9447ZM69.0865 44.5733C67.7032 45.505 66.2634 46.493 64.9083 47.4246C64.0614 46.126 63.1015 44.7145 62.1981 43.3029C63.4968 42.3713 64.8518 41.355 66.1505 40.4234C67.1103 41.8067 68.1266 43.2183 69.0865 44.5733ZM97.8819 36.4993C96.3292 37.4874 94.2401 38.786 92.4333 39.9153C91.5017 38.4755 90.2596 36.5558 89.215 34.9184C90.7395 33.8174 92.5745 32.4623 93.986 31.446C95.2564 33.0834 96.7527 35.0313 97.8819 36.4993ZM84.5852 34.2126C83.1736 35.0878 81.4516 36.1888 79.8142 37.2051C78.9108 35.85 77.8662 34.2691 76.8782 32.7729C78.3179 31.6719 79.8989 30.4861 81.1975 29.4981C82.2703 30.9943 83.4559 32.6599 84.5852 34.2126ZM71.3449 31.7565C69.9616 32.7164 68.5501 33.6762 67.1668 34.6078C66.3198 33.3375 65.3882 31.9259 64.4566 30.5144C65.6705 29.6392 66.9974 28.7076 68.4089 27.6631C69.3123 28.9617 70.3286 30.345 71.3449 31.7565ZM99.858 23.7955C98.3336 24.8118 96.3857 26.1386 94.7483 27.2396C93.7037 25.6304 92.4616 23.7672 91.3606 22.0734C92.6874 21.2264 94.4095 20.1537 95.8775 19.2503C97.1761 20.6901 98.6441 22.3839 99.858 23.7955ZM86.8719 21.3958C85.4039 22.3274 83.6818 23.4284 82.1009 24.4447C81.1975 23.0897 80.1247 21.4805 79.1366 19.9843C80.5764 18.8833 82.1573 17.6976 83.5124 16.7095C84.6134 18.234 85.8273 19.956 86.8719 21.3958ZM73.6598 18.9962C72.3048 19.9278 70.865 20.9159 69.4535 21.8758C68.6065 20.6054 67.6467 19.1938 66.7151 17.7823C67.9855 16.8507 69.3405 15.8626 70.6956 14.8745C71.6837 16.2578 72.6718 17.6411 73.6598 18.9962ZM102.173 11.0351C100.705 11.8256 98.7288 12.8983 96.8656 13.8864C95.821 12.4749 94.5507 10.781 93.4779 9.3695C94.9177 8.46611 96.668 7.39333 98.2207 6.40526C99.4911 7.90149 100.987 9.6518 102.173 11.0351ZM89.215 8.66373C87.7753 9.56712 86.0249 10.6681 84.3593 11.7126C83.3995 10.3011 82.3267 8.69195 81.3104 7.19571C82.7502 6.12294 84.3876 4.90902 85.7991 3.89271C86.8719 5.41718 88.1423 7.1675 89.215 8.66373ZM75.9748 6.26411C74.6197 7.1675 73.1517 8.15557 71.7119 9.14365C70.865 7.84503 69.9052 6.40526 68.9453 4.99371C70.3004 3.9774 71.6837 2.93287 72.9541 1.97302C73.9986 3.44102 75.0149 4.8808 75.9748 6.26411ZM62.9039 3.92095C61.6618 4.73965 60.3631 5.61479 59.0363 6.48994C58.2176 5.27602 57.3707 4.03387 56.5237 2.79171C57.653 1.97302 58.8669 1.09786 60.1655 0.166246C61.0124 1.35194 61.9723 2.62233 62.9039 3.92095ZM49.7766 1.52134C48.6473 2.28357 47.4899 3.04579 46.3324 3.80803C45.7396 2.87641 45.1185 1.94479 44.4409 0.872016C45.4855 0.0250921 46.4171 -0.708899 47.4334 -1.49936C48.2239 -0.483053 48.9861 0.505025 49.7766 1.52134ZM31.6806 -1.18884C32.6969 -1.92284 33.5439 -2.54391 34.5037 -3.24968C35.0966 -2.43099 35.6894 -1.61229 36.3387 -0.708903C35.4353 -0.0595937 34.5602 0.617949 33.5721 1.32372C32.9228 0.476795 32.3299 -0.341918 31.6806 -1.18884Z" fill="#CB6CE6" fill-opacity="0.34"/>
<path d="M40.9968 144.313C42.2955 145.132 43.7917 145.781 44.8645 146.854C46.643 148.66 46.7559 151.596 45.5138 153.798C44.2434 156.029 41.7308 157.243 39.2183 156.819C36.5928 156.396 34.7014 154.617 34.1367 152.02C33.9674 151.286 33.9109 150.524 33.798 149.79L33.7415 149.846C34.9272 146.317 37.2986 144.398 41.1098 144.341L40.9968 144.313Z" fill="#CB6CE6" fill-opacity="0.34"/>
<path d="M55.1687 133.698C58.8387 134.686 61.2666 136.747 61.5207 140.812L61.5771 140.756C59.9397 144.962 57.9071 146.656 54.7453 146.43C51.6399 146.204 49.2685 143.833 49.0144 140.727C48.7886 137.763 50.7083 135.109 53.6443 134.319C54.2089 134.178 54.717 133.924 55.2534 133.726C55.2534 133.698 55.1687 133.698 55.1687 133.698Z" fill="#CB6CE6" fill-opacity="0.34"/>
<path d="M24.5945 167.632C20.0211 165.853 18.2991 163.425 19.0895 159.84C19.7388 156.904 22.449 154.871 25.4415 155.069C28.4904 155.266 30.8335 157.525 31.2005 160.546C31.5393 163.51 29.6761 166.333 26.7683 167.123C26.0343 167.321 25.2721 167.434 24.5381 167.575L24.5945 167.632Z" fill="#CB6CE6" fill-opacity="0.34"/>
<path d="M108.666 64.3349C105.448 64.3349 102.766 61.4835 102.822 58.1241C102.879 54.7646 105.561 52.1109 108.948 52.1109C112.421 52.1109 115.103 54.8775 115.046 58.3499C114.962 61.7941 112.251 64.3349 108.666 64.3349Z" fill="#CB6CE6" fill-opacity="0.34"/>
<path d="M106.887 64.4479C110.021 64.4196 112.675 67.1863 112.731 70.4611C112.759 73.8488 110.162 76.5589 106.774 76.6154C103.387 76.6718 100.648 74.0746 100.564 70.6869C100.479 67.1016 103.133 64.4761 106.887 64.4479Z" fill="#CB6CE6" fill-opacity="0.34"/>
<path d="M111.489 7.19564C111.489 3.80794 114.143 1.15424 117.531 1.12601C121.003 1.09778 123.742 3.83618 123.657 7.3368C123.6 10.7245 120.89 13.3217 117.503 13.2935C114.115 13.2653 111.489 10.5833 111.489 7.19564Z" fill="#CB6CE6" fill-opacity="0.34"/>
<path d="M16.1256 171.725C16.1256 175.113 13.4719 177.766 10.0842 177.795C6.61183 177.823 3.90166 175.056 3.95813 171.584C4.01459 168.196 6.72475 165.599 10.1407 165.627C13.5284 165.655 16.1538 168.309 16.1256 171.725Z" fill="#CB6CE6" fill-opacity="0.34"/>
<path d="M87.1541 112.638C83.7946 112.694 81.0563 110.097 80.9433 106.738C80.8304 103.294 83.5123 100.47 86.9565 100.414C90.4289 100.358 93.1673 103.068 93.1673 106.54C93.139 109.928 90.5136 112.581 87.1541 112.638Z" fill="#CB6CE6" fill-opacity="0.34"/>
<path d="M69.6793 135.872C66.2351 135.844 63.5249 133.049 63.6096 129.605C63.6943 126.245 66.4045 123.62 69.7639 123.648C73.2081 123.676 75.9183 126.471 75.8336 129.915C75.7489 133.303 73.0387 135.9 69.6793 135.872Z" fill="#CB6CE6" fill-opacity="0.34"/>
<path d="M115.385 26.0821C112.026 26.1386 109.287 23.5413 109.203 20.1818C109.09 16.7377 111.772 13.9146 115.216 13.8864C118.688 13.8299 121.427 16.5683 121.398 20.0125C121.398 23.3437 118.745 26.0256 115.385 26.0821Z" fill="#CB6CE6" fill-opacity="0.34"/>
<path d="M104.262 89.3474C100.875 89.291 98.2774 86.6373 98.3338 83.1931C98.3903 79.8054 101.044 77.2082 104.488 77.2646C107.876 77.3211 110.473 79.9748 110.417 83.419C110.36 86.7784 107.678 89.3757 104.262 89.3474Z" fill="#CB6CE6" fill-opacity="0.34"/>
<path d="M78.7697 119.329C78.7415 115.913 81.3669 113.259 84.7829 113.259C88.1988 113.259 90.8243 115.884 90.796 119.329C90.7678 122.66 88.227 125.229 84.8958 125.285C81.4516 125.342 78.7979 122.745 78.7697 119.329Z" fill="#CB6CE6" fill-opacity="0.34"/>
<path d="M125.83 -5H113.889C114.171 -1.83815 116.712 0.505012 119.958 0.44855C123.12 0.420319 125.548 -1.89461 125.83 -5Z" fill="#CB6CE6" fill-opacity="0.34"/>
<path d="M61.5204 140.784C62.7344 138.356 64.4282 136.549 67.3924 136.549C70.7237 136.549 73.3491 139.062 73.4056 142.337C73.4903 145.668 71.006 148.35 67.7594 148.491C64.4 148.632 61.718 146.289 61.4922 142.986C61.4357 142.252 61.5486 141.49 61.5486 140.728C61.5769 140.728 61.5204 140.784 61.5204 140.784Z" fill="#CB6CE6" fill-opacity="0.34"/>
<path d="M46.8688 153.036C46.8688 149.62 49.4661 146.995 52.882 147.023C56.2979 147.023 58.8952 149.677 58.8387 153.093C58.8105 156.396 56.2415 158.965 52.9385 158.993C49.5508 159.021 46.8971 156.452 46.8688 153.036Z" fill="#CB6CE6" fill-opacity="0.34"/>
<path d="M24.5382 167.575C26.9661 168.789 28.7728 170.483 28.7728 173.447C28.7728 176.778 26.2603 179.404 22.9855 179.46C19.6543 179.545 16.9723 177.061 16.8312 173.786C16.69 170.426 19.0332 167.744 22.3362 167.519C23.0702 167.462 23.8324 167.575 24.5947 167.575C24.5947 167.632 24.5382 167.575 24.5382 167.575Z" fill="#CB6CE6" fill-opacity="0.34"/>
<path d="M102.032 102.023C98.6156 101.995 96.0184 99.3411 96.1031 95.897C96.1595 92.594 98.785 90.0532 102.116 90.0814C105.532 90.1096 108.129 92.7916 108.045 96.2075C107.988 99.5105 105.391 102.051 102.032 102.023Z" fill="#CB6CE6" fill-opacity="0.34"/>
<path d="M43.8201 163.566C43.7919 166.954 41.11 169.523 37.6658 169.467C34.2781 169.41 31.7374 166.7 31.822 163.256C31.9067 159.953 34.5322 157.468 37.8634 157.468C41.2794 157.497 43.8766 160.15 43.8201 163.566Z" fill="#CB6CE6" fill-opacity="0.34"/>
<path d="M93.8732 108.686C93.9297 105.411 96.5834 102.842 99.8582 102.87C103.218 102.898 105.843 105.665 105.73 109.024C105.617 112.271 102.907 114.812 99.6323 114.727C96.3576 114.671 93.8168 111.989 93.8732 108.686Z" fill="#CB6CE6" fill-opacity="0.34"/>
<path d="M119.845 34.9748C119.845 31.7 122.471 29.0745 125.745 29.0745C129.105 29.0463 131.787 31.7565 131.702 35.1442C131.646 38.419 128.964 40.988 125.689 40.9315C122.414 40.9033 119.845 38.2496 119.845 34.9748Z" fill="#CB6CE6" fill-opacity="0.34"/>
<path d="M128.117 28.1711C124.842 28.1994 122.16 25.6021 122.132 22.3273C122.104 19.0526 124.701 16.3707 127.976 16.3424C131.25 16.3142 133.932 18.9114 133.961 22.1862C134.017 25.461 131.42 28.1147 128.117 28.1711Z" fill="#CB6CE6" fill-opacity="0.34"/>
<path d="M124.871 72.8323C124.871 76.0789 122.189 78.7326 118.942 78.7326C115.696 78.7326 113.07 76.0789 113.042 72.7759C113.014 69.5576 115.724 66.8756 118.97 66.8756C122.217 66.9039 124.871 69.5858 124.871 72.8323Z" fill="#CB6CE6" fill-opacity="0.34"/>
<path d="M115.272 59.7615C115.244 56.7972 118.038 54.1435 121.229 54.1435C124.503 54.1435 127.157 56.7407 127.185 60.0155C127.213 63.2903 124.644 65.944 121.37 66.0005C117.869 66.0287 115.272 63.375 115.272 59.7615Z" fill="#CB6CE6" fill-opacity="0.34"/>
<path d="M1.84051 184.09C1.78405 180.702 4.40951 178.049 7.82544 178.049C11.0438 178.02 13.6975 180.702 13.6975 183.977C13.6975 187.252 11.1002 189.877 7.82544 189.906C4.55066 189.962 1.89697 187.365 1.84051 184.09Z" fill="#CB6CE6" fill-opacity="0.34"/>
<path d="M117.559 47.7352C117.587 44.4604 120.184 41.835 123.459 41.835C126.818 41.835 129.5 44.5452 129.416 47.9046C129.359 51.1794 126.677 53.7484 123.402 53.6919C120.128 53.6355 117.559 51.01 117.559 47.7352Z" fill="#CB6CE6" fill-opacity="0.34"/>
<path d="M76.5674 132.061C76.5674 128.786 79.1364 126.132 82.4112 126.104C85.7707 126.076 88.4808 128.758 88.4244 132.117C88.3679 135.392 85.7425 137.989 82.4677 137.961C79.1929 137.961 76.5674 135.335 76.5674 132.061Z" fill="#CB6CE6" fill-opacity="0.34"/>
<path d="M35.5203 181.69C32.302 181.662 29.6201 178.924 29.6765 175.705C29.733 172.487 32.4996 169.833 35.7179 169.918C38.8515 170.003 41.4488 172.657 41.4488 175.79C41.4488 179.008 38.7386 181.719 35.5203 181.69Z" fill="#CB6CE6" fill-opacity="0.34"/>
<path d="M64.8517 160.715C61.6051 160.517 59.0926 157.666 59.2902 154.448C59.4878 151.258 62.4238 148.689 65.6139 148.943C68.7757 149.197 71.2318 151.963 71.0624 155.097C70.8931 158.315 68.07 160.912 64.8517 160.715Z" fill="#CB6CE6" fill-opacity="0.34"/>
<path d="M136.248 9.65178C136.135 12.8983 133.34 15.4956 130.093 15.3826C126.847 15.2415 124.25 12.4184 124.447 9.17186C124.617 6.01001 127.327 3.49745 130.46 3.55391C133.707 3.6386 136.332 6.40524 136.248 9.65178Z" fill="#CB6CE6" fill-opacity="0.34"/>
<path d="M50.5669 171.217C47.3204 171.217 44.6385 168.478 44.695 165.232C44.7514 161.985 47.4898 159.332 50.7363 159.416C53.8982 159.473 56.4954 162.126 56.4954 165.288C56.5237 168.535 53.8417 171.217 50.5669 171.217Z" fill="#CB6CE6" fill-opacity="0.34"/>
<path d="M80.0967 150.665C76.9631 150.608 74.3094 147.87 74.3377 144.765C74.3659 141.546 77.2454 138.808 80.4073 138.977C83.5409 139.118 86.1381 141.885 86.0252 144.99C85.9688 148.096 83.2021 150.721 80.0967 150.665Z" fill="#CB6CE6" fill-opacity="0.34"/>
<path d="M138.478 -3.10855C138.506 -3.75786 138.365 -4.37892 138.196 -4.97177H127.016C126.847 -4.46362 126.734 -3.95545 126.734 -3.41907C126.649 -0.200754 129.331 2.5941 132.578 2.62233C135.711 2.62233 138.393 0.0250731 138.478 -3.10855Z" fill="#CB6CE6" fill-opacity="0.34"/>
<path d="M20.5577 192.108C17.4523 192.136 14.7421 189.482 14.6574 186.349C14.601 183.158 17.3958 180.364 20.5859 180.392C23.7195 180.448 26.3732 183.158 26.3732 186.264C26.3732 189.397 23.6913 192.108 20.5577 192.108Z" fill="#CB6CE6" fill-opacity="0.34"/>
<path d="M109.005 98.3248C109.005 95.2194 111.687 92.5374 114.792 92.481C117.982 92.4527 120.777 95.2476 120.693 98.4377C120.608 101.543 117.898 104.197 114.792 104.169C111.659 104.14 109.005 101.43 109.005 98.3248Z" fill="#CB6CE6" fill-opacity="0.34"/>
<path d="M97.2891 127.431C94.0426 127.29 91.4454 124.41 91.643 121.192C91.8688 118.03 94.6354 115.517 97.7408 115.659C100.987 115.8 103.585 118.679 103.387 121.898C103.189 125.059 100.395 127.572 97.2891 127.431Z" fill="#CB6CE6" fill-opacity="0.34"/>
<path d="M111.235 85.2539C111.433 82.0074 114.369 79.4384 117.531 79.6924C120.692 79.9465 123.177 82.7696 122.979 85.875C122.782 89.1215 119.846 91.6906 116.684 91.4365C113.522 91.1824 111.066 88.3593 111.235 85.2539Z" fill="#CB6CE6" fill-opacity="0.34"/>
<path d="M-0.276544 196.681C-0.220083 193.547 2.51831 190.894 5.6237 190.978C8.78555 191.063 11.411 193.83 11.2699 196.935C11.1569 200.012 8.53148 202.525 5.48255 202.525C2.34892 202.525 -0.333006 199.815 -0.276544 196.681Z" fill="#CB6CE6" fill-opacity="0.34"/>
<path d="M95.3126 140.106C92.179 140.163 89.4688 137.481 89.4688 134.347C89.4688 131.214 92.1508 128.532 95.2844 128.56C98.3333 128.588 100.931 131.157 101.015 134.206C101.1 137.312 98.4745 140.05 95.3126 140.106Z" fill="#CB6CE6" fill-opacity="0.34"/>
<path d="M138.647 42.9924C135.486 43.0488 132.804 40.4234 132.832 37.2615C132.832 34.1843 135.344 31.6154 138.45 31.5589C141.612 31.5024 144.294 34.1279 144.265 37.2897C144.237 40.3669 141.725 42.9359 138.647 42.9924Z" fill="#CB6CE6" fill-opacity="0.34"/>
<path d="M47.9699 183.779C44.7516 183.554 42.352 180.787 42.6061 177.625C42.8884 174.52 45.5703 172.177 48.6474 172.374C51.8658 172.6 54.2654 175.367 54.0113 178.529C53.729 181.634 51.0471 183.977 47.9699 183.779Z" fill="#CB6CE6" fill-opacity="0.34"/>
<path d="M106.831 111.198C106.746 108.036 109.372 105.354 112.562 105.354C115.639 105.354 118.208 107.867 118.293 110.972C118.377 114.134 115.752 116.816 112.562 116.816C109.485 116.816 106.916 114.303 106.831 111.198Z" fill="#CB6CE6" fill-opacity="0.34"/>
<path d="M63.045 173.278C59.8267 173.08 57.3988 170.285 57.6811 167.152C57.9352 164.046 60.6171 161.675 63.6943 161.872C66.9126 162.07 69.3404 164.865 69.0581 167.999C68.7758 171.132 66.0939 173.475 63.045 173.278Z" fill="#CB6CE6" fill-opacity="0.34"/>
<path d="M140.793 30.2039C137.659 30.1756 135.147 27.6631 135.147 24.5295C135.119 21.3111 137.772 18.7421 140.991 18.8268C144.124 18.9115 146.58 21.4805 146.524 24.6142C146.439 27.7196 143.898 30.2321 140.793 30.2039Z" fill="#CB6CE6" fill-opacity="0.34"/>
<path d="M135.909 55.2728C132.691 55.047 130.291 52.2803 130.545 49.1185C130.827 45.9849 133.509 43.67 136.586 43.8676C139.805 44.0934 142.204 46.86 141.95 50.0219C141.668 53.1555 138.986 55.4987 135.909 55.2728Z" fill="#CB6CE6" fill-opacity="0.34"/>
<path d="M72.2486 157.073C72.2768 153.94 74.7894 151.427 77.8947 151.427C81.1131 151.399 83.6821 154.052 83.5974 157.271C83.5127 160.404 80.9437 162.86 77.8101 162.804C74.7329 162.748 72.2203 160.207 72.2486 157.073Z" fill="#CB6CE6" fill-opacity="0.34"/>
<path d="M128.258 62.0199C128.456 58.8016 131.251 56.3737 134.413 56.656C137.518 56.9101 139.889 59.592 139.692 62.6692C139.494 65.8875 136.699 68.3154 133.538 68.0331C130.432 67.7508 128.061 65.0688 128.258 62.0199Z" fill="#CB6CE6" fill-opacity="0.34"/>
<path d="M93.0541 152.217C89.864 152.246 87.408 149.846 87.3797 146.656C87.3797 143.466 89.8076 141.038 92.9977 141.038C96.103 141.066 98.4745 143.381 98.5309 146.487C98.6156 149.705 96.2442 152.161 93.0541 152.217Z" fill="#CB6CE6" fill-opacity="0.34"/>
<path d="M12.6529 198.827C12.7376 195.665 15.2783 193.322 18.4684 193.435C21.6303 193.547 23.9452 196.088 23.804 199.307C23.6629 202.384 21.2068 204.642 18.1014 204.586C14.9396 204.529 12.5682 202.045 12.6529 198.827Z" fill="#CB6CE6" fill-opacity="0.34"/>
<path d="M33.3747 194.197C30.2411 194.253 27.7003 191.825 27.6438 188.692C27.5591 185.473 30.0999 182.876 33.3182 182.904C36.4518 182.933 38.9362 185.389 38.9362 188.522C38.9362 191.656 36.5083 194.14 33.3747 194.197Z" fill="#CB6CE6" fill-opacity="0.34"/>
<path d="M142.995 17.3871C139.833 17.3306 137.433 14.8181 137.461 11.6563C137.518 8.49441 140.03 6.09479 143.192 6.12302C146.354 6.17948 148.754 8.69202 148.725 11.8539C148.669 15.0157 146.156 17.4436 142.995 17.3871Z" fill="#CB6CE6" fill-opacity="0.34"/>
<path d="M126.056 75.1755C126.028 72.0419 128.456 69.5294 131.589 69.4447C134.808 69.3882 137.405 71.9007 137.377 75.1473C137.349 78.2809 134.892 80.737 131.731 80.7652C128.569 80.737 126.084 78.3091 126.056 75.1755Z" fill="#CB6CE6" fill-opacity="0.34"/>
<path d="M129.501 82.2614C132.691 82.3179 135.062 84.774 134.977 87.9923C134.921 91.1541 132.408 93.5255 129.19 93.4126C126.113 93.3279 123.798 90.9 123.826 87.7947C123.855 84.6328 126.311 82.2332 129.501 82.2614Z" fill="#CB6CE6" fill-opacity="0.34"/>
<path d="M110.36 129.435C107.17 129.463 104.713 127.064 104.685 123.874C104.685 120.684 107.113 118.256 110.303 118.256C113.409 118.284 115.78 120.599 115.836 123.704C115.921 126.923 113.55 129.379 110.36 129.435Z" fill="#CB6CE6" fill-opacity="0.34"/>
<path d="M66.5737 180.279C66.602 183.356 64.2306 185.784 61.1816 185.84C58.0198 185.897 55.5355 183.441 55.5637 180.279C55.5919 177.23 57.9916 174.83 61.0687 174.83C64.1459 174.83 66.5455 177.23 66.5737 180.279Z" fill="#CB6CE6" fill-opacity="0.34"/>
<path d="M75.636 175.367C72.5588 175.367 70.1592 172.967 70.1309 169.918C70.1027 166.756 72.587 164.3 75.7489 164.357C78.7978 164.413 81.1692 166.841 81.141 169.918C81.141 172.995 78.7131 175.367 75.636 175.367Z" fill="#CB6CE6" fill-opacity="0.34"/>
<path d="M102.512 136.549C102.54 133.5 104.968 131.129 108.017 131.129C111.151 131.129 113.578 133.642 113.494 136.804C113.409 139.824 110.925 142.167 107.876 142.111C104.855 142.026 102.484 139.598 102.512 136.549Z" fill="#CB6CE6" fill-opacity="0.34"/>
<path d="M3.25199 215.003C0.203057 215.003 -2.22479 212.631 -2.28125 209.611C-2.30948 206.477 0.146601 203.993 3.28022 204.021C6.32915 204.049 8.70053 206.477 8.70053 209.526C8.70053 212.575 6.27268 214.975 3.25199 215.003Z" fill="#CB6CE6" fill-opacity="0.34"/>
<path d="M150.928 -1.13237C150.899 -2.65683 150.278 -4.01192 149.318 -5H141.442C140.426 -4.01192 139.805 -2.60038 139.805 -0.991228C139.805 2.19885 142.261 4.57026 145.451 4.54203C148.613 4.5138 150.984 2.05771 150.928 -1.13237Z" fill="#CB6CE6" fill-opacity="0.34"/>
<path d="M133.114 100.611C133.114 103.773 130.658 106.173 127.468 106.116C124.419 106.06 122.076 103.66 122.076 100.583C122.076 97.4214 124.532 95.0218 127.722 95.0782C130.771 95.1347 133.114 97.5343 133.114 100.611Z" fill="#CB6CE6" fill-opacity="0.34"/>
<path d="M51.5268 190.724C51.5833 193.773 49.2119 196.229 46.1912 196.314C43.0576 196.399 40.5451 193.943 40.5451 190.809C40.5451 187.76 42.9447 185.36 45.9936 185.332C49.0425 185.304 51.4986 187.704 51.5268 190.724Z" fill="#CB6CE6" fill-opacity="0.34"/>
<path d="M25.5262 201.367C25.498 198.347 27.9259 195.862 30.9183 195.834C33.939 195.806 36.4233 198.234 36.4516 201.226C36.4798 204.247 34.052 206.731 31.0595 206.759C28.0388 206.816 25.5827 204.388 25.5262 201.367Z" fill="#CB6CE6" fill-opacity="0.34"/>
<path d="M130.799 113.372C130.799 116.392 128.343 118.82 125.322 118.82C122.302 118.82 119.874 116.364 119.874 113.344C119.874 110.323 122.33 107.895 125.351 107.895C128.343 107.895 130.799 110.351 130.799 113.372Z" fill="#CB6CE6" fill-opacity="0.34"/>
<path d="M96.1597 159.416C96.1315 162.437 93.6754 164.865 90.6547 164.837C87.634 164.808 85.2062 162.352 85.2344 159.332C85.2626 156.311 87.7187 153.883 90.7394 153.911C93.7601 153.94 96.188 156.396 96.1597 159.416Z" fill="#CB6CE6" fill-opacity="0.34"/>
<path d="M153.666 21.3394C156.658 21.3958 159.114 23.9648 159.002 26.9291C158.917 29.9215 156.32 32.3494 153.355 32.2082C150.448 32.0953 148.104 29.611 148.133 26.7315C148.133 23.7672 150.673 21.2829 153.666 21.3394Z" fill="#CB6CE6" fill-opacity="0.34"/>
<path d="M150.42 14.0841C150.392 11.1199 152.961 8.57909 155.925 8.60732C158.804 8.66378 161.26 11.1199 161.289 13.9994C161.317 16.9637 158.748 19.5044 155.784 19.4762C152.904 19.4197 150.448 16.9636 150.42 14.0841Z" fill="#CB6CE6" fill-opacity="0.34"/>
<path d="M139.042 77.3775C139.042 74.4132 141.611 71.8725 144.547 71.9289C147.427 71.9854 149.855 74.4415 149.883 77.321C149.883 80.2853 147.314 82.826 144.378 82.7696C141.47 82.7413 139.042 80.257 139.042 77.3775Z" fill="#CB6CE6" fill-opacity="0.34"/>
<path d="M152.17 64.702C152.113 67.6945 149.544 70.1505 146.58 70.0658C143.587 69.9812 141.16 67.3839 141.272 64.4197C141.385 61.5119 143.87 59.1687 146.749 59.1687C149.742 59.1687 152.226 61.7095 152.17 64.702Z" fill="#CB6CE6" fill-opacity="0.34"/>
<path d="M154.485 51.8286C154.485 54.8211 152 57.3336 148.98 57.3054C145.959 57.2772 143.503 54.7646 143.559 51.7439C143.616 48.8361 146.015 46.4083 148.923 46.3801C151.944 46.3518 154.456 48.8079 154.485 51.8286Z" fill="#CB6CE6" fill-opacity="0.34"/>
<path d="M151.21 45.0251C148.189 44.9968 145.761 42.4561 145.818 39.4354C145.874 36.4429 148.471 33.9868 151.464 34.0997C154.372 34.1844 156.743 36.6687 156.743 39.5765C156.743 42.569 154.231 45.0533 151.21 45.0251Z" fill="#CB6CE6" fill-opacity="0.34"/>
<path d="M105.759 154.306C102.879 154.335 100.366 151.879 100.31 148.999C100.254 146.035 102.823 143.438 105.787 143.494C108.666 143.551 111.122 146.035 111.122 148.914C111.122 151.794 108.666 154.278 105.759 154.306Z" fill="#CB6CE6" fill-opacity="0.34"/>
<path d="M147.568 90.1943C147.54 93.102 144.999 95.5581 142.12 95.5299C139.212 95.5017 136.756 92.9609 136.784 90.0813C136.812 87.1736 139.353 84.7175 142.233 84.7457C145.14 84.774 147.597 87.2865 147.568 90.1943Z" fill="#CB6CE6" fill-opacity="0.34"/>
<path d="M10.5638 211.869C10.5073 208.99 12.9352 206.477 15.8147 206.364C18.7789 206.28 21.3762 208.82 21.3762 211.785C21.348 214.664 18.8919 217.148 16.0123 217.177C13.1046 217.205 10.6202 214.749 10.5638 211.869Z" fill="#CB6CE6" fill-opacity="0.34"/>
<path d="M117.644 126.132C117.644 123.253 120.1 120.768 122.979 120.712C125.944 120.684 128.513 123.253 128.456 126.217C128.4 129.096 125.887 131.552 123.008 131.524C120.1 131.496 117.644 129.012 117.644 126.132Z" fill="#CB6CE6" fill-opacity="0.34"/>
<path d="M152.763 1.32377C152.734 -1.55577 155.191 -4.06833 158.07 -4.09656C160.95 -4.12479 163.462 -1.6687 163.49 1.21085C163.519 4.09039 161.063 6.60293 158.183 6.63116C155.303 6.68762 152.791 4.23155 152.763 1.32377Z" fill="#CB6CE6" fill-opacity="0.34"/>
<path d="M145.197 102.898C145.197 105.834 142.684 108.262 139.777 108.177C136.925 108.093 134.61 105.693 134.61 102.87C134.61 99.934 137.123 97.5061 140.031 97.5908C142.882 97.6755 145.197 100.075 145.197 102.898Z" fill="#CB6CE6" fill-opacity="0.34"/>
<path d="M43.7633 208.905C40.8837 208.905 38.3994 206.421 38.4276 203.541C38.4559 200.662 40.9684 198.177 43.8479 198.262C46.671 198.318 49.0424 200.718 49.0706 203.513C49.1271 206.392 46.671 208.905 43.7633 208.905Z" fill="#CB6CE6" fill-opacity="0.34"/>
<path d="M73.7443 187.958C70.8365 187.901 68.3804 185.36 68.4651 182.481C68.5498 179.573 71.1471 177.145 73.9984 177.258C76.8215 177.371 79.1646 179.827 79.1646 182.622C79.1646 185.53 76.6521 188.014 73.7443 187.958Z" fill="#CB6CE6" fill-opacity="0.34"/>
<path d="M53.4468 193.18C53.3903 190.301 55.8746 187.76 58.7824 187.76C61.6902 187.76 64.1745 190.244 64.1463 193.152C64.118 195.975 61.7466 198.375 58.9235 198.46C56.044 198.544 53.5032 196.06 53.4468 193.18Z" fill="#CB6CE6" fill-opacity="0.34"/>
<path d="M83.0888 172.092C83.117 169.212 85.6578 166.756 88.5091 166.813C91.4169 166.897 93.8447 169.438 93.7318 172.29C93.6189 175.113 91.2193 177.456 88.4244 177.456C85.5167 177.484 83.0606 174.971 83.0888 172.092Z" fill="#CB6CE6" fill-opacity="0.34"/>
<path d="M6.66837 222.343C6.61191 225.279 4.1276 227.65 1.19159 227.509C-1.65972 227.396 -3.91818 224.997 -3.88995 222.145C-3.83349 219.209 -1.34918 216.838 1.58682 216.979C4.43814 217.12 6.6966 219.52 6.66837 222.343Z" fill="#CB6CE6" fill-opacity="0.34"/>
<path d="M115.498 138.384C115.526 135.448 117.982 133.049 120.918 133.162C123.769 133.246 126.056 135.618 126.028 138.469C126 141.405 123.544 143.805 120.608 143.692C117.756 143.607 115.47 141.236 115.498 138.384Z" fill="#CB6CE6" fill-opacity="0.34"/>
<path d="M28.6882 219.266C25.7804 219.237 23.5219 216.951 23.5219 214.043C23.5502 211.135 25.8369 208.877 28.7446 208.877C31.6524 208.905 33.9109 211.192 33.9109 214.099C33.8827 217.007 31.5959 219.266 28.6882 219.266Z" fill="#CB6CE6" fill-opacity="0.34"/>
<path d="M137.574 120.797C134.666 120.768 132.436 118.51 132.464 115.574C132.493 112.666 134.751 110.436 137.687 110.464C140.595 110.492 142.825 112.751 142.797 115.687C142.769 118.595 140.51 120.825 137.574 120.797Z" fill="#CB6CE6" fill-opacity="0.34"/>
<path d="M103.415 166.841C100.508 166.813 98.2491 164.526 98.2773 161.59C98.3056 158.682 100.592 156.424 103.528 156.452C106.436 156.48 108.694 158.767 108.666 161.703C108.61 164.639 106.323 166.869 103.415 166.841Z" fill="#CB6CE6" fill-opacity="0.34"/>
<path d="M149.911 92.3681C149.94 89.5733 152.17 87.3713 154.965 87.3713C157.76 87.3995 159.962 89.6297 159.962 92.4246C159.933 95.2194 157.703 97.4214 154.908 97.4214C152.113 97.4214 149.883 95.163 149.911 92.3681Z" fill="#CB6CE6" fill-opacity="0.34"/>
<path d="M118.575 156.254C115.724 156.283 113.494 154.165 113.409 151.342C113.352 148.406 115.583 146.12 118.49 146.12C121.314 146.12 123.516 148.322 123.544 151.145C123.572 153.996 121.398 156.198 118.575 156.254Z" fill="#CB6CE6" fill-opacity="0.34"/>
<path d="M168.685 21.3676C165.862 21.3958 163.631 19.2503 163.547 16.4554C163.49 13.5476 165.72 11.261 168.628 11.261C171.451 11.2892 173.625 13.463 173.653 16.286C173.653 19.1091 171.48 21.3394 168.685 21.3676Z" fill="#CB6CE6" fill-opacity="0.34"/>
<path d="M157.308 84.7175C154.457 84.7458 152.226 82.6285 152.142 79.8054C152.085 76.8694 154.315 74.5827 157.223 74.5827C160.046 74.5827 162.248 76.7847 162.276 79.6078C162.305 82.4591 160.131 84.6611 157.308 84.7175Z" fill="#CB6CE6" fill-opacity="0.34"/>
<path d="M135.739 133.444C132.916 133.416 130.743 131.214 130.743 128.391C130.743 125.483 133.057 123.253 135.965 123.337C138.76 123.422 140.906 125.681 140.849 128.504C140.793 131.327 138.562 133.472 135.739 133.444Z" fill="#CB6CE6" fill-opacity="0.34"/>
<path d="M164.027 46.4649C161.091 46.4649 158.889 44.1782 158.945 41.2139C159.002 38.3908 161.232 36.2453 164.083 36.2453C167.019 36.2453 169.221 38.532 169.165 41.4962C169.08 44.3475 166.878 46.4931 164.027 46.4649Z" fill="#CB6CE6" fill-opacity="0.34"/>
<path d="M166.878 54.2283C166.85 57.1643 164.535 59.3381 161.571 59.2252C158.748 59.1405 156.63 56.882 156.687 54.0307C156.715 51.1229 159.03 48.9209 161.994 49.0338C164.789 49.1185 166.906 51.377 166.878 54.2283Z" fill="#CB6CE6" fill-opacity="0.34"/>
<path d="M101.1 179.432C98.3052 179.404 96.1314 177.117 96.1597 174.322C96.1879 171.527 98.4746 169.354 101.269 169.382C104.064 169.41 106.238 171.697 106.21 174.492C106.153 177.286 103.895 179.488 101.1 179.432Z" fill="#CB6CE6" fill-opacity="0.34"/>
<path d="M76.6241 195.439C76.5959 198.262 74.3939 200.436 71.5426 200.436C68.6065 200.436 66.4045 198.121 66.4892 195.185C66.5739 192.362 68.8324 190.244 71.6837 190.301C74.5068 190.357 76.6523 192.588 76.6241 195.439Z" fill="#CB6CE6" fill-opacity="0.34"/>
<path d="M81.0843 184.824C81.1126 182.001 83.3146 179.827 86.1659 179.827C89.0737 179.827 91.3039 182.142 91.2192 185.078C91.1345 187.901 88.8761 190.019 86.0247 189.962C83.1734 189.906 81.0279 187.675 81.0843 184.824Z" fill="#CB6CE6" fill-opacity="0.34"/>
<path d="M171.395 29.1592C171.367 32.067 169.052 34.2408 166.116 34.1561C163.321 34.0714 161.204 31.8412 161.232 28.9898C161.26 26.0821 163.575 23.9083 166.511 23.993C169.334 24.0777 171.452 26.3079 171.395 29.1592Z" fill="#CB6CE6" fill-opacity="0.34"/>
<path d="M13.7542 229.626C10.8181 229.655 8.58791 227.453 8.58791 224.517C8.61614 221.694 10.7617 219.52 13.5848 219.463C16.5208 219.435 18.751 221.637 18.7228 224.573C18.751 227.396 16.5772 229.598 13.7542 229.626Z" fill="#CB6CE6" fill-opacity="0.34"/>
<path d="M46.5017 216.273C46.53 219.068 44.3279 221.327 41.5331 221.355C38.7382 221.383 36.4798 219.181 36.4515 216.386C36.4233 213.591 38.6253 211.333 41.4202 211.305C44.215 211.276 46.4735 213.478 46.5017 216.273Z" fill="#CB6CE6" fill-opacity="0.34"/>
<path d="M56.4953 210.909C53.6723 210.909 51.4702 208.707 51.442 205.884C51.4138 202.948 53.7005 200.718 56.6365 200.774C59.4596 200.831 61.6051 203.061 61.5769 205.912C61.5486 208.764 59.3466 210.937 56.4953 210.909Z" fill="#CB6CE6" fill-opacity="0.34"/>
<path d="M154.4 66.7063C154.484 63.7985 156.828 61.653 159.792 61.7941C162.587 61.9353 164.676 64.222 164.591 67.0733C164.506 69.9811 162.163 72.1266 159.199 71.9855C156.376 71.8443 154.315 69.5576 154.4 66.7063Z" fill="#CB6CE6" fill-opacity="0.34"/>
<path d="M170.886 8.57903C168.092 8.57903 165.833 6.29233 165.89 3.49748C165.918 0.702626 168.233 -1.52761 171.028 -1.44292C173.738 -1.38646 175.883 0.815555 175.911 3.52571C175.911 6.29233 173.681 8.57903 170.886 8.57903Z" fill="#CB6CE6" fill-opacity="0.34"/>
<path d="M152.593 110.154C149.826 110.125 147.568 107.754 147.681 104.987C147.794 102.305 150.052 100.132 152.734 100.188C155.501 100.216 157.759 102.616 157.646 105.354C157.533 108.008 155.275 110.182 152.593 110.154Z" fill="#CB6CE6" fill-opacity="0.34"/>
<path d="M31.3984 226.832C31.3984 229.485 29.1399 231.744 26.4862 231.8C23.7478 231.828 21.4047 229.457 21.4611 226.719C21.5458 224.065 23.8325 221.835 26.4862 221.863C29.1682 221.891 31.3984 224.178 31.3984 226.832Z" fill="#CB6CE6" fill-opacity="0.34"/>
<path d="M116.26 168.902C113.606 168.93 111.32 166.7 111.263 164.046C111.207 161.336 113.578 158.936 116.288 158.993C118.942 159.049 121.2 161.308 121.172 163.961C121.172 166.615 118.914 168.874 116.26 168.902Z" fill="#CB6CE6" fill-opacity="0.34"/>
<path d="M-5.86608 234.99C-5.83785 232.308 -3.60762 230.05 -0.925689 230.05C1.84093 230.022 4.15586 232.421 4.07117 235.16C3.98647 237.842 1.67155 240.044 -0.982152 239.987C-3.66408 239.959 -5.89431 237.672 -5.86608 234.99Z" fill="#CB6CE6" fill-opacity="0.34"/>
<path d="M128.54 140.812C128.484 138.158 130.686 135.815 133.34 135.731C136.078 135.618 138.478 137.961 138.478 140.699C138.478 143.381 136.219 145.64 133.565 145.668C130.912 145.724 128.597 143.494 128.54 140.812Z" fill="#CB6CE6" fill-opacity="0.34"/>
<path d="M155.275 117.917C155.275 120.543 152.932 122.857 150.307 122.829C147.653 122.801 145.395 120.43 145.451 117.804C145.536 115.235 147.738 113.061 150.307 113.005C152.96 112.977 155.275 115.292 155.275 117.917Z" fill="#CB6CE6" fill-opacity="0.34"/>
<path d="M83.9643 192.757C86.618 192.842 88.8764 195.213 88.7635 197.838C88.6506 200.492 86.251 202.722 83.6255 202.581C81.0565 202.44 78.911 200.182 78.9392 197.641C78.9957 194.959 81.3388 192.672 83.9643 192.757Z" fill="#CB6CE6" fill-opacity="0.34"/>
<path d="M69.3971 213.027C66.7716 213.111 64.4284 210.825 64.372 208.171C64.3437 205.545 66.6304 203.202 69.2841 203.202C71.8249 203.202 74.0834 205.376 74.1963 207.945C74.281 210.571 72.0508 212.97 69.3971 213.027Z" fill="#CB6CE6" fill-opacity="0.34"/>
<path d="M54.2936 223.472C51.6399 223.5 49.3532 221.214 49.3815 218.56C49.4097 215.991 51.5835 213.789 54.1807 213.761C56.8344 213.732 59.1211 216.019 59.0929 218.673C59.0646 221.242 56.8909 223.416 54.2936 223.472Z" fill="#CB6CE6" fill-opacity="0.34"/>
<path d="M94.0428 187.252C93.9863 184.598 96.273 182.312 98.9267 182.312C101.496 182.34 103.698 184.485 103.754 187.083C103.811 189.736 101.524 192.023 98.8703 192.023C96.3013 191.995 94.0992 189.849 94.0428 187.252Z" fill="#CB6CE6" fill-opacity="0.34"/>
<path d="M171.987 43.7265C171.959 41.1292 174.076 38.9272 176.674 38.8425C179.356 38.7578 181.642 41.0163 181.614 43.6982C181.586 46.2955 179.412 48.4692 176.815 48.4692C174.218 48.4692 172.044 46.3237 171.987 43.7265Z" fill="#CB6CE6" fill-opacity="0.34"/>
<path d="M174.528 51.6028C177.126 51.6028 179.299 53.7483 179.356 56.3738C179.384 59.0557 177.097 61.3141 174.415 61.2577C171.818 61.2012 169.673 58.971 169.701 56.3738C169.757 53.7483 171.931 51.6028 174.528 51.6028Z" fill="#CB6CE6" fill-opacity="0.34"/>
<path d="M172.186 73.9333C169.561 73.9051 167.443 71.7313 167.471 69.1058C167.5 66.4804 169.673 64.3631 172.299 64.3913C174.924 64.4195 177.042 66.5933 177.013 69.2188C176.985 71.8725 174.811 73.9898 172.186 73.9333Z" fill="#CB6CE6" fill-opacity="0.34"/>
<path d="M131.166 158.287C128.569 158.231 126.423 156.057 126.423 153.46C126.423 150.778 128.767 148.547 131.42 148.66C134.017 148.773 136.135 151.032 136.05 153.601C135.965 156.198 133.763 158.315 131.166 158.287Z" fill="#CB6CE6" fill-opacity="0.34"/>
<path d="M11.8342 242.104C9.23701 242.076 7.06324 239.902 7.06324 237.305C7.03501 234.623 9.34993 232.365 12.0319 232.478C14.6291 232.562 16.7464 234.793 16.6899 237.39C16.6335 239.987 14.4315 242.133 11.8342 242.104Z" fill="#CB6CE6" fill-opacity="0.34"/>
<path d="M24.0863 244.165C21.489 244.137 19.5411 242.104 19.5693 239.479C19.5976 236.882 21.6302 234.934 24.2556 234.962C26.8529 234.99 28.8008 237.023 28.7726 239.648C28.7443 242.246 26.7117 244.222 24.0863 244.165Z" fill="#CB6CE6" fill-opacity="0.34"/>
<path d="M167.781 99.3412C165.071 99.3694 163.039 97.365 163.039 94.6549C163.039 92.0576 165.015 90.0532 167.612 90.025C170.322 89.9968 172.355 92.0011 172.355 94.7113C172.326 97.3085 170.379 99.3129 167.781 99.3412Z" fill="#CB6CE6" fill-opacity="0.34"/>
<path d="M174.67 81.8663C174.698 84.5483 172.637 86.6373 169.955 86.6373C167.273 86.6373 165.213 84.5483 165.241 81.8663C165.269 79.2691 167.245 77.2647 169.842 77.2082C172.553 77.1518 174.642 79.1844 174.67 81.8663Z" fill="#CB6CE6" fill-opacity="0.34"/>
<path d="M183.167 10.4704C180.542 10.4704 178.566 8.49425 178.538 5.89702C178.509 3.18686 180.57 1.15425 183.28 1.21071C185.878 1.26717 187.826 3.27155 187.797 5.89702C187.797 8.52248 185.793 10.4704 183.167 10.4704Z" fill="#CB6CE6" fill-opacity="0.34"/>
<path d="M113.945 181.408C111.263 181.408 109.202 179.347 109.231 176.665C109.259 173.983 111.348 171.951 114.03 172.007C116.627 172.064 118.603 174.068 118.631 176.637C118.66 179.319 116.627 181.408 113.945 181.408Z" fill="#CB6CE6" fill-opacity="0.34"/>
<path d="M186.046 18.5163C186.074 21.2265 184.042 23.2873 181.332 23.2591C178.706 23.2308 176.73 21.2547 176.702 18.6575C176.674 15.9473 178.706 13.8865 181.416 13.9147C184.014 13.9429 186.018 15.9191 186.046 18.5163Z" fill="#CB6CE6" fill-opacity="0.34"/>
<path d="M-3.35388 252.352C-5.92288 252.267 -7.84257 250.178 -7.75788 247.581C-7.67319 245.012 -5.58411 243.092 -2.98687 243.177C-0.417868 243.262 1.50183 245.351 1.41714 247.948C1.33245 250.517 -0.75664 252.437 -3.35388 252.352Z" fill="#CB6CE6" fill-opacity="0.34"/>
<path d="M148.133 134.968C145.479 134.997 143.39 132.908 143.362 130.254C143.334 127.6 145.423 125.511 148.076 125.483C150.73 125.455 152.819 127.544 152.847 130.197C152.847 132.851 150.787 134.94 148.133 134.968Z" fill="#CB6CE6" fill-opacity="0.34"/>
<path d="M128.992 170.793C126.423 170.793 124.391 168.817 124.391 166.22C124.391 163.651 126.367 161.618 128.964 161.618C131.533 161.618 133.566 163.595 133.566 166.192C133.566 168.789 131.561 170.793 128.992 170.793Z" fill="#CB6CE6" fill-opacity="0.34"/>
<path d="M39.2464 233.804C36.5645 233.833 34.5037 231.772 34.5037 229.09C34.5037 226.408 36.5927 224.375 39.2747 224.404C41.8719 224.432 43.8481 226.436 43.9045 229.005C43.961 231.687 41.9284 233.776 39.2464 233.804Z" fill="#CB6CE6" fill-opacity="0.34"/>
<path d="M150.42 142.901C150.448 145.527 148.5 147.531 145.903 147.588C143.277 147.616 141.273 145.668 141.216 143.071C141.188 140.445 143.136 138.441 145.733 138.384C148.359 138.356 150.391 140.304 150.42 142.901Z" fill="#CB6CE6" fill-opacity="0.34"/>
<path d="M174.359 31.3049C174.388 28.6512 176.477 26.5903 179.13 26.5903C181.784 26.6186 183.845 28.7077 183.845 31.3613C183.817 34.015 181.728 36.0759 179.074 36.0759C176.392 36.0759 174.331 33.9586 174.359 31.3049Z" fill="#CB6CE6" fill-opacity="0.34"/>
<path d="M170.011 107.415C170.011 109.984 168.035 112.017 165.438 112.017C162.869 112.017 160.836 110.041 160.836 107.443C160.836 104.874 162.813 102.842 165.41 102.842C167.979 102.842 169.983 104.846 170.011 107.415Z" fill="#CB6CE6" fill-opacity="0.34"/>
<path d="M52.0069 235.894C49.579 235.922 47.4899 233.889 47.4335 231.461C47.377 228.949 49.5226 226.803 52.0351 226.832C54.463 226.888 56.4956 228.949 56.4956 231.377C56.4673 233.833 54.4347 235.894 52.0069 235.894Z" fill="#CB6CE6" fill-opacity="0.34"/>
<path d="M71.5709 220.79C71.6274 223.359 69.623 225.448 67.054 225.476C64.485 225.505 62.4241 223.472 62.4241 220.903C62.4241 218.419 64.3438 216.414 66.8281 216.33C69.3971 216.245 71.5144 218.221 71.5709 220.79Z" fill="#CB6CE6" fill-opacity="0.34"/>
<path d="M111.715 193.999C109.287 194.027 107.198 192.023 107.113 189.595C107.028 187.083 109.174 184.909 111.687 184.937C114.114 184.965 116.175 187.026 116.175 189.454C116.204 191.882 114.143 193.943 111.715 193.999Z" fill="#CB6CE6" fill-opacity="0.34"/>
<path d="M86.6176 210.401C86.6176 212.97 84.5849 215.003 82.0159 215.003C79.4469 214.975 77.4425 212.914 77.4708 210.345C77.5272 207.86 79.4752 205.913 81.9595 205.856C84.5285 205.8 86.5893 207.804 86.6176 210.401Z" fill="#CB6CE6" fill-opacity="0.34"/>
<path d="M96.5269 204.501C93.9579 204.445 91.9818 202.355 92.0383 199.786C92.1229 197.217 94.2403 195.269 96.8093 195.354C99.2936 195.467 101.185 197.472 101.185 199.956C101.157 202.553 99.0959 204.557 96.5269 204.501Z" fill="#CB6CE6" fill-opacity="0.34"/>
<path d="M167.668 120.147C167.696 122.547 165.664 124.636 163.236 124.721C160.752 124.777 158.578 122.632 158.606 120.119C158.634 117.719 160.723 115.659 163.151 115.659C165.551 115.687 167.64 117.748 167.668 120.147Z" fill="#CB6CE6" fill-opacity="0.34"/>
<path d="M186.978 33.281C186.922 30.9378 188.87 28.877 191.213 28.7923C193.641 28.7076 195.786 30.7684 195.758 33.1963C195.758 35.5394 193.753 37.5438 191.41 37.5721C189.095 37.6003 187.035 35.6242 186.978 33.281Z" fill="#CB6CE6" fill-opacity="0.34"/>
<path d="M14.0643 250.15C14.0079 252.578 11.8059 254.639 9.40626 254.526C6.97841 254.413 4.94579 252.211 5.08695 249.811C5.2281 247.468 7.31718 245.52 9.60387 245.549C12.06 245.605 14.149 247.779 14.0643 250.15Z" fill="#CB6CE6" fill-opacity="0.34"/>
<path d="M185.002 67.0451C187.345 67.0451 189.378 69.0212 189.406 71.3926C189.434 73.8205 187.317 75.9095 184.889 75.8531C182.546 75.7966 180.57 73.7358 180.598 71.3926C180.655 69.0212 182.659 67.0451 185.002 67.0451Z" fill="#CB6CE6" fill-opacity="0.34"/>
<path d="M41.3637 241.794C41.392 244.193 39.2746 246.311 36.875 246.283C34.5601 246.254 32.5275 244.25 32.4993 241.907C32.471 239.507 34.5883 237.39 36.9879 237.418C39.3029 237.446 41.3073 239.479 41.3637 241.794Z" fill="#CB6CE6" fill-opacity="0.34"/>
<path d="M160.752 136.888C158.408 136.832 156.432 134.771 156.461 132.428C156.489 129.972 158.663 127.939 161.09 128.08C163.462 128.221 165.382 130.31 165.269 132.654C165.156 135.025 163.067 136.973 160.752 136.888Z" fill="#CB6CE6" fill-opacity="0.34"/>
<path d="M143.954 160.207C141.526 160.179 139.466 158.005 139.522 155.605C139.579 153.177 141.781 151.116 144.18 151.229C146.495 151.342 148.499 153.403 148.499 155.718C148.471 158.146 146.354 160.263 143.954 160.207Z" fill="#CB6CE6" fill-opacity="0.34"/>
<path d="M126.79 183.413C124.391 183.469 122.245 181.352 122.273 178.952C122.273 176.637 124.278 174.605 126.621 174.548C129.021 174.492 131.166 176.609 131.138 179.009C131.11 181.323 129.105 183.356 126.79 183.413Z" fill="#CB6CE6" fill-opacity="0.34"/>
<path d="M185.144 45.985C185.116 43.5853 187.233 41.468 189.632 41.4963C191.947 41.5245 193.98 43.5571 194.008 45.872C194.036 48.2717 191.919 50.389 189.52 50.3607C187.176 50.3325 185.172 48.2999 185.144 45.985Z" fill="#CB6CE6" fill-opacity="0.34"/>
<path d="M187.261 63.1209C184.861 63.0927 182.772 60.9472 182.857 58.5475C182.942 56.2326 185.003 54.2282 187.318 54.2565C189.717 54.2847 191.806 56.4302 191.722 58.8298C191.637 61.1448 189.576 63.1492 187.261 63.1209Z" fill="#CB6CE6" fill-opacity="0.34"/>
<path d="M189.349 20.803C189.378 18.4034 191.325 16.512 193.725 16.5402C196.125 16.5684 198.016 18.5163 197.988 20.916C197.96 23.3156 196.012 25.2071 193.612 25.1788C191.213 25.1506 189.321 23.2027 189.349 20.803Z" fill="#CB6CE6" fill-opacity="0.34"/>
<path d="M182.63 88.557C180.259 88.5006 178.339 86.5244 178.368 84.153C178.396 81.6969 180.485 79.6926 182.941 79.8337C185.312 79.9466 187.204 81.9792 187.091 84.3224C187.006 86.722 185.002 88.6135 182.63 88.557Z" fill="#CB6CE6" fill-opacity="0.34"/>
<path d="M109.372 206.421C106.916 206.421 105.109 204.529 105.166 202.073C105.222 199.73 107.029 197.98 109.4 197.98C111.856 197.98 113.663 199.871 113.607 202.327C113.522 204.67 111.743 206.421 109.372 206.421Z" fill="#CB6CE6" fill-opacity="0.34"/>
<path d="M21.9972 256.107C19.5411 256.163 17.6779 254.328 17.6779 251.872C17.6779 249.501 19.4565 247.722 21.7996 247.666C24.2557 247.609 26.1189 249.444 26.1189 251.901C26.0907 254.244 24.3404 256.051 21.9972 256.107Z" fill="#CB6CE6" fill-opacity="0.34"/>
<path d="M79.7858 227.424C77.4144 227.453 75.5794 225.702 75.4947 223.331C75.41 220.875 77.245 218.955 79.701 218.927C82.1571 218.899 84.0204 220.79 83.9921 223.246C83.9639 225.618 82.1571 227.396 79.7858 227.424Z" fill="#CB6CE6" fill-opacity="0.34"/>
<path d="M176.194 96.9697C176.194 94.5136 178.085 92.6504 180.541 92.7068C182.913 92.7633 184.663 94.5701 184.691 96.9415C184.691 99.3976 182.8 101.261 180.344 101.204C177.972 101.148 176.222 99.3411 176.194 96.9697Z" fill="#CB6CE6" fill-opacity="0.34"/>
<path d="M90.0619 212.66C90.0901 210.232 91.9815 208.369 94.4376 208.425C96.8655 208.481 98.7005 210.401 98.6158 212.857C98.5311 215.2 96.7243 216.979 94.3529 216.979C91.9251 216.979 90.0336 215.087 90.0619 212.66Z" fill="#CB6CE6" fill-opacity="0.34"/>
<path d="M191.721 8.04267C191.75 5.58659 193.669 3.80804 196.125 3.89273C198.469 3.97743 200.191 5.81242 200.163 8.18381C200.134 10.6117 198.215 12.4184 195.758 12.3337C193.415 12.2491 191.693 10.4141 191.721 8.04267Z" fill="#CB6CE6" fill-opacity="0.34"/>
<path d="M141.668 172.685C139.297 172.657 137.518 170.878 137.518 168.507C137.518 166.051 139.41 164.244 141.866 164.3C144.209 164.385 145.931 166.22 145.903 168.591C145.874 170.963 144.039 172.713 141.668 172.685Z" fill="#CB6CE6" fill-opacity="0.34"/>
<path d="M162.784 145.357C162.756 147.729 160.949 149.479 158.55 149.451C156.094 149.423 154.287 147.531 154.4 145.047C154.484 142.704 156.348 140.982 158.719 141.066C161.09 141.123 162.813 142.958 162.784 145.357Z" fill="#CB6CE6" fill-opacity="0.34"/>
<path d="M64.6541 237.87C62.1981 237.841 60.4195 235.95 60.476 233.494C60.5607 231.151 62.3957 229.429 64.7388 229.457C67.1949 229.485 68.9734 231.377 68.917 233.833C68.8605 236.176 67.0255 237.898 64.6541 237.87Z" fill="#CB6CE6" fill-opacity="0.34"/>
<path d="M174.021 109.674C174.049 107.33 175.856 105.552 178.199 105.58C180.542 105.608 182.32 107.415 182.292 109.758C182.264 112.101 180.457 113.88 178.114 113.852C175.771 113.852 173.992 112.045 174.021 109.674Z" fill="#CB6CE6" fill-opacity="0.34"/>
<path d="M124.504 187.591C126.847 187.647 128.625 189.539 128.541 191.882C128.456 194.197 126.536 195.947 124.193 195.862C121.963 195.749 120.269 193.943 120.269 191.684C120.297 189.341 122.161 187.562 124.504 187.591Z" fill="#CB6CE6" fill-opacity="0.34"/>
<path d="M152.254 157.92C152.311 155.746 154.23 153.911 156.404 153.968C158.578 154.024 160.413 155.944 160.356 158.118C160.3 160.291 158.38 162.126 156.207 162.07C154.033 162.014 152.198 160.094 152.254 157.92Z" fill="#CB6CE6" fill-opacity="0.34"/>
<path d="M34.6452 258.224C32.4714 258.224 30.5799 256.361 30.5799 254.187C30.5799 252.013 32.4432 250.122 34.6169 250.122C36.7907 250.122 38.6822 251.985 38.6822 254.159C38.7104 256.333 36.8472 258.196 34.6452 258.224Z" fill="#CB6CE6" fill-opacity="0.34"/>
<path d="M11.3824 262.261C11.4388 264.435 9.63205 266.355 7.45828 266.439C5.19981 266.524 3.22366 264.604 3.22366 262.346C3.22366 260.172 5.08689 258.309 7.26066 258.281C9.46267 258.252 11.3259 260.088 11.3824 262.261Z" fill="#CB6CE6" fill-opacity="0.34"/>
<path d="M175.997 126.104C173.795 126.16 171.903 124.354 171.818 122.152C171.734 119.865 173.625 117.889 175.94 117.917C178.142 117.917 179.977 119.752 180.005 121.982C180.005 124.184 178.199 126.048 175.997 126.104Z" fill="#CB6CE6" fill-opacity="0.34"/>
<path d="M45.5422 243.742C45.514 241.399 47.3208 239.535 49.6639 239.535C52.0071 239.535 53.8421 241.37 53.8138 243.714C53.7856 245.972 52.0635 247.751 49.8051 247.807C47.4619 247.864 45.5987 246.085 45.5422 243.742Z" fill="#CB6CE6" fill-opacity="0.34"/>
<path d="M143.474 181.239C143.474 183.413 141.583 185.304 139.409 185.304C137.235 185.276 135.344 183.328 135.4 181.182C135.457 179.093 137.264 177.286 139.353 177.258C141.555 177.174 143.474 179.065 143.474 181.239Z" fill="#CB6CE6" fill-opacity="0.34"/>
<path d="M92.1227 229.457C89.9772 229.485 88.0575 227.594 88.0575 225.448C88.0575 223.303 89.9772 221.411 92.1227 221.44C94.1836 221.468 96.0186 223.274 96.075 225.335C96.1315 227.481 94.2683 229.429 92.1227 229.457Z" fill="#CB6CE6" fill-opacity="0.34"/>
<path d="M77.5276 239.451C75.382 239.479 73.4623 237.531 73.4906 235.386C73.547 233.325 75.3538 231.49 77.4429 231.461C79.5884 231.433 81.5081 233.381 81.4799 235.527C81.4234 237.616 79.5884 239.423 77.5276 239.451Z" fill="#CB6CE6" fill-opacity="0.34"/>
<path d="M177.578 134.884C177.522 136.973 175.658 138.751 173.569 138.723C171.395 138.695 169.532 136.691 169.673 134.545C169.814 132.456 171.734 130.706 173.795 130.819C175.884 130.931 177.634 132.823 177.578 134.884Z" fill="#CB6CE6" fill-opacity="0.34"/>
<path d="M103.105 214.862C103.161 212.688 105.165 210.853 107.311 210.994C109.4 211.135 111.15 213.027 111.094 215.088C111.037 217.261 109.033 219.096 106.887 218.955C104.798 218.814 103.048 216.923 103.105 214.862Z" fill="#CB6CE6" fill-opacity="0.34"/>
<path d="M203.578 60.9755C203.578 63.1211 201.602 65.0408 199.457 64.9561C197.368 64.8714 195.589 63.0364 195.589 60.9473C195.589 58.8017 197.565 56.8821 199.711 56.9668C201.8 57.0514 203.578 58.9147 203.578 60.9755Z" fill="#CB6CE6" fill-opacity="0.34"/>
<path d="M205.865 48.2715C205.837 50.4453 203.861 52.3085 201.715 52.1956C199.626 52.0827 197.848 50.2194 197.904 48.1586C197.932 45.9848 199.908 44.1216 202.054 44.2345C204.115 44.3192 205.893 46.2107 205.865 48.2715Z" fill="#CB6CE6" fill-opacity="0.34"/>
<path d="M200.19 35.4265C200.19 33.3374 201.997 31.5024 204.115 31.5024C206.288 31.4742 208.18 33.4221 208.095 35.5959C208.01 37.685 206.147 39.4635 204.058 39.4071C201.969 39.3506 200.19 37.5156 200.19 35.4265Z" fill="#CB6CE6" fill-opacity="0.34"/>
<path d="M58.5849 245.859C58.6414 243.713 60.4481 241.991 62.5937 242.076C64.7392 242.161 66.4331 243.996 66.3201 246.141C66.2072 248.202 64.4851 249.84 62.4243 249.811C60.2505 249.811 58.5284 248.005 58.5849 245.859Z" fill="#CB6CE6" fill-opacity="0.34"/>
<path d="M118.265 204.557C118.236 202.412 119.987 200.633 122.132 200.633C124.278 200.633 126.028 202.412 126 204.557C125.972 206.618 124.306 208.312 122.245 208.369C120.1 208.425 118.293 206.703 118.265 204.557Z" fill="#CB6CE6" fill-opacity="0.34"/>
<path d="M199.344 86.4113C199.372 88.5569 197.622 90.3354 195.476 90.3354C193.331 90.3354 191.58 88.5569 191.609 86.4113C191.637 84.3505 193.302 82.6566 195.363 82.6002C197.509 82.5437 199.316 84.2658 199.344 86.4113Z" fill="#CB6CE6" fill-opacity="0.34"/>
<path d="M201.686 73.7922C201.658 75.9095 199.823 77.688 197.706 77.6598C195.588 77.6316 193.81 75.7966 193.838 73.6793C193.866 71.562 195.701 69.7834 197.818 69.8116C199.936 69.8399 201.714 71.6749 201.686 73.7922Z" fill="#CB6CE6" fill-opacity="0.34"/>
<path d="M206.486 27.0138C204.341 27.0702 202.562 25.3199 202.534 23.1744C202.534 21.0288 204.284 19.2785 206.43 19.2785C208.491 19.3067 210.185 20.9441 210.269 23.005C210.354 25.1787 208.66 26.9855 206.486 27.0138Z" fill="#CB6CE6" fill-opacity="0.34"/>
<path d="M208.689 14.1123C206.571 14.1123 204.962 12.5031 204.962 10.3858C204.962 8.26849 206.571 6.65933 208.689 6.65933C210.806 6.65933 212.415 8.26849 212.415 10.3858C212.415 12.5313 210.834 14.1123 208.689 14.1123Z" fill="#CB6CE6" fill-opacity="0.34"/>
<path d="M153.948 174.548C151.775 174.52 150.165 172.769 150.25 170.567C150.335 168.478 152 166.954 154.118 166.982C156.292 167.01 157.901 168.761 157.816 170.963C157.703 173.052 156.037 174.604 153.948 174.548Z" fill="#CB6CE6" fill-opacity="0.34"/>
<path d="M16.2946 264.717C16.2382 262.515 17.9038 260.821 20.0776 260.85C22.1667 260.85 23.804 262.431 23.8323 264.52C23.8887 266.722 22.2231 268.415 20.0493 268.387C17.9603 268.415 16.3229 266.835 16.2946 264.717Z" fill="#CB6CE6" fill-opacity="0.34"/>
<path d="M193.302 102.983C191.185 103.039 189.519 101.487 189.463 99.3694C189.378 97.1674 191.043 95.4453 193.245 95.4735C195.363 95.4735 196.972 97.0827 196.972 99.2C196.972 101.317 195.419 102.955 193.302 102.983Z" fill="#CB6CE6" fill-opacity="0.34"/>
<path d="M171.451 151.258C169.306 151.314 167.668 149.761 167.64 147.644C167.584 145.499 169.136 143.861 171.254 143.833C173.399 143.776 175.037 145.329 175.065 147.446C175.121 149.564 173.569 151.201 171.451 151.258Z" fill="#CB6CE6" fill-opacity="0.34"/>
<path d="M90.175 241.37C88.2271 241.342 86.5897 239.648 86.6179 237.7C86.6462 235.752 88.34 234.115 90.2879 234.143C92.2359 234.172 93.8733 235.865 93.845 237.813C93.8168 239.761 92.1229 241.399 90.175 241.37Z" fill="#CB6CE6" fill-opacity="0.34"/>
<path d="M140.878 193.914C140.934 196.06 139.353 197.697 137.208 197.725C135.062 197.754 133.453 196.145 133.453 193.999C133.453 191.966 134.977 190.386 137.01 190.301C139.156 190.244 140.821 191.797 140.878 193.914Z" fill="#CB6CE6" fill-opacity="0.34"/>
<path d="M51.1033 256.389C51.1316 258.535 49.5224 260.144 47.3769 260.116C45.2313 260.116 43.6504 258.478 43.7068 256.333C43.7351 254.3 45.2878 252.747 47.3204 252.719C49.466 252.691 51.1033 254.272 51.1033 256.389Z" fill="#CB6CE6" fill-opacity="0.34"/>
<path d="M214.616 -2.23337C214.645 -3.33437 214.221 -4.29423 213.487 -5H208.434C207.756 -4.35069 207.333 -3.41908 207.305 -2.40277C207.276 -0.398381 208.857 1.23902 210.862 1.26725C212.894 1.32371 214.56 -0.228981 214.616 -2.23337Z" fill="#CB6CE6" fill-opacity="0.34"/>
<path d="M104.77 230.897C102.822 230.869 101.185 229.175 101.213 227.227C101.241 225.279 102.935 223.641 104.883 223.67C106.831 223.698 108.468 225.392 108.44 227.34C108.412 229.288 106.718 230.925 104.77 230.897Z" fill="#CB6CE6" fill-opacity="0.34"/>
<path d="M190.846 115.235C188.757 115.207 187.176 113.541 187.233 111.424C187.289 109.335 188.983 107.782 191.1 107.867C193.105 107.952 194.601 109.532 194.601 111.565C194.601 113.682 192.964 115.263 190.846 115.235Z" fill="#CB6CE6" fill-opacity="0.34"/>
<path d="M28.773 266.976C28.7447 265.056 30.4386 263.334 32.3583 263.334C34.278 263.334 36.0001 265.056 35.9436 266.976C35.9154 268.811 34.3062 270.448 32.4712 270.505C30.5515 270.589 28.8012 268.895 28.773 266.976Z" fill="#CB6CE6" fill-opacity="0.34"/>
<path d="M123.431 216.753C123.459 218.673 121.709 220.395 119.789 220.367C117.954 220.31 116.317 218.673 116.289 216.838C116.26 214.918 118.011 213.196 119.93 213.224C121.765 213.281 123.403 214.918 123.431 216.753Z" fill="#CB6CE6" fill-opacity="0.34"/>
<path d="M192.257 124.354C192.229 126.302 190.45 127.967 188.531 127.882C186.583 127.798 184.945 126.019 185.058 124.1C185.171 122.265 186.837 120.684 188.672 120.684C190.592 120.712 192.285 122.434 192.257 124.354Z" fill="#CB6CE6" fill-opacity="0.34"/>
<path d="M169.136 163.877C167.216 163.905 165.466 162.183 165.494 160.263C165.522 158.428 167.16 156.791 168.995 156.734C170.914 156.706 172.665 158.428 172.637 160.348C172.608 162.183 170.971 163.82 169.136 163.877Z" fill="#CB6CE6" fill-opacity="0.34"/>
<path d="M75.2692 251.788C73.4342 251.816 71.7404 250.235 71.6275 248.4C71.5145 246.48 73.2084 244.702 75.1281 244.645C77.0478 244.617 78.7981 246.339 78.7699 248.259C78.7416 250.122 77.1042 251.759 75.2692 251.788Z" fill="#CB6CE6" fill-opacity="0.34"/>
<path d="M152.254 187.111C150.335 187.139 148.584 185.389 148.641 183.469C148.669 181.634 150.335 179.997 152.17 179.968C154.089 179.94 155.84 181.69 155.783 183.61C155.727 185.445 154.089 187.083 152.254 187.111Z" fill="#CB6CE6" fill-opacity="0.34"/>
<path d="M8.61573 275.191C8.5875 277.139 6.80896 278.805 4.88927 278.72C2.94134 278.635 1.30395 276.857 1.41688 274.937C1.5298 273.102 3.19541 271.521 5.03042 271.521C6.97834 271.521 8.67219 273.243 8.61573 275.191Z" fill="#CB6CE6" fill-opacity="0.34"/>
<path d="M59.996 262.12C58.1045 262.035 56.6365 260.37 56.7494 258.478C56.8906 256.559 58.528 255.147 60.4477 255.316C62.2827 255.458 63.6377 257.01 63.5813 258.817C63.5248 260.737 61.8874 262.233 59.996 262.12Z" fill="#CB6CE6" fill-opacity="0.34"/>
<path d="M134.836 210.175C132.916 210.147 131.42 208.566 131.476 206.646C131.533 204.755 133.142 203.259 135.062 203.343C136.868 203.428 138.308 204.924 138.308 206.759C138.308 208.679 136.756 210.204 134.836 210.175Z" fill="#CB6CE6" fill-opacity="0.34"/>
<path d="M214.644 53.833C212.781 53.833 211.341 52.4497 211.256 50.6147C211.172 48.6668 212.64 47.1423 214.588 47.1141C216.536 47.1141 218.004 48.6103 217.975 50.5582C217.947 52.4497 216.507 53.833 214.644 53.833Z" fill="#CB6CE6" fill-opacity="0.34"/>
<path d="M212.245 66.5933C210.297 66.5369 208.886 64.956 208.999 63.008C209.112 61.173 210.608 59.818 212.471 59.8744C214.419 59.9309 215.831 61.5118 215.718 63.4597C215.577 65.323 214.109 66.6498 212.245 66.5933Z" fill="#CB6CE6" fill-opacity="0.34"/>
<path d="M210.1 79.3254C208.208 79.3254 206.797 77.9703 206.768 76.0789C206.712 74.1027 208.18 72.6347 210.184 72.663C212.076 72.7194 213.431 74.131 213.403 76.0224C213.374 77.9139 211.991 79.2972 210.1 79.3254Z" fill="#CB6CE6" fill-opacity="0.34"/>
<path d="M220.234 37.6567C220.291 39.5482 218.936 40.9879 217.073 41.0726C215.096 41.1573 213.6 39.6893 213.6 37.7132C213.628 35.8217 215.012 34.4384 216.903 34.4102C218.766 34.3819 220.178 35.7652 220.234 37.6567Z" fill="#CB6CE6" fill-opacity="0.34"/>
<path d="M189.745 137.057C189.745 139.005 188.22 140.473 186.272 140.417C184.409 140.36 183.026 138.921 183.026 137.057C183.026 135.11 184.55 133.642 186.498 133.698C188.333 133.754 189.745 135.194 189.745 137.057Z" fill="#CB6CE6" fill-opacity="0.34"/>
<path d="M170.04 172.967C170.096 174.859 168.713 176.298 166.821 176.327C164.93 176.355 163.518 174.943 163.518 173.052C163.518 171.245 164.817 169.89 166.624 169.805C168.515 169.721 169.983 171.076 170.04 172.967Z" fill="#CB6CE6" fill-opacity="0.34"/>
<path d="M222.437 24.8683C222.493 26.7598 221.11 28.1995 219.218 28.2278C217.327 28.256 215.915 26.8444 215.915 24.953C215.915 23.1462 217.214 21.7911 219.021 21.7064C220.912 21.6217 222.38 23.0051 222.437 24.8683Z" fill="#CB6CE6" fill-opacity="0.34"/>
<path d="M207.982 85.508C209.845 85.5927 211.172 87.089 211.059 89.0087C210.946 90.7872 209.535 92.0576 207.728 92.0294C205.837 92.0011 204.481 90.5331 204.538 88.6416C204.594 86.7502 206.062 85.4234 207.982 85.508Z" fill="#CB6CE6" fill-opacity="0.34"/>
<path d="M149.883 199.504C148.048 199.476 146.636 197.98 146.721 196.116C146.806 194.366 148.217 193.039 149.996 193.068C151.831 193.096 153.242 194.592 153.158 196.455C153.045 198.206 151.633 199.532 149.883 199.504Z" fill="#CB6CE6" fill-opacity="0.34"/>
<path d="M45.1752 272.424C43.3967 272.453 41.9851 271.126 41.9004 269.347C41.8157 267.456 43.2273 265.988 45.0905 265.959C46.982 265.931 48.3935 267.399 48.3653 269.262C48.3371 271.069 46.9538 272.396 45.1752 272.424Z" fill="#CB6CE6" fill-opacity="0.34"/>
<path d="M14.5447 277.478C14.4882 275.586 15.8715 274.146 17.763 274.118C19.6545 274.09 21.066 275.502 21.066 277.393C21.066 279.2 19.7674 280.555 17.9606 280.64C16.0409 280.724 14.5729 279.369 14.5447 277.478Z" fill="#CB6CE6" fill-opacity="0.34"/>
<path d="M184.07 153.008C182.32 153.008 180.908 151.596 180.88 149.846C180.852 148.011 182.376 146.543 184.211 146.6C185.933 146.656 187.317 148.124 187.288 149.874C187.26 151.625 185.82 153.008 184.07 153.008Z" fill="#CB6CE6" fill-opacity="0.34"/>
<path d="M209.167 101.6C209.111 103.322 207.671 104.705 205.949 104.705C204.114 104.677 202.674 103.124 202.787 101.317C202.9 99.5952 204.396 98.2401 206.119 98.3248C207.841 98.4095 209.196 99.8775 209.167 101.6Z" fill="#CB6CE6" fill-opacity="0.34"/>
<path d="M102.455 243.205C100.733 243.177 99.3217 241.653 99.35 239.959C99.3782 238.237 100.903 236.825 102.597 236.853C104.319 236.91 105.73 238.406 105.702 240.1C105.674 241.822 104.177 243.234 102.455 243.205Z" fill="#CB6CE6" fill-opacity="0.34"/>
<path d="M221.391 15.8626C219.669 15.8344 218.258 14.3946 218.258 12.6443C218.258 10.8093 219.81 9.36954 221.645 9.45424C223.367 9.53893 224.722 11.0352 224.666 12.7855C224.581 14.5358 223.113 15.8909 221.391 15.8626Z" fill="#CB6CE6" fill-opacity="0.34"/>
<path d="M132.662 222.145C131.025 222.174 129.585 220.762 129.557 219.125C129.529 217.487 130.94 216.047 132.578 216.019C134.215 215.991 135.655 217.402 135.683 219.04C135.711 220.649 134.3 222.089 132.662 222.145Z" fill="#CB6CE6" fill-opacity="0.34"/>
<path d="M117.672 232.703C115.978 232.76 114.454 231.292 114.425 229.598C114.397 227.904 115.893 226.323 117.587 226.408C119.422 226.493 120.523 227.565 120.721 229.4C120.89 231.066 119.366 232.647 117.672 232.703Z" fill="#CB6CE6" fill-opacity="0.34"/>
<path d="M84.8113 250.461C84.8395 248.767 86.364 247.299 88.086 247.355C89.7799 247.412 91.3043 248.993 91.1067 250.687C90.9091 252.493 89.8081 253.566 87.9731 253.651C86.251 253.735 84.783 252.155 84.8113 250.461Z" fill="#CB6CE6" fill-opacity="0.34"/>
<path d="M223.735 3.01761C222.126 3.01761 220.658 1.60607 220.63 -0.0313215C220.602 -1.72517 222.154 -3.24964 223.848 -3.19318C225.458 -3.13672 226.869 -1.64048 226.841 -0.0313215C226.813 1.57784 225.345 3.01761 223.735 3.01761Z" fill="#CB6CE6" fill-opacity="0.34"/>
<path d="M203.775 116.957C202.082 117.014 200.529 115.489 200.557 113.795C200.557 112.186 201.997 110.746 203.606 110.69C205.3 110.633 206.853 112.158 206.824 113.852C206.796 115.461 205.385 116.901 203.775 116.957Z" fill="#CB6CE6" fill-opacity="0.34"/>
<path d="M72.8694 264.04C71.232 264.012 69.8205 262.544 69.8487 260.934C69.8769 259.297 71.3449 257.885 72.9541 257.914C74.5915 257.942 76.003 259.41 75.9748 261.019C75.9466 262.685 74.4786 264.096 72.8694 264.04Z" fill="#CB6CE6" fill-opacity="0.34"/>
<path d="M5.70848 287.923C5.59555 289.702 4.12756 291 2.46194 290.803C0.683395 290.577 -0.219987 289.448 -0.191756 287.697C-0.163525 286.032 1.36094 284.733 3.02656 284.931C4.8051 285.156 5.65201 286.286 5.70848 287.923Z" fill="#CB6CE6" fill-opacity="0.34"/>
<path d="M27.0793 279.595C27.1357 277.958 28.6037 276.574 30.2411 276.659C31.8785 276.744 33.2901 278.268 33.0924 279.877C32.8948 281.628 31.8221 282.616 30.0717 282.672C28.4344 282.729 27.0228 281.232 27.0793 279.595Z" fill="#CB6CE6" fill-opacity="0.34"/>
<path d="M167.527 185.699C167.584 187.337 166.2 188.805 164.563 188.833C162.925 188.861 161.429 187.449 161.514 185.812C161.599 184.062 162.615 183.017 164.337 182.82C165.946 182.622 167.442 184.062 167.527 185.699Z" fill="#CB6CE6" fill-opacity="0.34"/>
<path d="M184.777 162.493C184.777 164.272 183.365 165.655 181.7 165.514C179.921 165.373 178.933 164.328 178.877 162.55C178.82 160.884 180.26 159.473 181.954 159.614C183.704 159.783 184.636 160.828 184.777 162.493Z" fill="#CB6CE6" fill-opacity="0.34"/>
<path d="M201.461 129.492C199.711 129.379 198.666 128.475 198.525 126.697C198.412 125.003 199.767 123.62 201.461 123.704C203.24 123.789 204.284 124.805 204.284 126.584C204.284 128.362 203.211 129.322 201.461 129.492Z" fill="#CB6CE6" fill-opacity="0.34"/>
<path d="M201.912 139.203C201.771 140.897 200.952 141.97 199.259 142.054C197.565 142.111 196.52 141.151 196.435 139.457C196.379 137.763 197.339 136.719 199.033 136.634C200.727 136.549 201.63 137.566 201.912 139.203Z" fill="#CB6CE6" fill-opacity="0.34"/>
<path d="M57.8507 268.641C59.6857 268.754 60.8714 270.081 60.6738 271.718C60.4762 273.525 59.347 274.429 57.5684 274.259C55.8746 274.118 54.9994 273.017 55.0559 271.351C55.1688 269.516 56.298 268.698 57.8507 268.641Z" fill="#CB6CE6" fill-opacity="0.34"/>
<path d="M150.476 208.623C150.278 210.401 149.347 211.446 147.54 211.389C145.733 211.333 144.773 210.232 144.83 208.453C144.886 206.759 145.903 205.8 147.596 205.8C149.431 205.8 150.335 206.872 150.476 208.623Z" fill="#CB6CE6" fill-opacity="0.34"/>
<path d="M42.2672 284.93C41.5897 283.914 40.4887 282.954 40.3475 281.882C40.1499 280.385 41.3356 279.341 42.9165 279.369C44.4974 279.397 45.6549 280.47 45.3726 281.994C45.175 283.067 44.0457 283.971 43.3117 284.959C42.973 284.959 42.606 284.93 42.2672 284.93Z" fill="#CB6CE6" fill-opacity="0.34"/>
<path d="M14.9964 293.202C14.2906 292.214 13.2461 291.311 12.9073 290.21C12.5121 288.855 14.1494 287.387 15.5892 287.528C17.1419 287.697 18.3276 288.685 18.0453 290.21C17.8477 291.311 16.7184 292.214 16.0127 293.202C15.7021 293.174 15.3634 293.202 14.9964 293.202Z" fill="#CB6CE6" fill-opacity="0.34"/>
<path d="M179.045 178.359C178.34 177.371 177.295 176.468 176.956 175.367C176.561 174.012 178.198 172.544 179.638 172.685C181.191 172.854 182.377 173.842 182.094 175.367C181.897 176.468 180.767 177.371 180.062 178.387C179.723 178.359 179.384 178.359 179.045 178.359Z" fill="#CB6CE6" fill-opacity="0.34"/>
<path d="M229.042 43.0207C228.364 42.0044 227.348 41.0728 227.094 39.9435C226.755 38.5884 228.477 37.1487 229.861 37.3463C231.413 37.5721 232.543 38.6167 232.232 40.1129C232.006 41.1857 230.821 42.0608 230.087 43.0489C229.72 43.0489 229.381 43.0489 229.042 43.0207Z" fill="#CB6CE6" fill-opacity="0.34"/>
<path d="M99.8296 255.853C99.0956 254.893 98.0228 254.018 97.6558 252.917C97.2323 251.59 98.8415 250.065 100.281 250.15C101.862 250.263 103.02 251.251 102.822 252.747C102.653 253.848 101.552 254.808 100.874 255.825C100.535 255.825 100.197 255.825 99.8296 255.853Z" fill="#CB6CE6" fill-opacity="0.34"/>
<path d="M225.88 68.3155C223.509 68.0332 222.436 67.1863 222.436 65.4924C222.436 63.9115 223.452 62.8952 225.005 62.867C226.699 62.8387 227.913 63.9115 227.687 65.5489C227.546 66.6217 226.416 67.5815 225.88 68.3155Z" fill="#CB6CE6" fill-opacity="0.34"/>
<path d="M114.708 245.351C114.002 244.335 112.985 243.403 112.703 242.302C112.364 240.947 114.03 239.479 115.442 239.677C116.994 239.874 118.152 240.919 117.841 242.415C117.615 243.488 116.458 244.391 115.724 245.379C115.413 245.351 115.046 245.351 114.708 245.351Z" fill="#CB6CE6" fill-opacity="0.34"/>
<path d="M159.228 198.093C160.216 197.387 161.119 196.229 162.192 196.032C163.688 195.778 164.761 196.935 164.817 198.488C164.846 200.069 163.801 201.254 162.305 201.057C161.232 200.916 160.272 199.815 159.256 199.137C159.228 198.798 159.228 198.46 159.228 198.093Z" fill="#CB6CE6" fill-opacity="0.34"/>
<path d="M222.295 81.3299C221.59 80.3418 220.545 79.4102 220.263 78.3092C219.896 76.9541 221.561 75.4861 222.973 75.6555C224.526 75.8249 225.683 76.8412 225.401 78.3657C225.203 79.4667 224.046 80.3701 223.34 81.3582C222.973 81.3299 222.634 81.3299 222.295 81.3299Z" fill="#CB6CE6" fill-opacity="0.34"/>
<path d="M230.2 51.998C229.918 54.3412 229.042 55.4422 227.349 55.4139C225.768 55.3857 224.751 54.3976 224.751 52.8167C224.723 51.1228 225.824 49.9089 227.433 50.163C228.506 50.3324 229.438 51.4898 230.2 51.998Z" fill="#CB6CE6" fill-opacity="0.34"/>
<path d="M129.924 234.793C129.218 233.833 128.061 232.929 127.863 231.857C127.609 230.36 128.823 229.09 130.319 229.372C131.279 229.542 132.662 230.812 132.747 231.687C132.832 232.647 131.646 233.72 130.997 234.764C130.63 234.764 130.263 234.764 129.924 234.793Z" fill="#CB6CE6" fill-opacity="0.34"/>
<path d="M217.608 90.5048C218.596 89.8273 219.556 88.7263 220.629 88.5851C222.154 88.3875 223.339 89.6579 223.029 91.1259C222.803 92.0858 221.504 93.4126 220.629 93.4409C219.669 93.4973 218.625 92.2551 217.637 91.5776C217.608 91.2106 217.608 90.8718 217.608 90.5048Z" fill="#CB6CE6" fill-opacity="0.34"/>
<path d="M231.328 30.1756C230.679 29.1593 229.578 28.1995 229.465 27.1267C229.296 25.6023 230.594 24.4166 232.091 24.8118C233.051 25.0659 234.321 26.3927 234.349 27.2679C234.377 28.2277 233.107 29.244 232.401 30.2039C232.062 30.2039 231.695 30.1756 231.328 30.1756Z" fill="#CB6CE6" fill-opacity="0.34"/>
<path d="M85.0651 266.129C84.444 265.113 83.2583 264.068 83.343 263.108C83.4277 262.261 84.7828 261.019 85.7426 260.85C87.2671 260.596 88.3963 261.866 88.0858 263.39C87.8882 264.407 86.7872 265.225 86.1096 266.129C85.7709 266.129 85.4038 266.129 85.0651 266.129Z" fill="#CB6CE6" fill-opacity="0.34"/>
<path d="M199.626 152.754C198.666 153.347 197.763 154.307 196.746 154.42C195.25 154.617 194.403 153.488 194.46 151.963C194.516 150.439 195.504 149.423 196.944 149.733C197.932 149.959 198.779 151.004 199.682 151.653C199.654 152.048 199.654 152.415 199.626 152.754Z" fill="#CB6CE6" fill-opacity="0.34"/>
<path d="M69.9899 276.433C69.4253 275.53 68.5219 274.683 68.3807 273.751C68.1549 272.255 69.1994 271.38 70.7521 271.436C72.3048 271.493 73.2364 272.509 72.8977 273.949C72.6718 274.88 71.6837 275.643 71.0344 276.49C70.6956 276.461 70.3569 276.461 69.9899 276.433Z" fill="#CB6CE6" fill-opacity="0.34"/>
<path d="M148.076 221.891C147.201 222.484 146.411 223.444 145.451 223.613C143.955 223.895 143.023 222.879 143.051 221.326C143.051 219.774 144.011 218.786 145.479 219.068C146.439 219.237 147.229 220.197 148.076 220.818C148.076 221.185 148.076 221.552 148.076 221.891Z" fill="#CB6CE6" fill-opacity="0.34"/>
<path d="M231.498 14.3382C232.373 13.7453 233.22 12.8419 234.152 12.6725C235.648 12.4185 236.551 13.463 236.523 14.9875C236.495 16.5402 235.507 17.5 234.039 17.1895C233.107 16.9919 232.317 16.0038 231.47 15.3827C231.498 15.0439 231.498 14.7052 231.498 14.3382Z" fill="#CB6CE6" fill-opacity="0.34"/>
<path d="M217.75 106.145C217.1 105.213 216.112 104.366 215.915 103.35C215.661 101.882 216.705 100.95 218.23 100.95C219.754 100.95 220.827 101.854 220.573 103.322C220.403 104.338 219.415 105.213 218.794 106.145C218.456 106.145 218.117 106.145 217.75 106.145Z" fill="#CB6CE6" fill-opacity="0.34"/>
<path d="M215.576 118.764C214.955 117.917 213.798 117.014 213.854 116.195C213.939 115.348 215.181 114.586 215.887 113.795C216.677 114.529 217.976 115.179 218.117 115.997C218.258 116.788 217.157 117.776 216.621 118.679C216.282 118.736 215.915 118.736 215.576 118.764Z" fill="#CB6CE6" fill-opacity="0.34"/>
<path d="M27.6721 295.009C27.1075 294.106 26.0912 293.174 26.1477 292.299C26.2041 291.537 27.5874 290.21 28.1803 290.323C29.0554 290.464 30.2411 291.621 30.3541 292.468C30.4387 293.259 29.2813 294.19 28.6884 295.065C28.3497 295.037 28.0109 295.037 27.6721 295.009Z" fill="#CB6CE6" fill-opacity="0.34"/>
<path d="M-2.67622 300.712C-1.23645 299.639 -0.361296 298.51 0.400936 298.594C1.1914 298.651 1.89717 299.865 2.6594 300.57C1.95363 301.333 1.30433 302.546 0.513862 302.659C-0.24837 302.772 -1.15176 301.7 -2.67622 300.712Z" fill="#CB6CE6" fill-opacity="0.34"/>
<path d="M236.467 5.36067C235.45 3.9209 234.265 2.93283 234.406 2.25529C234.603 1.38013 235.846 0.702599 236.608 -0.0314026C237.314 0.73083 238.499 1.46483 238.556 2.28352C238.64 3.04576 237.511 3.9209 236.467 5.36067Z" fill="#CB6CE6" fill-opacity="0.34"/>
<path d="M177.098 191.233C176.138 189.736 175.009 188.748 175.178 188.071C175.404 187.196 176.674 186.603 177.493 185.869C178.17 186.659 179.328 187.45 179.356 188.268C179.356 189.031 178.199 189.849 177.098 191.233Z" fill="#CB6CE6" fill-opacity="0.34"/>
<path d="M194.035 167.293C193.499 166.446 192.455 165.514 192.567 164.78C192.709 163.99 193.894 163.002 194.741 162.889C195.306 162.832 196.548 164.159 196.548 164.865C196.548 165.684 195.532 166.502 194.967 167.321C194.685 167.293 194.346 167.293 194.035 167.293Z" fill="#CB6CE6" fill-opacity="0.34"/>
<path d="M211.285 128.927C212.584 127.939 213.346 126.894 214.052 126.923C214.814 126.951 215.492 128.052 216.226 128.673C215.548 129.407 214.955 130.564 214.136 130.762C213.515 130.931 212.612 129.859 211.285 128.927Z" fill="#CB6CE6" fill-opacity="0.34"/>
<path d="M58.0767 284.592C57.258 285.185 56.4111 286.286 55.6489 286.201C54.8584 286.116 53.7856 284.987 53.6163 284.168C53.5033 283.604 54.7455 282.277 55.4795 282.22C56.2982 282.164 57.1733 283.124 58.0203 283.66C58.0485 283.971 58.0485 284.281 58.0767 284.592Z" fill="#CB6CE6" fill-opacity="0.34"/>
<path d="M157.957 210.429C158.776 209.865 159.679 208.792 160.413 208.877C161.204 208.99 162.248 210.147 162.39 210.966C162.474 211.53 161.204 212.801 160.47 212.857C159.651 212.886 158.804 211.897 157.957 211.361C157.957 211.051 157.957 210.74 157.957 210.429Z" fill="#CB6CE6" fill-opacity="0.34"/>
<path d="M214.418 141.546C213.232 142.421 212.555 143.296 211.934 143.268C211.285 143.212 210.72 142.252 210.127 141.687C210.692 141.094 211.2 140.078 211.849 139.993C212.47 139.881 213.204 140.756 214.418 141.546Z" fill="#CB6CE6" fill-opacity="0.34"/>
<path d="M98.4181 268.274C97.5429 266.919 96.6113 266.129 96.7242 265.48C96.8372 264.802 97.8534 263.955 98.5592 263.814C99.0109 263.729 100.112 264.858 100.14 265.48C100.168 266.214 99.3215 266.948 98.4181 268.274Z" fill="#CB6CE6" fill-opacity="0.34"/>
<path d="M172.44 200.323C173.654 199.532 174.416 198.657 175.009 198.77C175.658 198.855 176.167 199.871 176.731 200.464C176.138 201.028 175.545 201.988 174.924 202.045C174.303 202.073 173.626 201.17 172.44 200.323Z" fill="#CB6CE6" fill-opacity="0.34"/>
<path d="M128.117 247.327C127.214 246 126.282 245.21 126.367 244.589C126.451 243.911 127.439 243.008 128.174 242.895C128.625 242.81 129.754 243.911 129.783 244.504C129.811 245.21 128.964 245.944 128.117 247.327Z" fill="#CB6CE6" fill-opacity="0.34"/>
<path d="M115.724 254.949C114.51 255.881 113.748 256.926 113.183 256.813C112.421 256.672 111.828 255.683 111.151 255.034C111.772 254.413 112.308 253.397 113.014 253.312C113.663 253.227 114.425 254.131 115.724 254.949Z" fill="#CB6CE6" fill-opacity="0.34"/>
<path d="M235.592 67.7226C236.637 67.0168 237.371 66.1699 237.822 66.311C238.472 66.4804 238.923 67.3838 239.432 67.9767C238.867 68.4566 238.302 69.2753 237.71 69.3035C237.173 69.3317 236.58 68.5131 235.592 67.7226Z" fill="#CB6CE6" fill-opacity="0.34"/>
<path d="M140.623 233.974C141.894 233.24 142.656 232.421 143.249 232.534C143.87 232.675 144.604 233.663 144.688 234.341C144.745 234.764 143.644 235.724 143.079 235.696C142.402 235.668 141.752 234.849 140.623 233.974Z" fill="#CB6CE6" fill-opacity="0.34"/>
<path d="M13.3586 305.398C12.4835 304.24 11.5801 303.563 11.6366 302.97C11.693 302.349 12.5964 301.502 13.2457 301.333C13.6692 301.248 14.742 302.208 14.7984 302.772C14.8549 303.422 14.1209 304.128 13.3586 305.398Z" fill="#CB6CE6" fill-opacity="0.34"/>
<path d="M192.23 180.081C191.467 178.839 190.62 178.105 190.733 177.512C190.846 176.891 191.806 176.129 192.484 176.016C192.907 175.96 193.895 177.032 193.895 177.597C193.867 178.246 193.076 178.896 192.23 180.081Z" fill="#CB6CE6" fill-opacity="0.34"/>
<path d="M40.4319 292.214C41.3071 293.372 42.1258 293.993 42.154 294.642C42.1822 295.178 41.2224 296.279 40.7989 296.251C40.1214 296.166 39.1333 295.432 38.9921 294.84C38.8792 294.275 39.6979 293.485 40.4319 292.214Z" fill="#CB6CE6" fill-opacity="0.34"/>
<path d="M83.4559 278.494C82.6372 277.308 81.7621 276.574 81.8468 276.01C81.9315 275.389 82.8631 274.57 83.5406 274.429C83.9641 274.344 85.0086 275.36 85.0086 275.925C85.0086 276.602 84.2182 277.28 83.4559 278.494Z" fill="#CB6CE6" fill-opacity="0.34"/>
<path d="M239.996 57.3055C239.318 56.2327 238.5 55.4705 238.641 55.0188C238.838 54.3695 239.742 53.9742 240.363 53.4661C240.815 54.0589 241.633 54.6236 241.633 55.2164C241.633 55.781 240.786 56.3456 239.996 57.3055Z" fill="#CB6CE6" fill-opacity="0.34"/>
<path d="M244.852 31.5307C244.118 30.5991 243.384 30.0627 243.412 29.5828C243.44 29.0746 244.174 28.3971 244.739 28.2559C245.049 28.1712 245.953 28.9617 245.981 29.3852C246.009 29.9216 245.416 30.5144 244.852 31.5307Z" fill="#CB6CE6" fill-opacity="0.34"/>
<path d="M235.423 82.7414C234.801 81.6686 234.124 81.0193 234.18 80.4265C234.209 79.9466 235.253 79.0714 235.564 79.1843C236.157 79.3819 236.862 80.116 236.947 80.737C237.06 81.1605 236.241 81.7533 235.423 82.7414Z" fill="#CB6CE6" fill-opacity="0.34"/>
<path d="M158.183 225.646C157.505 224.686 156.856 224.15 156.828 223.613C156.8 223.19 157.618 222.286 157.957 222.343C158.522 222.456 159.312 223.049 159.397 223.557C159.482 224.037 158.804 224.629 158.183 225.646Z" fill="#CB6CE6" fill-opacity="0.34"/>
<path d="M207.756 154.476C208.547 153.827 209.111 153.064 209.478 153.121C210.043 153.234 210.466 153.94 210.946 154.419C210.495 154.843 210.099 155.577 209.619 155.605C209.139 155.662 208.603 155.041 207.756 154.476Z" fill="#CB6CE6" fill-opacity="0.34"/>
<path d="M235.366 93.2432C234.406 93.949 233.841 94.683 233.361 94.6266C232.825 94.5701 232.006 93.8079 232.006 93.3279C232.006 92.848 232.768 92.0293 233.305 91.9728C233.756 91.9164 234.378 92.6222 235.366 93.2432Z" fill="#CB6CE6" fill-opacity="0.34"/>
<path d="M68.4653 288.516C67.7596 287.584 67.0256 287.02 67.082 286.54C67.1385 286.032 67.8725 285.382 68.4371 285.241C68.7476 285.156 69.651 285.975 69.651 286.399C69.6793 286.935 69.0582 287.5 68.4653 288.516Z" fill="#CB6CE6" fill-opacity="0.34"/>
<path d="M230.934 107.472C230.369 106.625 229.663 106.004 229.776 105.637C229.946 105.1 230.68 104.733 231.188 104.281C231.583 104.761 232.261 105.241 232.261 105.721C232.289 106.201 231.583 106.681 230.934 107.472Z" fill="#CB6CE6" fill-opacity="0.34"/>
<path d="M242.423 44.4605C241.717 43.4159 241.012 42.8231 241.012 42.2585C241.012 41.7785 241.859 41.2986 242.31 40.7904C242.847 41.2986 243.637 41.7221 243.778 42.3431C243.919 42.7666 243.157 43.4159 242.423 44.4605Z" fill="#CB6CE6" fill-opacity="0.34"/>
</g>
</svg>
