
<svg width="130" height="121" viewBox="0 0 130 121" fill="none" xmlns="http://www.w3.org/2000/svg">
<path d="M116.88 85.09C116.519 85.263 116.312 85.6573 116.378 86.0513C116.478 86.6448 117.117 86.9804 117.661 86.7197L118.419 86.3547L119.009 86.0609L119.606 85.7568L120.21 85.4424L120.927 85.0607C121.268 84.8731 121.453 84.4886 121.381 84.1055C121.267 83.5019 120.598 83.1786 120.058 83.4761L119.369 83.8433L118.779 84.1503L118.196 84.4467L117.622 84.7322L116.88 85.09ZM108.582 88.138C108.258 88.216 108 88.4836 107.924 88.8066C107.775 89.4724 108.361 90.05 109.024 89.8895L109.376 89.8041L109.86 89.6784L110.348 89.5429L110.843 89.3988L111.344 89.2452L111.85 89.0815L112.362 88.9087L112.572 88.8351C113.447 88.5229 113.337 87.229 112.382 87.0884C112.228 87.072 112.108 87.0844 111.961 87.1348L111.774 87.2008L111.283 87.3661L110.801 87.5215L110.325 87.6683L109.855 87.8056L109.392 87.933L108.935 88.0512L108.582 88.138ZM100.044 88.4527C99.095 88.2518 98.5351 89.4815 99.3177 90.0652C99.4232 90.1398 99.5323 90.1918 99.6595 90.2189L99.7396 90.2373L100.104 90.3127L100.473 90.3778L100.846 90.4363L101.225 90.4862L101.608 90.5287L101.996 90.5613L102.389 90.5862L102.786 90.6028L103.19 90.6109L103.449 90.6107C103.86 90.6047 104.203 90.3338 104.312 89.9392C104.465 89.3565 104.029 88.8041 103.428 88.8039L103.207 88.8031L102.843 88.7963L102.485 88.7817L102.131 88.7589L101.783 88.7294L101.442 88.6915L101.104 88.6469L100.773 88.5951L100.446 88.536L100.124 88.4698L100.044 88.4527ZM92.8847 84.1603C92.2626 83.4852 91.135 84.0761 91.3415 84.9776C91.3823 85.1377 91.4461 85.2656 91.5593 85.3878L91.6529 85.491L91.8971 85.7492L92.1443 86.0026L92.396 86.2485L92.6507 86.4901L92.9109 86.7266L93.1743 86.955L93.4419 87.1786L93.7136 87.3971L93.9903 87.6085L94.2713 87.8139L94.4141 87.9128C94.73 88.1258 95.1447 88.1219 95.453 87.8969C95.9564 87.5297 95.9481 86.7678 95.4297 86.4184L95.3216 86.3421L95.0723 86.1616L94.8273 85.9734L94.5857 85.7795L94.3471 85.5801L94.1114 85.3753L93.8785 85.1644L93.6493 84.9476L93.4228 84.7244L93.1988 84.4966L92.9786 84.263L92.8847 84.1603ZM88.2621 76.766C87.8338 75.8691 86.4906 76.2107 86.5418 77.2033C86.5501 77.3227 86.5762 77.4212 86.6253 77.5295L86.9626 78.252L87.1362 78.6124L87.3126 78.9695L87.4909 79.3222L87.6714 79.6709L87.854 80.0172L88.0397 80.3576L88.3007 80.8231C88.8244 81.7019 90.1751 81.1882 89.9638 80.1681C89.9405 80.0757 89.9111 79.9958 89.8638 79.9145L89.6225 79.4857L89.4462 79.161L89.2715 78.8331L89.0987 78.4994L88.928 78.1619L88.76 77.8205L88.5924 77.4753L88.4277 77.1253L88.2621 76.766ZM85.1128 68.4197C84.8237 67.5747 83.6452 67.5967 83.3865 68.4463C83.3357 68.6288 83.3372 68.7989 83.395 68.9799C83.7702 70.1353 84.1616 71.2827 84.5705 72.4261C84.8996 73.2876 86.117 73.1959 86.3091 72.2828C86.3376 72.1168 86.3251 71.9741 86.2698 71.8137C85.8682 70.6866 85.4833 69.557 85.1128 68.4197ZM82.4705 59.8014C82.1899 58.873 80.8285 58.9767 80.7069 59.9645C80.6938 60.083 80.7051 60.206 80.7404 60.3214C81.0881 61.4752 81.4312 62.6304 81.7798 63.7838C82.0508 64.6804 83.3578 64.633 83.537 63.6622C83.5571 63.5259 83.5487 63.3952 83.5094 63.2623C83.1614 62.1082 82.8184 60.9536 82.4705 59.8014ZM79.7348 51.1541C79.4306 50.2655 78.125 50.3727 77.9845 51.3284C77.9664 51.4698 77.979 51.6041 78.0256 51.7391C78.4153 52.871 78.7882 54.0109 79.1516 55.1513C79.4184 55.99 80.6086 55.9937 80.878 55.1395C80.9285 54.9573 80.9327 54.788 80.8739 54.6061C80.5075 53.4524 80.13 52.299 79.7348 51.1541ZM76.3791 42.6728C76.2565 42.4008 76.006 42.2136 75.7154 42.159C74.995 42.0359 74.4368 42.7596 74.7361 43.4254L75.0687 44.1508L75.2527 44.565L75.6144 45.3983C75.797 45.8311 75.98 46.2641 76.1551 46.6992C76.5328 47.6249 77.9108 47.3539 77.8977 46.3394C77.8936 46.2292 77.8731 46.1341 77.833 46.0305C77.653 45.5818 77.4652 45.1356 77.2769 44.6907L76.906 43.8345L76.7174 43.4096L76.3791 42.6728ZM71.7794 34.7031C71.1977 33.9262 69.9829 34.4632 70.1621 35.4141C70.19 35.5471 70.2402 35.6562 70.3181 35.7665L70.5693 36.1159L70.8143 36.4658L71.0556 36.8189L71.294 37.1755L71.5285 37.5353L71.7598 37.8997L71.9883 38.2675L72.2561 38.7092C72.4574 39.0486 72.8504 39.2221 73.2353 39.1334C73.832 38.9967 74.1231 38.3229 73.8146 37.7939L73.528 37.3206L73.29 36.9371L73.048 36.5579L72.802 36.1806L72.5532 35.8067L72.2999 35.4363L72.0432 35.0699L71.7794 34.7031ZM65.3086 28.0785C64.7612 27.6664 63.9841 27.9756 63.868 28.6517C63.8198 28.982 63.9417 29.3116 64.2121 29.5149L64.5524 29.7698L64.8801 30.0255L65.2036 30.2855L65.5232 30.5503L65.8381 30.82L66.1485 31.0952L66.4546 31.3746L66.7561 31.6597L66.8782 31.7781C67.5904 32.4725 68.7487 31.6777 68.3301 30.7488C68.282 30.6516 68.2256 30.5683 68.1475 30.4912L68.0068 30.3539L67.6843 30.05L67.3567 29.7515L67.0255 29.4574L66.6886 29.1686L66.3474 28.8852L66.0001 28.607L65.6495 28.3339L65.3086 28.0785ZM56.9498 23.9609C55.9982 23.6903 55.3529 24.9188 56.1502 25.5486C56.2429 25.6175 56.3308 25.6611 56.4413 25.6958L56.9374 25.8447L57.3702 25.9841L57.797 26.1293L58.2183 26.2817L58.634 26.4396L59.0432 26.6046L59.4473 26.7749L59.714 26.8926C60.0021 27.026 60.3522 26.9918 60.6105 26.807C61.1783 26.3986 61.0947 25.5394 60.4611 25.2474L60.1651 25.1161L59.7321 24.9323L59.2933 24.7568L58.8477 24.5868L58.3965 24.424L57.94 24.2677L57.4772 24.1189L56.9498 23.9609ZM47.8034 22.6389C46.9166 22.6203 46.53 23.7405 47.2449 24.2727C47.3997 24.3817 47.5584 24.4386 47.7493 24.4455C48.9314 24.4786 50.1012 24.559 51.2772 24.6921C51.6655 24.7373 52.0455 24.5225 52.2047 24.1649C52.4564 23.6079 52.0873 22.9667 51.4834 22.8962C50.2564 22.7578 49.0377 22.6738 47.8034 22.6389ZM38.6207 23.3572C37.741 23.5174 37.605 24.7361 38.4481 25.0845C38.6157 25.147 38.7699 25.1667 38.9474 25.1347C40.1008 24.9161 41.2825 24.7556 42.4502 24.6389C43.2507 24.5526 43.5537 23.5587 42.9384 23.0446C42.7458 22.8923 42.5199 22.8143 42.2729 22.8408C41.0539 22.9634 39.8247 23.1288 38.6207 23.3572ZM29.7955 26.0368C29.0616 26.3674 29.0801 27.4046 29.8246 27.7044C30.0536 27.7895 30.2951 27.794 30.5212 27.6924C31.596 27.2183 32.6949 26.7976 33.8125 26.4338C34.1828 26.3159 34.4417 25.9586 34.4363 25.5687C34.4289 24.9546 33.8386 24.5288 33.2534 24.7146C32.0789 25.0992 30.9262 25.5382 29.7955 26.0368ZM21.9843 31.0876C21.8296 31.2375 21.7409 31.4087 21.7098 31.6217C21.5985 32.4645 22.5979 32.9823 23.2258 32.4004C24.0485 31.6157 24.9861 30.8675 25.9285 30.2291C26.7211 29.6746 26.2262 28.4481 25.2789 28.5897C25.1394 28.6133 25.0282 28.6578 24.9109 28.7367C23.8851 29.437 22.883 30.2296 21.9843 31.0876ZM128.727 80.3632C128.965 80.2044 129.105 79.9619 129.13 79.6782C129.183 78.9269 128.356 78.4405 127.733 78.8541L127.042 79.3055L126.36 79.7458L125.684 80.1742L125.018 80.5915L124.706 80.7833C123.924 81.2752 124.289 82.4826 125.22 82.4542C125.377 82.446 125.525 82.4025 125.659 82.3187L125.971 82.126L126.649 81.7025L127.333 81.2668L128.026 80.8201L128.727 80.3632Z" fill="#CB6CE6"/>
<path fill-rule="evenodd" clip-rule="evenodd" d="M23.4689 32.6481L0.000183877 41.1045L18.7932 27.1783L23.4689 32.6481Z" fill="#7C3B8E"/>
<path fill-rule="evenodd" clip-rule="evenodd" d="M0.000267074 41.1044L18.3234 22.8149L18.7933 27.1782L0.000267074 41.1044Z" fill="#CB6CE6"/>
<path fill-rule="evenodd" clip-rule="evenodd" d="M19.2752 30.7647L20.4194 40.5264L0.0002838 41.1043L19.2752 30.7647Z" fill="#CB6CE6"/>
<path fill-rule="evenodd" clip-rule="evenodd" d="M23.469 32.648L19.2751 30.7648L19.6955 34.3526L23.469 32.648Z" fill="#CB6CE6"/>
</svg>
