
<svg width="130" height="121" viewBox="0 0 130 121" fill="none" xmlns="http://www.w3.org/2000/svg">
<path d="M12.6221 85.09C12.9825 85.263 13.1897 85.6573 13.1233 86.0513C13.0236 86.6448 12.3851 86.9804 11.8407 86.7197L11.0832 86.3547L10.4926 86.0609L9.8955 85.7568L9.29157 85.4424L8.57433 85.0607C8.23402 84.8731 8.04898 84.4886 8.1206 84.1055C8.2351 83.5019 8.90358 83.1786 9.44369 83.4761L10.133 83.8433L10.7228 84.1503L11.3055 84.4467L11.8796 84.7322L12.6221 85.09ZM20.9193 88.138C21.2439 88.216 21.5013 88.4836 21.5779 88.8066C21.7266 89.4724 21.1406 90.05 20.4776 89.8895L20.1255 89.8041L19.6413 89.6784L19.1535 89.5429L18.6585 89.3988L18.1578 89.2452L17.6515 89.0815L17.1393 88.9087L16.9298 88.8351C16.0548 88.5229 16.165 87.229 17.1201 87.0884C17.2736 87.072 17.3941 87.0844 17.5408 87.1348L17.7282 87.2008L18.2183 87.3661L18.7012 87.5215L19.177 87.6683L19.6471 87.8056L20.1101 87.933L20.5666 88.0512L20.9193 88.138ZM29.458 88.4527C30.4068 88.2518 30.9667 89.4815 30.184 90.0652C30.0785 90.1398 29.9694 90.1918 29.8423 90.2189L29.7622 90.2373L29.3979 90.3127L29.0292 90.3778L28.6554 90.4363L28.2772 90.4862L27.8941 90.5287L27.5059 90.5613L27.113 90.5862L26.7156 90.6028L26.3122 90.6109L26.0526 90.6107C25.6419 90.6047 25.2986 90.3338 25.1899 89.9392C25.0371 89.3565 25.473 88.8041 26.074 88.8039L26.2948 88.8031L26.6588 88.7963L27.0172 88.7817L27.3706 88.7589L27.7183 88.7294L28.0601 88.6915L28.3975 88.6469L28.7289 88.5951L29.0558 88.536L29.3779 88.4698L29.458 88.4527ZM36.617 84.1603C37.2391 83.4852 38.3668 84.0761 38.1603 84.9776C38.1194 85.1377 38.0556 85.2656 37.9425 85.3878L37.8489 85.491L37.6047 85.7492L37.3575 86.0026L37.1058 86.2485L36.851 86.4901L36.5909 86.7266L36.3274 86.955L36.0599 87.1786L35.7881 87.3971L35.5115 87.6085L35.2304 87.8139L35.0876 87.9128C34.7717 88.1258 34.3571 88.1219 34.0487 87.8969C33.5454 87.5297 33.5537 86.7678 34.0721 86.4184L34.1802 86.3421L34.4295 86.1616L34.6745 85.9734L34.916 85.7795L35.1546 85.5801L35.3904 85.3753L35.6233 85.1644L35.8524 84.9476L36.079 84.7244L36.3029 84.4966L36.5231 84.263L36.617 84.1603ZM41.2396 76.766C41.668 75.8691 43.0111 76.2107 42.9599 77.2033C42.9517 77.3227 42.9256 77.4212 42.8764 77.5295L42.5391 78.252L42.3655 78.6124L42.1891 78.9695L42.0109 79.3222L41.8303 79.6709L41.6478 80.0172L41.462 80.3576L41.2011 80.8231C40.6773 81.7019 39.3266 81.1882 39.5379 80.1681C39.5613 80.0757 39.5906 79.9958 39.6379 79.9145L39.8793 79.4857L40.0556 79.161L40.2303 78.8331L40.4031 78.4994L40.5738 78.1619L40.7417 77.8205L40.9094 77.4753L41.0741 77.1253L41.2396 76.766ZM44.3889 68.4197C44.6781 67.5747 45.8565 67.5967 46.1153 68.4463C46.166 68.6288 46.1646 68.7989 46.1068 68.9799C45.7316 70.1353 45.3402 71.2827 44.9313 72.4261C44.6021 73.2876 43.3847 73.1959 43.1926 72.2828C43.1641 72.1168 43.1766 71.9741 43.232 71.8137C43.6336 70.6866 44.0184 69.557 44.3889 68.4197ZM47.0312 59.8014C47.3119 58.873 48.6732 58.9767 48.7949 59.9645C48.808 60.083 48.7966 60.206 48.7613 60.3214C48.4137 61.4752 48.0705 62.6304 47.722 63.7838C47.451 64.6804 46.144 64.633 45.9648 63.6622C45.9447 63.5259 45.953 63.3952 45.9923 63.2623C46.3403 62.1082 46.6834 60.9536 47.0312 59.8014ZM49.7669 51.1541C50.0711 50.2655 51.3767 50.3727 51.5173 51.3284C51.5354 51.4698 51.5227 51.6041 51.4761 51.7391C51.0864 52.871 50.7135 54.0109 50.3501 55.1513C50.0834 55.99 48.8931 55.9937 48.6237 55.1395C48.5732 54.9573 48.569 54.788 48.6278 54.6061C48.9943 53.4524 49.3717 52.299 49.7669 51.1541ZM53.1227 42.6728C53.2453 42.4008 53.4958 42.2136 53.7864 42.159C54.5068 42.0359 55.065 42.7596 54.7657 43.4254L54.4331 44.1508L54.249 44.565L53.8873 45.3983C53.7047 45.8311 53.5218 46.2641 53.3467 46.6992C52.969 47.6249 51.591 47.3539 51.6041 46.3394C51.6081 46.2292 51.6287 46.1341 51.6687 46.0305C51.8488 45.5818 52.0366 45.1356 52.2249 44.6907L52.5957 43.8345L52.7844 43.4096L53.1227 42.6728ZM57.7224 34.7031C58.3041 33.9262 59.5189 34.4632 59.3397 35.4141C59.3117 35.5471 59.2616 35.6562 59.1836 35.7665L58.9325 36.1159L58.6874 36.4658L58.4461 36.8189L58.2078 37.1755L57.9732 37.5353L57.742 37.8997L57.5135 38.2675L57.2457 38.7092C57.0444 39.0486 56.6513 39.2221 56.2665 39.1334C55.6697 38.9967 55.3787 38.3229 55.6872 37.7939L55.9738 37.3206L56.2117 36.9371L56.4538 36.5579L56.6998 36.1806L56.9485 35.8067L57.2019 35.4363L57.4586 35.0699L57.7224 34.7031ZM64.1932 28.0785C64.7406 27.6664 65.5176 27.9756 65.6337 28.6517C65.682 28.982 65.56 29.3116 65.2897 29.5149L64.9494 29.7698L64.6216 30.0255L64.2981 30.2855L63.9785 30.5503L63.6637 30.82L63.3533 31.0952L63.0471 31.3746L62.7457 31.6597L62.6236 31.7781C61.9114 32.4725 60.753 31.6777 61.1716 30.7488C61.2198 30.6516 61.2762 30.5683 61.3542 30.4912L61.4949 30.3539L61.8175 30.05L62.145 29.7515L62.4762 29.4574L62.8131 29.1686L63.1544 28.8852L63.5017 28.607L63.8522 28.3339L64.1932 28.0785ZM72.552 23.9609C73.5036 23.6903 74.1489 24.9188 73.3516 25.5486C73.2589 25.6175 73.171 25.6611 73.0604 25.6958L72.5643 25.8447L72.1315 25.9841L71.7047 26.1293L71.2834 26.2817L70.8678 26.4396L70.4586 26.6046L70.0545 26.7749L69.7878 26.8926C69.4996 27.026 69.1496 26.9918 68.8912 26.807C68.3235 26.3986 68.407 25.5394 69.0407 25.2474L69.3366 25.1161L69.7697 24.9323L70.2085 24.7568L70.6541 24.5868L71.1052 24.424L71.5617 24.2677L72.0246 24.1189L72.552 23.9609ZM81.6984 22.6389C82.5852 22.6203 82.9717 23.7405 82.2568 24.2727C82.102 24.3817 81.9433 24.4386 81.7525 24.4455C80.5703 24.4786 79.4005 24.559 78.2245 24.6921C77.8362 24.7373 77.4562 24.5225 77.2971 24.1649C77.0454 23.6079 77.4145 22.9667 78.0184 22.8962C79.2454 22.7578 80.464 22.6738 81.6984 22.6389ZM90.881 23.3572C91.7607 23.5174 91.8968 24.7361 91.0537 25.0845C90.8861 25.147 90.7319 25.1667 90.5543 25.1347C89.4009 24.9161 88.2193 24.7556 87.0515 24.6389C86.2511 24.5526 85.948 23.5587 86.5634 23.0446C86.7559 22.8923 86.9818 22.8143 87.2288 22.8408C88.4478 22.9634 89.6771 23.1288 90.881 23.3572ZM99.7063 26.0368C100.44 26.3674 100.422 27.4046 99.6771 27.7044C99.4481 27.7895 99.2066 27.794 98.9805 27.6924C97.9058 27.2183 96.8068 26.7976 95.6893 26.4338C95.319 26.3159 95.0601 25.9586 95.0655 25.5687C95.0729 24.9546 95.6631 24.5288 96.2483 24.7146C97.4229 25.0992 98.5755 25.5382 99.7063 26.0368ZM107.517 31.0876C107.672 31.2375 107.761 31.4087 107.792 31.6217C107.903 32.4645 106.904 32.9823 106.276 32.4004C105.453 31.6157 104.516 30.8675 103.573 30.2291C102.781 29.6746 103.276 28.4481 104.223 28.5897C104.362 28.6133 104.474 28.6578 104.591 28.7367C105.617 29.437 106.619 30.2296 107.517 31.0876ZM0.775187 80.3632C0.536355 80.2044 0.397055 79.9619 0.371403 79.6782C0.319043 78.9269 1.14622 78.4405 1.76858 78.8541L2.4593 79.3055L3.14181 79.7458L3.81728 80.1742L4.48399 80.5915L4.79621 80.7833C5.5778 81.2752 5.21272 82.4826 4.28209 82.4542C4.12489 82.446 3.97667 82.4025 3.84287 82.3187L3.53043 82.126L2.85293 81.7025L2.16912 81.2668L1.47616 80.8201L0.775187 80.3632Z" fill="#CB6CE6"/>
<path fill-rule="evenodd" clip-rule="evenodd" d="M106.033 32.6481L129.502 41.1045L110.709 27.1783L106.033 32.6481Z" fill="#7C3B8E"/>
<path fill-rule="evenodd" clip-rule="evenodd" d="M129.501 41.1044L111.178 22.8149L110.708 27.1782L129.501 41.1044Z" fill="#CB6CE6"/>
<path fill-rule="evenodd" clip-rule="evenodd" d="M110.227 30.7647L109.082 40.5264L129.501 41.1043L110.227 30.7647Z" fill="#CB6CE6"/>
<path fill-rule="evenodd" clip-rule="evenodd" d="M106.033 32.648L110.227 30.7648L109.806 34.3526L106.033 32.648Z" fill="#CB6CE6"/>
</svg>
